<svg width="280" height="625" xmlns="http://www.w3.org/2000/svg"><path stroke="#aaa" d="M4 0v625M12 0v625M20 0v625M28 0v625M36 0v625M44 0v625M52 0v625M60 0v625M68 0v625M76 0v625M84 0v625M92 0v625M100 0v625M108 0v625M116 0v625M124 0v625M132 0v625M140 0v625M148 0v625M156 0v625M164 0v625M172 0v625M180 0v625M188 0v625M196 0v625M204 0v625M212 0v625M220 0v625M228 0v625M236 0v625M244 0v625M252 0v625M260 0v625M268 0v625M276 0v625"/><path fill="#64C97A" d="M0 0h8v1H0zM8 0h8v1H8zM16 0h8v1h-8zM0 1h8v1H0zM16 2h8v1h-8zM16 3h8v1h-8zM16 4h8v1h-8zM24 5h8v1h-8zM32 5h8v1h-8zM40 5h8v1h-8zM48 5h8v1h-8zM56 5h8v1h-8zM64 5h8v1h-8zM24 6h8v1h-8zM32 6h8v1h-8zM40 6h8v1h-8zM48 6h8v1h-8zM56 6h8v1h-8z"/><path fill="#5196D5" d="M64 6h8v1h-8zM72 6h8v1h-8zM80 6h8v1h-8zM88 6h8v1h-8zM96 6h8v1h-8zM104 6h8v1h-8zM112 6h8v1h-8zM120 6h8v1h-8zM128 6h8v1h-8zM136 6h8v1h-8zM144 6h8v1h-8zM152 6h8v1h-8zM160 6h8v1h-8zM168 6h8v1h-8zM176 6h8v1h-8zM184 6h8v1h-8zM192 6h8v1h-8zM200 6h8v1h-8zM208 6h8v1h-8zM216 6h8v1h-8zM224 6h8v1h-8zM232 6h8v1h-8z"/><path fill="#64C97A" d="M240 6h8v1h-8zM248 6h8v1h-8zM256 6h8v1h-8zM264 6h8v1h-8zM272 6h8v1h-8zM24 7h8v1h-8zM32 7h8v1h-8zM40 7h8v1h-8z"/><path fill="#FEFF95" d="M48 7h8v1h-8zM56 7h8v1h-8zM64 7h8v1h-8z"/><path fill="#64C97A" d="M24 8h8v1h-8zM32 8h8v1h-8z"/><path fill="#EE89C9" d="M40 8h8v1h-8zM48 8h8v1h-8z"/><path fill="#5196D5" d="M56 8h8v1h-8zM64 8h8v1h-8zM72 8h8v1h-8zM80 8h8v1h-8zM88 8h8v1h-8zM96 8h8v1h-8zM104 8h8v1h-8zM112 8h8v1h-8zM120 8h8v1h-8zM128 8h8v1h-8zM136 8h8v1h-8zM144 8h8v1h-8zM152 8h8v1h-8zM160 8h8v1h-8zM168 8h8v1h-8zM176 8h8v1h-8zM184 8h8v1h-8zM192 8h8v1h-8zM200 8h8v1h-8zM208 8h8v1h-8zM216 8h8v1h-8zM224 8h8v1h-8zM232 8h8v1h-8zM240 8h8v1h-8zM248 8h8v1h-8zM256 8h8v1h-8zM264 8h8v1h-8zM272 8h8v1h-8z"/><path fill="#64C97A" d="M24 9h8v1h-8z"/><path fill="#5196D5" d="M32 9h8v1h-8z"/><path fill="#64C97A" d="M40 9h8v1h-8zM48 9h8v1h-8z"/><path fill="#FEFF95" d="M56 9h8v1h-8zM64 9h8v1h-8zM72 9h8v1h-8zM80 9h8v1h-8zM88 9h8v1h-8zM96 9h8v1h-8zM104 9h8v1h-8z"/><path fill="#64C97A" d="M32 10h8v1h-8zM40 10h8v1h-8zM48 10h8v1h-8zM56 10h8v1h-8zM64 10h8v1h-8zM72 10h8v1h-8zM80 10h8v1h-8zM88 10h8v1h-8zM96 10h8v1h-8zM104 10h8v1h-8zM112 10h8v1h-8z"/><path fill="#FEFF95" d="M120 10h8v1h-8zM128 10h8v1h-8zM136 10h8v1h-8zM144 10h8v1h-8zM152 10h8v1h-8zM160 10h8v1h-8zM168 10h8v1h-8z"/><path fill="#64C97A" d="M176 10h8v1h-8zM184 10h8v1h-8zM192 10h8v1h-8zM200 10h8v1h-8zM208 10h8v1h-8zM216 10h8v1h-8zM32 11h8v1h-8zM40 11h8v1h-8zM48 11h8v1h-8z"/><path fill="#FEFF95" d="M56 11h8v1h-8zM64 11h8v1h-8zM72 11h8v1h-8zM80 11h8v1h-8zM88 11h8v1h-8zM96 11h8v1h-8zM104 11h8v1h-8z"/><path fill="#64C97A" d="M64 12h8v1h-8zM72 12h8v1h-8zM80 12h8v1h-8zM88 12h8v1h-8zM96 12h8v1h-8zM104 12h8v1h-8zM112 12h8v1h-8zM120 12h8v1h-8zM128 12h8v1h-8zM136 12h8v1h-8zM144 12h8v1h-8zM152 12h8v1h-8zM160 12h8v1h-8zM168 12h8v1h-8zM176 12h8v1h-8zM184 12h8v1h-8zM192 12h8v1h-8zM200 12h8v1h-8zM208 12h8v1h-8zM216 12h8v1h-8zM224 12h8v1h-8zM232 12h8v1h-8zM240 12h8v1h-8zM248 12h8v1h-8zM256 12h8v1h-8zM264 12h8v1h-8zM272 12h8v1h-8zM64 13h8v1h-8zM72 13h8v1h-8zM80 13h8v1h-8zM88 13h8v1h-8zM96 13h8v1h-8zM104 13h8v1h-8zM112 13h8v1h-8zM120 13h8v1h-8zM128 13h8v1h-8zM136 13h8v1h-8zM144 13h8v1h-8zM152 13h8v1h-8zM160 13h8v1h-8zM168 13h8v1h-8zM176 13h8v1h-8zM184 13h8v1h-8zM192 13h8v1h-8zM200 13h8v1h-8zM208 13h8v1h-8zM216 13h8v1h-8zM64 14h8v1h-8zM72 14h8v1h-8zM80 14h8v1h-8zM88 14h8v1h-8zM96 14h8v1h-8zM104 14h8v1h-8zM112 14h8v1h-8zM120 14h8v1h-8zM128 14h8v1h-8zM136 14h8v1h-8zM144 14h8v1h-8zM152 14h8v1h-8zM160 14h8v1h-8zM168 14h8v1h-8zM176 14h8v1h-8zM184 14h8v1h-8z"/><path fill="#5196D5" d="M192 14h8v1h-8zM200 14h8v1h-8zM208 14h8v1h-8zM216 14h8v1h-8zM224 14h8v1h-8zM232 14h8v1h-8zM240 14h8v1h-8zM248 14h8v1h-8zM256 14h8v1h-8zM264 14h8v1h-8zM272 14h8v1h-8z"/><path fill="#64C97A" d="M72 15h8v1h-8zM80 15h8v1h-8zM88 15h8v1h-8z"/><path fill="#FEFF95" d="M96 15h8v1h-8zM104 15h8v1h-8zM112 15h8v1h-8zM120 15h8v1h-8zM128 15h8v1h-8zM136 15h8v1h-8zM144 15h8v1h-8zM152 15h8v1h-8zM160 15h8v1h-8zM168 15h8v1h-8zM176 15h8v1h-8zM184 15h8v1h-8zM192 15h8v1h-8zM200 15h8v1h-8zM208 15h8v1h-8zM216 15h8v1h-8zM224 15h8v1h-8zM232 15h8v1h-8zM240 15h8v1h-8zM248 15h8v1h-8zM256 15h8v1h-8zM264 15h8v1h-8zM272 15h8v1h-8z"/><path fill="#64C97A" d="M72 16h8v1h-8z"/><path fill="#D55744" d="M80 16h8v1h-8zM88 16h8v1h-8zM96 16h8v1h-8zM104 16h8v1h-8zM112 16h8v1h-8zM120 16h8v1h-8zM128 16h8v1h-8zM136 16h8v1h-8zM144 16h8v1h-8zM152 16h8v1h-8zM160 16h8v1h-8zM168 16h8v1h-8zM176 16h8v1h-8zM184 16h8v1h-8zM192 16h8v1h-8zM200 16h8v1h-8zM208 16h8v1h-8z"/><path fill="#64C97A" d="M88 17h8v1h-8zM96 17h8v1h-8zM104 17h8v1h-8zM112 17h8v1h-8zM120 17h8v1h-8zM128 17h8v1h-8zM136 17h8v1h-8zM144 17h8v1h-8zM152 17h8v1h-8zM160 17h8v1h-8zM168 17h8v1h-8zM176 17h8v1h-8zM184 17h8v1h-8zM192 17h8v1h-8zM200 17h8v1h-8zM208 17h8v1h-8zM216 17h8v1h-8zM224 17h8v1h-8zM232 17h8v1h-8z"/><path fill="#5196D5" d="M240 17h8v1h-8zM248 17h8v1h-8zM256 17h8v1h-8zM264 17h8v1h-8zM272 17h8v1h-8z"/><path fill="#64C97A" d="M88 18h8v1h-8zM96 18h8v1h-8zM104 18h8v1h-8zM112 18h8v1h-8zM120 18h8v1h-8z"/><path fill="#5196D5" d="M128 18h8v1h-8zM136 18h8v1h-8zM144 18h8v1h-8zM152 18h8v1h-8zM160 18h8v1h-8zM168 18h8v1h-8zM176 18h8v1h-8zM184 18h8v1h-8zM192 18h8v1h-8zM200 18h8v1h-8zM208 18h8v1h-8zM216 18h8v1h-8zM224 18h8v1h-8zM232 18h8v1h-8zM240 18h8v1h-8zM248 18h8v1h-8zM256 18h8v1h-8zM264 18h8v1h-8zM272 18h8v1h-8z"/><path fill="#64C97A" d="M96 19h8v1h-8zM104 19h8v1h-8zM112 19h8v1h-8zM120 19h8v1h-8zM128 19h8v1h-8zM136 19h8v1h-8zM144 19h8v1h-8zM152 19h8v1h-8zM160 19h8v1h-8zM168 19h8v1h-8zM176 19h8v1h-8zM184 19h8v1h-8zM192 19h8v1h-8zM200 19h8v1h-8zM208 19h8v1h-8zM216 19h8v1h-8zM224 19h8v1h-8zM232 19h8v1h-8zM240 19h8v1h-8zM248 19h8v1h-8zM256 19h8v1h-8zM264 19h8v1h-8zM272 19h8v1h-8zM96 20h8v1h-8zM104 20h8v1h-8zM112 20h8v1h-8zM120 20h8v1h-8zM128 20h8v1h-8zM136 20h8v1h-8zM144 20h8v1h-8zM152 20h8v1h-8zM160 20h8v1h-8zM168 20h8v1h-8zM176 20h8v1h-8zM184 20h8v1h-8zM192 20h8v1h-8zM200 20h8v1h-8zM208 20h8v1h-8zM216 20h8v1h-8zM224 20h8v1h-8zM232 20h8v1h-8z"/><path fill="#FEFF95" d="M240 20h8v1h-8zM248 20h8v1h-8zM256 20h8v1h-8zM264 20h8v1h-8zM272 20h8v1h-8z"/><path fill="#64C97A" d="M96 21h8v1h-8zM104 21h8v1h-8zM112 21h8v1h-8zM120 21h8v1h-8zM128 21h8v1h-8zM136 21h8v1h-8zM144 21h8v1h-8zM152 21h8v1h-8zM160 21h8v1h-8z"/><path fill="#5196D5" d="M168 21h8v1h-8zM176 21h8v1h-8zM184 21h8v1h-8zM192 21h8v1h-8zM200 21h8v1h-8zM208 21h8v1h-8zM216 21h8v1h-8zM224 21h8v1h-8zM232 21h8v1h-8zM240 21h8v1h-8zM248 21h8v1h-8zM256 21h8v1h-8zM264 21h8v1h-8zM272 21h8v1h-8z"/><path fill="#64C97A" d="M104 22h8v1h-8zM112 22h8v1h-8zM120 22h8v1h-8zM128 22h8v1h-8zM136 22h8v1h-8zM144 22h8v1h-8zM152 22h8v1h-8zM160 22h8v1h-8zM168 22h8v1h-8zM176 22h8v1h-8zM184 22h8v1h-8zM192 22h8v1h-8zM200 22h8v1h-8zM208 22h8v1h-8zM216 22h8v1h-8zM224 22h8v1h-8zM232 22h8v1h-8zM240 22h8v1h-8zM248 22h8v1h-8zM256 22h8v1h-8zM264 22h8v1h-8zM112 23h8v1h-8zM120 23h8v1h-8zM128 23h8v1h-8zM136 23h8v1h-8zM144 23h8v1h-8zM152 23h8v1h-8zM160 23h8v1h-8zM168 23h8v1h-8zM176 23h8v1h-8zM184 23h8v1h-8zM192 23h8v1h-8zM200 23h8v1h-8zM208 23h8v1h-8zM216 23h8v1h-8zM224 23h8v1h-8zM232 23h8v1h-8zM240 23h8v1h-8zM248 23h8v1h-8zM256 23h8v1h-8zM264 23h8v1h-8zM272 23h8v1h-8zM112 24h8v1h-8zM120 24h8v1h-8z"/><path fill="#FEFF95" d="M128 24h8v1h-8zM136 24h8v1h-8zM144 24h8v1h-8zM152 24h8v1h-8zM160 24h8v1h-8zM168 24h8v1h-8zM176 24h8v1h-8zM184 24h8v1h-8zM192 24h8v1h-8zM200 24h8v1h-8zM208 24h8v1h-8zM216 24h8v1h-8zM224 24h8v1h-8zM232 24h8v1h-8zM240 24h8v1h-8zM248 24h8v1h-8zM256 24h8v1h-8zM264 24h8v1h-8zM272 24h8v1h-8z"/><path fill="#64C97A" d="M216 25h8v1h-8zM224 25h8v1h-8zM224 26h8v1h-8zM232 26h8v1h-8zM240 26h8v1h-8zM248 26h8v1h-8zM256 26h8v1h-8zM264 26h8v1h-8zM272 26h8v1h-8zM224 27h8v1h-8zM232 27h8v1h-8zM240 27h8v1h-8zM248 27h8v1h-8zM256 27h8v1h-8zM264 27h8v1h-8zM272 27h8v1h-8zM224 28h8v1h-8zM232 28h8v1h-8zM240 28h8v1h-8zM248 28h8v1h-8zM256 28h8v1h-8zM264 28h8v1h-8z"/><path fill="#5196D5" d="M272 28h8v1h-8z"/><path fill="#64C97A" d="M224 29h8v1h-8zM232 29h8v1h-8zM240 29h8v1h-8zM248 29h8v1h-8zM256 29h8v1h-8zM264 29h8v1h-8zM224 30h8v1h-8zM232 30h8v1h-8zM232 31h8v1h-8zM240 31h8v1h-8zM248 31h8v1h-8zM256 31h8v1h-8zM264 31h8v1h-8zM272 31h8v1h-8z"/><path fill="#D55744" d="M0 32h8v1H0zM8 32h8v1H8zM16 32h8v1h-8zM0 33h8v1H0zM8 33h8v1H8z"/><path fill="#FEFF95" d="M16 33h8v1h-8z"/><path fill="#D55744" d="M8 34h8v1H8zM16 34h8v1h-8zM16 35h8v1h-8zM16 36h8v1h-8zM16 37h8v1h-8zM16 38h8v1h-8zM16 39h8v1h-8zM16 40h8v1h-8zM16 41h8v1h-8zM16 42h8v1h-8zM16 43h8v1h-8zM16 44h8v1h-8zM16 45h8v1h-8zM16 46h8v1h-8zM16 47h8v1h-8zM16 48h8v1h-8zM16 49h8v1h-8zM16 50h8v1h-8zM16 51h8v1h-8zM16 52h8v1h-8zM16 53h8v1h-8zM16 54h8v1h-8zM16 55h8v1h-8zM16 56h8v1h-8zM16 57h8v1h-8zM16 58h8v1h-8zM16 59h8v1h-8zM16 60h8v1h-8zM16 61h8v1h-8zM16 62h8v1h-8zM16 63h8v1h-8zM16 64h8v1h-8zM16 65h8v1h-8zM16 66h8v1h-8zM16 67h8v1h-8zM16 68h8v1h-8zM24 69h8v1h-8zM32 69h8v1h-8zM40 69h8v1h-8zM48 69h8v1h-8zM56 69h8v1h-8zM64 69h8v1h-8zM72 69h8v1h-8zM80 69h8v1h-8zM88 69h8v1h-8zM96 69h8v1h-8zM104 69h8v1h-8zM112 69h8v1h-8zM120 69h8v1h-8zM128 69h8v1h-8zM136 69h8v1h-8zM144 69h8v1h-8zM152 69h8v1h-8zM160 69h8v1h-8zM168 69h8v1h-8zM176 69h8v1h-8zM184 69h8v1h-8zM192 69h8v1h-8zM200 69h8v1h-8zM208 69h8v1h-8zM216 69h8v1h-8zM224 69h8v1h-8zM232 69h8v1h-8zM240 69h8v1h-8zM248 69h8v1h-8zM256 69h8v1h-8zM264 69h8v1h-8zM272 69h8v1h-8zM24 70h8v1h-8zM32 70h8v1h-8zM40 70h8v1h-8zM48 70h8v1h-8zM56 70h8v1h-8zM64 70h8v1h-8zM72 70h8v1h-8zM80 70h8v1h-8zM88 70h8v1h-8zM24 71h8v1h-8zM32 71h8v1h-8zM40 71h8v1h-8zM48 71h8v1h-8zM56 71h8v1h-8zM24 72h8v1h-8zM32 72h8v1h-8zM40 72h8v1h-8z"/><path fill="#5196D5" d="M48 72h8v1h-8zM56 72h8v1h-8zM64 72h8v1h-8zM72 72h8v1h-8zM80 72h8v1h-8zM88 72h8v1h-8zM96 72h8v1h-8zM104 72h8v1h-8zM112 72h8v1h-8zM120 72h8v1h-8z"/><path fill="#D55744" d="M24 73h8v1h-8zM32 73h8v1h-8zM40 73h8v1h-8z"/><path fill="#5196D5" d="M48 73h8v1h-8zM56 73h8v1h-8zM64 73h8v1h-8zM72 73h8v1h-8zM80 73h8v1h-8z"/><path fill="#D55744" d="M24 74h8v1h-8zM32 74h8v1h-8zM40 74h8v1h-8zM24 75h8v1h-8zM32 75h8v1h-8zM40 75h8v1h-8zM24 76h8v1h-8zM32 76h8v1h-8zM40 76h8v1h-8zM24 77h8v1h-8zM32 77h8v1h-8zM40 77h8v1h-8zM24 78h8v1h-8zM32 78h8v1h-8zM40 78h8v1h-8zM24 79h8v1h-8zM32 79h8v1h-8zM40 79h8v1h-8zM24 80h8v1h-8zM32 80h8v1h-8zM40 80h8v1h-8zM24 81h8v1h-8zM32 81h8v1h-8zM40 81h8v1h-8zM24 82h8v1h-8zM32 82h8v1h-8zM40 82h8v1h-8zM24 83h8v1h-8zM32 83h8v1h-8zM40 83h8v1h-8zM24 84h8v1h-8zM32 84h8v1h-8zM40 84h8v1h-8zM24 85h8v1h-8zM32 85h8v1h-8zM40 85h8v1h-8zM24 86h8v1h-8zM32 86h8v1h-8zM40 86h8v1h-8zM24 87h8v1h-8zM32 87h8v1h-8zM40 87h8v1h-8zM24 88h8v1h-8zM32 88h8v1h-8zM40 88h8v1h-8zM24 89h8v1h-8zM32 89h8v1h-8zM40 89h8v1h-8zM24 90h8v1h-8zM32 90h8v1h-8zM40 90h8v1h-8zM24 91h8v1h-8zM32 91h8v1h-8zM40 91h8v1h-8zM24 92h8v1h-8zM32 92h8v1h-8zM40 92h8v1h-8zM24 93h8v1h-8zM32 93h8v1h-8zM40 93h8v1h-8zM24 94h8v1h-8zM32 94h8v1h-8zM40 94h8v1h-8zM24 95h8v1h-8zM32 95h8v1h-8zM40 95h8v1h-8zM24 96h8v1h-8zM32 96h8v1h-8zM40 96h8v1h-8zM24 97h8v1h-8zM32 97h8v1h-8zM40 97h8v1h-8zM24 98h8v1h-8zM32 98h8v1h-8zM40 98h8v1h-8zM24 99h8v1h-8zM32 99h8v1h-8zM40 99h8v1h-8zM24 100h8v1h-8zM32 100h8v1h-8zM40 100h8v1h-8zM24 101h8v1h-8zM32 101h8v1h-8zM40 101h8v1h-8zM24 102h8v1h-8zM32 102h8v1h-8zM40 102h8v1h-8zM24 103h8v1h-8zM216 103h8v1h-8zM224 103h8v1h-8zM232 103h8v1h-8zM240 103h8v1h-8zM248 103h8v1h-8zM256 103h8v1h-8zM264 103h8v1h-8zM272 103h8v1h-8zM32 104h8v1h-8zM40 104h8v1h-8zM48 104h8v1h-8zM56 104h8v1h-8zM64 104h8v1h-8zM72 104h8v1h-8zM80 104h8v1h-8zM88 104h8v1h-8zM96 104h8v1h-8zM104 104h8v1h-8zM112 104h8v1h-8zM120 104h8v1h-8zM128 104h8v1h-8zM136 104h8v1h-8zM144 104h8v1h-8zM152 104h8v1h-8zM160 104h8v1h-8zM168 104h8v1h-8zM176 104h8v1h-8zM184 104h8v1h-8zM192 104h8v1h-8zM200 104h8v1h-8zM208 104h8v1h-8zM40 105h8v1h-8zM48 105h8v1h-8zM56 105h8v1h-8zM64 105h8v1h-8zM72 105h8v1h-8zM80 105h8v1h-8zM88 105h8v1h-8zM96 105h8v1h-8zM104 105h8v1h-8zM112 105h8v1h-8zM120 105h8v1h-8zM56 106h8v1h-8zM64 106h8v1h-8zM72 106h8v1h-8zM80 106h8v1h-8zM88 106h8v1h-8zM96 106h8v1h-8zM104 106h8v1h-8zM112 106h8v1h-8zM120 106h8v1h-8zM128 106h8v1h-8zM136 106h8v1h-8zM144 106h8v1h-8zM152 106h8v1h-8zM160 106h8v1h-8zM168 106h8v1h-8zM56 107h8v1h-8zM64 107h8v1h-8z"/><path fill="#5196D5" d="M72 107h8v1h-8zM80 107h8v1h-8zM88 107h8v1h-8zM96 107h8v1h-8zM104 107h8v1h-8zM112 107h8v1h-8zM120 107h8v1h-8z"/><path fill="#D55744" d="M128 107h8v1h-8zM136 107h8v1h-8zM144 107h8v1h-8zM152 107h8v1h-8zM160 107h8v1h-8zM168 107h8v1h-8zM176 107h8v1h-8zM184 107h8v1h-8zM192 107h8v1h-8zM200 107h8v1h-8zM208 107h8v1h-8zM56 108h8v1h-8zM64 109h8v1h-8zM72 109h8v1h-8zM80 109h8v1h-8zM88 109h8v1h-8zM96 109h8v1h-8zM104 109h8v1h-8zM112 109h8v1h-8zM120 109h8v1h-8zM128 109h8v1h-8zM136 109h8v1h-8zM144 109h8v1h-8zM152 109h8v1h-8zM160 109h8v1h-8zM168 109h8v1h-8zM176 109h8v1h-8zM184 109h8v1h-8zM192 109h8v1h-8zM200 109h8v1h-8zM208 109h8v1h-8zM216 109h8v1h-8zM224 109h8v1h-8zM232 109h8v1h-8zM240 109h8v1h-8zM248 109h8v1h-8zM256 109h8v1h-8zM264 109h8v1h-8zM272 109h8v1h-8zM64 110h8v1h-8zM72 110h8v1h-8zM80 110h8v1h-8zM88 110h8v1h-8zM96 110h8v1h-8zM104 110h8v1h-8zM112 110h8v1h-8zM120 110h8v1h-8zM128 110h8v1h-8zM136 110h8v1h-8zM144 110h8v1h-8zM152 110h8v1h-8zM160 110h8v1h-8zM168 110h8v1h-8zM176 110h8v1h-8zM184 110h8v1h-8zM192 110h8v1h-8zM200 110h8v1h-8zM208 110h8v1h-8zM64 111h8v1h-8z"/><path fill="#FEFF95" d="M72 111h8v1h-8zM80 111h8v1h-8z"/><path fill="#D55744" d="M88 111h8v1h-8zM96 111h8v1h-8zM104 111h8v1h-8zM112 111h8v1h-8zM120 111h8v1h-8zM128 111h8v1h-8zM136 111h8v1h-8zM144 111h8v1h-8zM152 111h8v1h-8zM160 111h8v1h-8zM168 111h8v1h-8zM176 111h8v1h-8zM184 111h8v1h-8zM192 111h8v1h-8zM200 111h8v1h-8zM208 111h8v1h-8zM216 111h8v1h-8zM224 111h8v1h-8zM232 111h8v1h-8zM240 111h8v1h-8zM248 111h8v1h-8zM256 111h8v1h-8zM264 111h8v1h-8zM272 111h8v1h-8zM72 112h8v1h-8zM80 112h8v1h-8zM88 112h8v1h-8zM96 112h8v1h-8zM104 112h8v1h-8zM112 112h8v1h-8zM120 112h8v1h-8zM128 112h8v1h-8zM136 112h8v1h-8zM144 112h8v1h-8zM152 112h8v1h-8zM160 112h8v1h-8zM168 112h8v1h-8zM176 112h8v1h-8zM184 112h8v1h-8zM192 112h8v1h-8zM200 112h8v1h-8z"/><path fill="#5196D5" d="M208 112h8v1h-8zM216 112h8v1h-8zM224 112h8v1h-8zM232 112h8v1h-8zM240 112h8v1h-8zM248 112h8v1h-8zM256 112h8v1h-8zM264 112h8v1h-8zM272 112h8v1h-8z"/><path fill="#D55744" d="M80 113h8v1h-8zM88 113h8v1h-8zM96 113h8v1h-8zM104 113h8v1h-8zM112 113h8v1h-8zM120 113h8v1h-8zM128 113h8v1h-8zM136 113h8v1h-8zM144 113h8v1h-8zM152 113h8v1h-8zM160 113h8v1h-8zM168 113h8v1h-8z"/><path fill="#5196D5" d="M176 113h8v1h-8zM184 113h8v1h-8zM192 113h8v1h-8zM200 113h8v1h-8zM208 113h8v1h-8zM216 113h8v1h-8z"/><path fill="#D55744" d="M88 114h8v1h-8zM96 114h8v1h-8zM104 114h8v1h-8zM112 114h8v1h-8zM120 114h8v1h-8zM128 114h8v1h-8zM136 114h8v1h-8zM144 114h8v1h-8zM152 114h8v1h-8zM160 114h8v1h-8zM168 114h8v1h-8zM176 114h8v1h-8zM184 114h8v1h-8zM192 114h8v1h-8zM200 114h8v1h-8zM208 114h8v1h-8zM216 114h8v1h-8zM224 114h8v1h-8zM232 114h8v1h-8zM240 114h8v1h-8zM248 114h8v1h-8zM256 114h8v1h-8zM264 114h8v1h-8zM272 114h8v1h-8zM88 115h8v1h-8zM96 115h8v1h-8zM104 115h8v1h-8zM112 115h8v1h-8zM120 115h8v1h-8zM128 115h8v1h-8zM136 115h8v1h-8zM144 115h8v1h-8zM152 115h8v1h-8zM160 115h8v1h-8zM168 115h8v1h-8zM176 115h8v1h-8zM184 115h8v1h-8zM192 115h8v1h-8zM200 115h8v1h-8zM208 115h8v1h-8zM216 115h8v1h-8zM224 115h8v1h-8zM232 115h8v1h-8zM240 115h8v1h-8zM248 115h8v1h-8zM256 115h8v1h-8zM264 115h8v1h-8zM272 115h8v1h-8zM88 116h8v1h-8zM96 117h8v1h-8zM104 117h8v1h-8zM112 117h8v1h-8zM120 117h8v1h-8zM128 117h8v1h-8zM136 117h8v1h-8zM144 117h8v1h-8zM152 117h8v1h-8zM160 117h8v1h-8zM168 117h8v1h-8zM176 117h8v1h-8zM184 117h8v1h-8zM192 117h8v1h-8zM200 117h8v1h-8zM208 117h8v1h-8zM216 117h8v1h-8zM224 117h8v1h-8zM232 117h8v1h-8zM240 117h8v1h-8zM248 117h8v1h-8zM256 117h8v1h-8zM264 117h8v1h-8zM272 117h8v1h-8zM96 118h8v1h-8zM104 118h8v1h-8zM112 118h8v1h-8zM120 118h8v1h-8zM128 118h8v1h-8zM136 118h8v1h-8zM144 118h8v1h-8zM152 118h8v1h-8zM160 118h8v1h-8zM168 118h8v1h-8zM176 118h8v1h-8zM184 118h8v1h-8zM192 118h8v1h-8zM200 118h8v1h-8zM208 118h8v1h-8zM216 118h8v1h-8zM224 118h8v1h-8zM232 118h8v1h-8zM240 118h8v1h-8zM248 118h8v1h-8zM256 118h8v1h-8zM264 118h8v1h-8zM272 118h8v1h-8zM96 119h8v1h-8zM104 119h8v1h-8zM112 119h8v1h-8zM120 119h8v1h-8zM128 119h8v1h-8zM136 119h8v1h-8zM144 119h8v1h-8zM152 119h8v1h-8zM160 119h8v1h-8zM168 119h8v1h-8zM176 119h8v1h-8zM184 119h8v1h-8zM192 119h8v1h-8zM200 119h8v1h-8zM208 119h8v1h-8zM216 119h8v1h-8zM224 119h8v1h-8zM232 119h8v1h-8zM96 120h8v1h-8zM104 120h8v1h-8zM112 120h8v1h-8zM120 120h8v1h-8zM128 120h8v1h-8zM136 120h8v1h-8zM144 120h8v1h-8zM152 120h8v1h-8zM160 120h8v1h-8zM168 120h8v1h-8zM176 120h8v1h-8zM184 120h8v1h-8zM192 120h8v1h-8zM200 120h8v1h-8zM208 120h8v1h-8zM216 120h8v1h-8zM96 121h8v1h-8zM104 121h8v1h-8zM112 121h8v1h-8zM120 121h8v1h-8zM128 121h8v1h-8zM136 121h8v1h-8zM144 121h8v1h-8zM152 121h8v1h-8zM160 121h8v1h-8zM168 121h8v1h-8zM176 121h8v1h-8zM104 122h8v1h-8z"/><path fill="#925CB1" d="M112 122h8v1h-8zM120 122h8v1h-8z"/><path fill="#5196D5" d="M128 122h8v1h-8zM136 122h8v1h-8zM144 122h8v1h-8zM152 122h8v1h-8zM160 122h8v1h-8zM168 122h8v1h-8zM176 122h8v1h-8zM184 122h8v1h-8zM192 122h8v1h-8zM200 122h8v1h-8zM208 122h8v1h-8zM216 122h8v1h-8zM224 122h8v1h-8zM232 122h8v1h-8zM240 122h8v1h-8zM248 122h8v1h-8zM256 122h8v1h-8zM264 122h8v1h-8zM272 122h8v1h-8z"/><path fill="#D55744" d="M104 123h8v1h-8zM112 123h8v1h-8zM120 123h8v1h-8zM128 123h8v1h-8zM136 123h8v1h-8zM144 123h8v1h-8zM152 123h8v1h-8zM160 123h8v1h-8zM168 123h8v1h-8zM176 123h8v1h-8zM184 123h8v1h-8zM192 123h8v1h-8zM200 123h8v1h-8zM208 123h8v1h-8zM216 123h8v1h-8zM224 123h8v1h-8zM232 123h8v1h-8zM240 123h8v1h-8zM248 123h8v1h-8zM256 123h8v1h-8zM264 123h8v1h-8zM272 123h8v1h-8zM104 124h8v1h-8zM112 124h8v1h-8zM120 124h8v1h-8zM128 124h8v1h-8zM136 124h8v1h-8zM144 124h8v1h-8zM152 124h8v1h-8zM160 124h8v1h-8zM168 124h8v1h-8zM176 124h8v1h-8zM184 124h8v1h-8zM192 124h8v1h-8zM200 124h8v1h-8zM208 124h8v1h-8zM216 124h8v1h-8zM224 124h8v1h-8zM232 124h8v1h-8zM240 124h8v1h-8zM248 124h8v1h-8zM256 124h8v1h-8zM264 124h8v1h-8zM272 124h8v1h-8zM112 125h8v1h-8zM120 125h8v1h-8zM128 125h8v1h-8zM136 125h8v1h-8zM144 125h8v1h-8zM152 125h8v1h-8zM160 125h8v1h-8zM168 125h8v1h-8zM176 125h8v1h-8zM184 125h8v1h-8zM192 125h8v1h-8zM200 125h8v1h-8zM208 125h8v1h-8zM216 125h8v1h-8zM224 125h8v1h-8zM232 125h8v1h-8zM240 125h8v1h-8zM248 125h8v1h-8zM256 125h8v1h-8zM264 125h8v1h-8zM272 125h8v1h-8zM112 126h8v1h-8zM120 126h8v1h-8zM128 126h8v1h-8zM136 126h8v1h-8zM144 126h8v1h-8zM152 126h8v1h-8zM160 126h8v1h-8zM168 126h8v1h-8zM176 126h8v1h-8zM184 126h8v1h-8zM192 126h8v1h-8zM200 126h8v1h-8zM208 126h8v1h-8zM216 126h8v1h-8zM224 126h8v1h-8zM232 126h8v1h-8zM240 126h8v1h-8zM248 126h8v1h-8zM256 126h8v1h-8zM264 126h8v1h-8zM272 126h8v1h-8zM112 127h8v1h-8zM120 127h8v1h-8zM128 128h8v1h-8zM136 128h8v1h-8zM144 128h8v1h-8zM152 128h8v1h-8zM160 128h8v1h-8zM168 128h8v1h-8zM176 128h8v1h-8zM184 128h8v1h-8zM192 128h8v1h-8zM200 128h8v1h-8zM208 128h8v1h-8zM216 128h8v1h-8zM224 128h8v1h-8zM232 128h8v1h-8zM240 128h8v1h-8zM248 128h8v1h-8zM256 128h8v1h-8zM264 128h8v1h-8zM272 128h8v1h-8zM128 129h8v1h-8zM136 129h8v1h-8zM144 129h8v1h-8zM152 129h8v1h-8zM160 129h8v1h-8zM168 129h8v1h-8zM176 129h8v1h-8zM184 129h8v1h-8zM192 129h8v1h-8zM200 129h8v1h-8zM208 129h8v1h-8zM216 129h8v1h-8zM128 130h8v1h-8zM136 130h8v1h-8zM144 130h8v1h-8zM152 130h8v1h-8zM160 130h8v1h-8zM168 130h8v1h-8zM176 130h8v1h-8zM184 130h8v1h-8zM192 130h8v1h-8zM200 130h8v1h-8zM208 130h8v1h-8zM216 130h8v1h-8zM128 131h8v1h-8zM136 132h8v1h-8zM144 132h8v1h-8zM152 132h8v1h-8zM160 132h8v1h-8zM168 132h8v1h-8zM176 132h8v1h-8zM184 132h8v1h-8zM192 132h8v1h-8zM200 132h8v1h-8zM208 132h8v1h-8zM216 132h8v1h-8zM224 132h8v1h-8zM232 132h8v1h-8zM240 132h8v1h-8zM248 132h8v1h-8zM256 132h8v1h-8zM264 132h8v1h-8zM272 132h8v1h-8zM136 133h8v1h-8zM144 133h8v1h-8zM152 133h8v1h-8zM160 133h8v1h-8zM168 133h8v1h-8zM176 133h8v1h-8zM184 133h8v1h-8zM192 133h8v1h-8zM200 133h8v1h-8zM208 133h8v1h-8zM216 133h8v1h-8zM224 133h8v1h-8zM232 133h8v1h-8zM240 133h8v1h-8zM248 133h8v1h-8zM256 133h8v1h-8zM264 133h8v1h-8zM272 133h8v1h-8zM136 134h8v1h-8zM144 134h8v1h-8zM152 134h8v1h-8zM160 134h8v1h-8zM168 134h8v1h-8zM176 134h8v1h-8zM184 134h8v1h-8zM192 134h8v1h-8zM200 134h8v1h-8zM208 134h8v1h-8zM216 134h8v1h-8zM136 135h8v1h-8zM144 135h8v1h-8zM152 135h8v1h-8zM160 135h8v1h-8zM168 135h8v1h-8zM176 135h8v1h-8zM184 135h8v1h-8zM192 135h8v1h-8zM200 135h8v1h-8zM208 135h8v1h-8zM216 135h8v1h-8zM136 136h8v1h-8zM144 136h8v1h-8zM152 136h8v1h-8zM160 136h8v1h-8zM168 136h8v1h-8zM176 136h8v1h-8zM184 136h8v1h-8zM192 136h8v1h-8zM200 136h8v1h-8zM208 136h8v1h-8zM216 136h8v1h-8zM144 137h8v1h-8zM152 137h8v1h-8zM160 137h8v1h-8zM168 137h8v1h-8zM176 137h8v1h-8zM184 137h8v1h-8zM192 137h8v1h-8zM200 137h8v1h-8zM208 137h8v1h-8zM216 137h8v1h-8zM176 138h8v1h-8zM184 138h8v1h-8zM192 138h8v1h-8zM200 138h8v1h-8zM208 138h8v1h-8zM216 138h8v1h-8zM224 138h8v1h-8zM232 138h8v1h-8zM240 138h8v1h-8zM248 138h8v1h-8zM256 138h8v1h-8zM264 138h8v1h-8zM272 138h8v1h-8zM176 139h8v1h-8zM184 139h8v1h-8zM192 139h8v1h-8zM200 139h8v1h-8zM208 139h8v1h-8zM216 139h8v1h-8zM184 140h8v1h-8zM192 140h8v1h-8zM200 140h8v1h-8zM208 140h8v1h-8zM216 140h8v1h-8zM224 140h8v1h-8zM232 140h8v1h-8zM240 140h8v1h-8zM248 140h8v1h-8zM256 140h8v1h-8zM264 140h8v1h-8zM272 140h8v1h-8zM184 141h8v1h-8zM192 141h8v1h-8zM200 141h8v1h-8zM208 141h8v1h-8zM216 141h8v1h-8zM224 141h8v1h-8zM232 141h8v1h-8zM240 141h8v1h-8zM248 141h8v1h-8zM256 141h8v1h-8zM264 141h8v1h-8zM184 142h8v1h-8zM192 142h8v1h-8zM200 142h8v1h-8zM208 142h8v1h-8zM216 142h8v1h-8zM224 142h8v1h-8zM232 142h8v1h-8zM240 142h8v1h-8zM248 142h8v1h-8zM256 142h8v1h-8zM264 142h8v1h-8zM192 143h8v1h-8zM200 143h8v1h-8zM208 143h8v1h-8zM216 143h8v1h-8zM224 143h8v1h-8zM232 143h8v1h-8zM240 143h8v1h-8zM248 143h8v1h-8zM256 143h8v1h-8zM264 143h8v1h-8zM216 144h8v1h-8zM224 144h8v1h-8zM232 144h8v1h-8zM240 144h8v1h-8zM248 144h8v1h-8zM256 144h8v1h-8zM264 144h8v1h-8zM272 144h8v1h-8zM216 145h8v1h-8zM224 145h8v1h-8zM232 145h8v1h-8zM240 145h8v1h-8zM248 145h8v1h-8zM256 145h8v1h-8zM264 145h8v1h-8zM272 145h8v1h-8zM216 146h8v1h-8zM224 146h8v1h-8zM232 146h8v1h-8zM240 146h8v1h-8zM248 146h8v1h-8zM256 146h8v1h-8zM264 146h8v1h-8zM272 146h8v1h-8zM216 147h8v1h-8zM224 147h8v1h-8zM232 147h8v1h-8zM240 147h8v1h-8zM248 147h8v1h-8zM256 147h8v1h-8zM264 147h8v1h-8zM216 148h8v1h-8zM224 148h8v1h-8zM232 148h8v1h-8zM216 149h8v1h-8zM224 149h8v1h-8zM232 149h8v1h-8zM216 150h8v1h-8zM224 150h8v1h-8zM232 150h8v1h-8zM216 151h8v1h-8zM224 151h8v1h-8zM232 151h8v1h-8zM216 152h8v1h-8zM224 152h8v1h-8zM232 152h8v1h-8zM216 153h8v1h-8zM224 153h8v1h-8zM232 153h8v1h-8zM216 154h8v1h-8zM224 154h8v1h-8zM232 154h8v1h-8zM216 155h8v1h-8zM216 156h8v1h-8zM216 157h8v1h-8zM216 158h8v1h-8zM216 159h8v1h-8zM216 160h8v1h-8zM216 161h8v1h-8zM216 162h8v1h-8zM216 163h8v1h-8zM216 164h8v1h-8zM216 165h8v1h-8zM216 166h8v1h-8zM216 167h8v1h-8zM216 168h8v1h-8zM216 169h8v1h-8zM216 170h8v1h-8zM216 171h8v1h-8zM216 172h8v1h-8zM224 173h8v1h-8zM232 173h8v1h-8zM240 173h8v1h-8zM248 173h8v1h-8zM256 173h8v1h-8zM264 173h8v1h-8zM272 173h8v1h-8zM224 174h8v1h-8zM232 174h8v1h-8zM240 174h8v1h-8zM248 174h8v1h-8zM256 174h8v1h-8zM264 174h8v1h-8zM272 174h8v1h-8zM224 175h8v1h-8zM232 175h8v1h-8zM240 175h8v1h-8zM248 175h8v1h-8zM256 175h8v1h-8zM264 175h8v1h-8zM272 175h8v1h-8zM224 176h8v1h-8zM232 176h8v1h-8zM240 176h8v1h-8zM248 176h8v1h-8zM256 176h8v1h-8zM264 176h8v1h-8zM272 176h8v1h-8zM224 177h8v1h-8zM232 177h8v1h-8zM240 177h8v1h-8zM248 177h8v1h-8zM256 177h8v1h-8zM264 177h8v1h-8zM272 177h8v1h-8zM224 178h8v1h-8zM232 178h8v1h-8zM240 178h8v1h-8zM248 178h8v1h-8zM256 178h8v1h-8zM264 178h8v1h-8zM272 178h8v1h-8zM224 179h8v1h-8zM232 179h8v1h-8zM240 179h8v1h-8zM248 179h8v1h-8zM256 179h8v1h-8zM264 179h8v1h-8zM272 179h8v1h-8zM224 180h8v1h-8zM232 180h8v1h-8zM240 180h8v1h-8zM248 180h8v1h-8zM256 180h8v1h-8zM264 180h8v1h-8zM272 180h8v1h-8zM224 181h8v1h-8zM232 181h8v1h-8zM240 181h8v1h-8zM248 181h8v1h-8zM256 181h8v1h-8zM264 181h8v1h-8zM272 181h8v1h-8zM224 182h8v1h-8zM232 182h8v1h-8zM240 182h8v1h-8zM248 182h8v1h-8zM256 182h8v1h-8zM264 182h8v1h-8zM272 182h8v1h-8zM224 183h8v1h-8zM232 183h8v1h-8zM240 183h8v1h-8zM248 183h8v1h-8zM256 183h8v1h-8zM264 183h8v1h-8zM272 183h8v1h-8zM224 184h8v1h-8zM232 184h8v1h-8zM240 184h8v1h-8zM248 184h8v1h-8zM256 184h8v1h-8zM264 184h8v1h-8zM272 184h8v1h-8zM224 185h8v1h-8zM232 185h8v1h-8zM240 185h8v1h-8zM248 185h8v1h-8zM256 185h8v1h-8zM264 185h8v1h-8zM272 185h8v1h-8zM224 186h8v1h-8zM232 186h8v1h-8zM240 186h8v1h-8zM248 186h8v1h-8zM256 186h8v1h-8zM264 186h8v1h-8zM272 186h8v1h-8zM224 187h8v1h-8zM232 187h8v1h-8zM240 187h8v1h-8zM248 187h8v1h-8zM256 187h8v1h-8zM264 187h8v1h-8zM272 187h8v1h-8zM224 188h8v1h-8zM232 188h8v1h-8zM240 188h8v1h-8zM248 188h8v1h-8zM256 188h8v1h-8zM264 188h8v1h-8zM272 188h8v1h-8zM224 189h8v1h-8zM232 189h8v1h-8zM240 189h8v1h-8zM248 189h8v1h-8zM256 189h8v1h-8zM264 189h8v1h-8zM272 189h8v1h-8zM224 190h8v1h-8zM232 190h8v1h-8zM240 190h8v1h-8zM248 190h8v1h-8zM256 190h8v1h-8zM264 190h8v1h-8zM272 190h8v1h-8zM224 191h8v1h-8zM232 191h8v1h-8zM240 191h8v1h-8zM248 191h8v1h-8zM256 191h8v1h-8zM264 191h8v1h-8zM272 191h8v1h-8zM224 192h8v1h-8zM232 192h8v1h-8zM240 192h8v1h-8zM248 192h8v1h-8zM256 192h8v1h-8zM264 192h8v1h-8zM272 192h8v1h-8zM224 193h8v1h-8zM232 193h8v1h-8zM240 193h8v1h-8zM248 193h8v1h-8zM256 193h8v1h-8zM264 193h8v1h-8zM272 193h8v1h-8zM224 194h8v1h-8zM232 194h8v1h-8zM240 194h8v1h-8zM248 194h8v1h-8zM256 194h8v1h-8zM264 194h8v1h-8zM272 194h8v1h-8zM224 195h8v1h-8zM232 195h8v1h-8zM240 195h8v1h-8zM248 195h8v1h-8zM256 195h8v1h-8zM264 195h8v1h-8zM272 195h8v1h-8zM224 196h8v1h-8zM232 196h8v1h-8zM240 196h8v1h-8zM248 196h8v1h-8zM256 196h8v1h-8zM264 196h8v1h-8zM272 196h8v1h-8zM224 197h8v1h-8zM232 197h8v1h-8zM240 197h8v1h-8zM248 197h8v1h-8zM256 197h8v1h-8zM264 197h8v1h-8zM272 197h8v1h-8zM224 198h8v1h-8zM232 198h8v1h-8zM240 198h8v1h-8zM248 198h8v1h-8zM256 198h8v1h-8zM264 198h8v1h-8zM272 198h8v1h-8zM224 199h8v1h-8zM232 199h8v1h-8zM240 199h8v1h-8zM248 199h8v1h-8zM256 199h8v1h-8zM264 199h8v1h-8zM272 199h8v1h-8zM224 200h8v1h-8zM232 200h8v1h-8zM240 200h8v1h-8zM248 200h8v1h-8zM256 200h8v1h-8zM264 200h8v1h-8zM272 200h8v1h-8zM224 201h8v1h-8zM232 201h8v1h-8zM240 201h8v1h-8zM248 201h8v1h-8zM256 201h8v1h-8zM264 201h8v1h-8zM272 201h8v1h-8zM224 202h8v1h-8zM232 202h8v1h-8zM240 202h8v1h-8zM248 202h8v1h-8zM256 202h8v1h-8zM264 202h8v1h-8zM272 202h8v1h-8zM224 203h8v1h-8zM232 203h8v1h-8zM240 203h8v1h-8zM248 203h8v1h-8zM256 203h8v1h-8zM264 203h8v1h-8zM272 203h8v1h-8zM224 204h8v1h-8zM232 204h8v1h-8zM240 204h8v1h-8zM248 204h8v1h-8zM256 204h8v1h-8zM264 204h8v1h-8zM224 205h8v1h-8zM232 205h8v1h-8zM240 205h8v1h-8zM224 206h8v1h-8zM232 206h8v1h-8zM240 206h8v1h-8zM224 207h8v1h-8zM232 207h8v1h-8z"/><path fill="#FEFF95" d="M240 207h8v1h-8zM248 207h8v1h-8zM256 207h8v1h-8zM264 207h8v1h-8zM272 207h8v1h-8z"/><path fill="#D55744" d="M224 208h8v1h-8zM232 208h8v1h-8zM224 209h8v1h-8zM232 209h8v1h-8zM224 210h8v1h-8zM232 210h8v1h-8zM224 211h8v1h-8zM232 211h8v1h-8zM224 212h8v1h-8zM232 212h8v1h-8zM224 213h8v1h-8zM232 213h8v1h-8zM240 214h8v1h-8zM248 214h8v1h-8zM256 214h8v1h-8zM264 214h8v1h-8zM272 214h8v1h-8zM240 215h8v1h-8zM248 215h8v1h-8zM256 215h8v1h-8zM264 215h8v1h-8zM272 215h8v1h-8zM240 216h8v1h-8zM248 216h8v1h-8zM256 216h8v1h-8zM264 216h8v1h-8zM272 216h8v1h-8zM240 217h8v1h-8zM248 217h8v1h-8zM256 217h8v1h-8zM264 217h8v1h-8zM272 217h8v1h-8zM240 218h8v1h-8zM248 218h8v1h-8zM256 218h8v1h-8zM264 218h8v1h-8zM272 218h8v1h-8zM240 219h8v1h-8zM248 219h8v1h-8zM256 219h8v1h-8zM264 219h8v1h-8zM272 219h8v1h-8zM240 220h8v1h-8zM248 220h8v1h-8zM256 220h8v1h-8zM264 220h8v1h-8zM272 220h8v1h-8zM240 221h8v1h-8zM248 221h8v1h-8zM256 221h8v1h-8zM264 221h8v1h-8zM272 221h8v1h-8zM240 222h8v1h-8zM248 222h8v1h-8zM256 222h8v1h-8zM264 222h8v1h-8zM272 222h8v1h-8zM240 223h8v1h-8zM248 223h8v1h-8zM256 223h8v1h-8zM264 223h8v1h-8zM272 223h8v1h-8zM240 224h8v1h-8zM248 224h8v1h-8zM256 224h8v1h-8zM264 224h8v1h-8zM272 224h8v1h-8zM240 225h8v1h-8zM248 225h8v1h-8zM256 225h8v1h-8zM264 225h8v1h-8zM272 225h8v1h-8zM240 226h8v1h-8zM248 226h8v1h-8zM256 226h8v1h-8zM264 226h8v1h-8zM272 226h8v1h-8zM240 227h8v1h-8zM248 227h8v1h-8zM256 227h8v1h-8zM264 227h8v1h-8zM272 227h8v1h-8zM240 228h8v1h-8zM248 228h8v1h-8zM256 228h8v1h-8zM264 228h8v1h-8zM272 228h8v1h-8zM240 229h8v1h-8zM248 229h8v1h-8zM256 229h8v1h-8zM264 229h8v1h-8zM272 229h8v1h-8zM240 230h8v1h-8zM248 230h8v1h-8zM256 230h8v1h-8zM264 230h8v1h-8zM272 230h8v1h-8zM240 231h8v1h-8zM248 231h8v1h-8zM256 231h8v1h-8zM264 231h8v1h-8zM240 232h8v1h-8zM248 232h8v1h-8zM256 232h8v1h-8zM264 232h8v1h-8zM248 233h8v1h-8zM256 233h8v1h-8zM264 233h8v1h-8zM272 233h8v1h-8zM248 234h8v1h-8zM256 234h8v1h-8zM264 234h8v1h-8zM272 234h8v1h-8zM248 235h8v1h-8zM256 235h8v1h-8zM264 235h8v1h-8z"/><path fill="#5196D5" d="M272 235h8v1h-8z"/><path fill="#D55744" d="M256 236h8v1h-8zM264 236h8v1h-8zM272 236h8v1h-8zM272 237h8v1h-8z"/><path fill="#FEFF95" d="M0 238h8v1H0zM8 238h8v1H8zM16 238h8v1h-8zM8 239h8v1H8zM16 239h8v1h-8zM16 240h8v1h-8zM16 241h8v1h-8zM16 242h8v1h-8zM16 243h8v1h-8zM16 244h8v1h-8zM16 245h8v1h-8zM16 246h8v1h-8zM16 247h8v1h-8zM16 248h8v1h-8zM16 249h8v1h-8zM16 250h8v1h-8zM16 251h8v1h-8zM16 252h8v1h-8zM16 253h8v1h-8zM16 254h8v1h-8zM16 255h8v1h-8zM16 256h8v1h-8zM16 257h8v1h-8zM24 258h8v1h-8z"/><path fill="#D55744" d="M32 258h8v1h-8zM40 258h8v1h-8zM48 258h8v1h-8zM56 258h8v1h-8zM64 258h8v1h-8zM72 258h8v1h-8zM80 258h8v1h-8zM88 258h8v1h-8zM96 258h8v1h-8zM104 258h8v1h-8zM112 258h8v1h-8zM120 258h8v1h-8zM128 258h8v1h-8zM136 258h8v1h-8zM144 258h8v1h-8zM152 258h8v1h-8zM160 258h8v1h-8zM168 258h8v1h-8zM176 258h8v1h-8zM184 258h8v1h-8zM192 258h8v1h-8zM200 258h8v1h-8zM208 258h8v1h-8z"/><path fill="#FEFF95" d="M216 258h8v1h-8zM224 258h8v1h-8zM232 258h8v1h-8zM240 258h8v1h-8zM248 258h8v1h-8zM256 258h8v1h-8zM264 258h8v1h-8zM272 258h8v1h-8zM24 259h8v1h-8zM32 259h8v1h-8zM40 259h8v1h-8z"/><path fill="#64C97A" d="M48 259h8v1h-8zM56 259h8v1h-8zM64 259h8v1h-8zM72 259h8v1h-8zM80 259h8v1h-8z"/><path fill="#FEFF95" d="M88 259h8v1h-8zM96 259h8v1h-8zM104 259h8v1h-8zM112 259h8v1h-8zM120 259h8v1h-8zM128 259h8v1h-8zM136 259h8v1h-8zM144 259h8v1h-8zM152 259h8v1h-8zM160 259h8v1h-8zM168 259h8v1h-8zM176 259h8v1h-8zM184 259h8v1h-8zM192 259h8v1h-8zM200 259h8v1h-8zM208 259h8v1h-8z"/><path fill="#64C97A" d="M216 259h8v1h-8zM224 259h8v1h-8zM232 259h8v1h-8zM240 259h8v1h-8zM248 259h8v1h-8zM256 259h8v1h-8zM264 259h8v1h-8zM272 259h8v1h-8z"/><path fill="#FEFF95" d="M24 260h8v1h-8zM32 260h8v1h-8zM40 260h8v1h-8zM48 260h8v1h-8zM56 260h8v1h-8zM64 260h8v1h-8z"/><path fill="#64C97A" d="M72 260h8v1h-8zM80 260h8v1h-8zM88 260h8v1h-8z"/><path fill="#FEFF95" d="M24 261h8v1h-8zM32 261h8v1h-8zM40 261h8v1h-8zM48 261h8v1h-8zM56 261h8v1h-8zM64 261h8v1h-8zM72 261h8v1h-8zM80 261h8v1h-8zM88 261h8v1h-8zM96 261h8v1h-8zM104 261h8v1h-8zM112 261h8v1h-8zM120 261h8v1h-8zM128 261h8v1h-8zM136 261h8v1h-8zM144 261h8v1h-8zM152 261h8v1h-8zM160 261h8v1h-8zM168 261h8v1h-8zM176 261h8v1h-8zM184 261h8v1h-8zM192 261h8v1h-8zM200 261h8v1h-8zM208 261h8v1h-8zM216 261h8v1h-8z"/><path fill="#925CB1" d="M224 261h8v1h-8zM232 261h8v1h-8zM240 261h8v1h-8zM248 261h8v1h-8zM256 261h8v1h-8zM264 261h8v1h-8zM272 261h8v1h-8z"/><path fill="#FEFF95" d="M24 262h8v1h-8zM32 262h8v1h-8zM40 262h8v1h-8zM48 262h8v1h-8zM56 262h8v1h-8zM64 262h8v1h-8zM72 262h8v1h-8zM80 262h8v1h-8zM88 262h8v1h-8zM96 262h8v1h-8zM104 262h8v1h-8zM112 262h8v1h-8zM120 262h8v1h-8zM128 262h8v1h-8zM136 262h8v1h-8zM144 262h8v1h-8zM152 262h8v1h-8zM160 262h8v1h-8zM168 262h8v1h-8zM176 262h8v1h-8zM184 262h8v1h-8zM192 262h8v1h-8zM200 262h8v1h-8zM208 262h8v1h-8zM216 262h8v1h-8zM224 262h8v1h-8zM232 262h8v1h-8zM240 262h8v1h-8zM248 262h8v1h-8zM256 262h8v1h-8zM264 262h8v1h-8zM272 262h8v1h-8zM24 263h8v1h-8zM32 263h8v1h-8zM40 263h8v1h-8zM48 263h8v1h-8zM56 263h8v1h-8zM64 263h8v1h-8zM72 263h8v1h-8zM80 263h8v1h-8zM88 263h8v1h-8zM96 263h8v1h-8zM104 263h8v1h-8zM112 263h8v1h-8zM120 263h8v1h-8zM128 263h8v1h-8zM136 263h8v1h-8zM144 263h8v1h-8zM152 263h8v1h-8zM160 263h8v1h-8zM168 263h8v1h-8zM176 263h8v1h-8zM184 263h8v1h-8zM192 263h8v1h-8zM200 263h8v1h-8zM208 263h8v1h-8zM216 263h8v1h-8zM224 263h8v1h-8zM232 263h8v1h-8zM240 263h8v1h-8zM248 263h8v1h-8zM256 263h8v1h-8zM264 263h8v1h-8zM272 263h8v1h-8zM24 264h8v1h-8zM32 264h8v1h-8zM40 264h8v1h-8zM48 264h8v1h-8zM56 264h8v1h-8zM64 264h8v1h-8zM72 264h8v1h-8zM80 264h8v1h-8zM88 264h8v1h-8zM96 264h8v1h-8zM104 264h8v1h-8zM112 264h8v1h-8zM120 264h8v1h-8zM128 264h8v1h-8zM136 264h8v1h-8zM144 264h8v1h-8zM152 264h8v1h-8zM160 264h8v1h-8zM168 264h8v1h-8zM176 264h8v1h-8zM184 264h8v1h-8zM192 264h8v1h-8zM200 264h8v1h-8zM208 264h8v1h-8zM216 264h8v1h-8zM224 264h8v1h-8zM232 264h8v1h-8zM240 264h8v1h-8zM248 264h8v1h-8zM256 264h8v1h-8zM264 264h8v1h-8zM272 264h8v1h-8zM24 265h8v1h-8zM32 265h8v1h-8zM40 265h8v1h-8zM48 265h8v1h-8zM56 265h8v1h-8zM64 265h8v1h-8zM72 265h8v1h-8zM80 265h8v1h-8zM88 265h8v1h-8zM96 265h8v1h-8zM104 265h8v1h-8zM112 265h8v1h-8zM120 265h8v1h-8zM128 265h8v1h-8zM136 265h8v1h-8zM144 265h8v1h-8zM152 265h8v1h-8zM160 265h8v1h-8zM168 265h8v1h-8zM176 265h8v1h-8zM184 265h8v1h-8zM192 265h8v1h-8zM200 265h8v1h-8zM208 265h8v1h-8zM216 265h8v1h-8zM224 265h8v1h-8zM232 265h8v1h-8zM240 265h8v1h-8zM248 265h8v1h-8zM256 265h8v1h-8zM264 265h8v1h-8zM272 265h8v1h-8zM24 266h8v1h-8zM32 266h8v1h-8zM40 266h8v1h-8zM48 266h8v1h-8zM56 266h8v1h-8zM64 266h8v1h-8zM72 266h8v1h-8zM80 266h8v1h-8zM88 266h8v1h-8zM96 266h8v1h-8zM104 266h8v1h-8zM112 266h8v1h-8zM120 266h8v1h-8zM128 266h8v1h-8zM136 266h8v1h-8zM144 266h8v1h-8zM152 266h8v1h-8zM160 266h8v1h-8zM168 266h8v1h-8zM176 266h8v1h-8zM184 266h8v1h-8zM192 266h8v1h-8zM200 266h8v1h-8zM208 266h8v1h-8zM216 266h8v1h-8zM224 266h8v1h-8zM232 266h8v1h-8zM240 266h8v1h-8zM248 266h8v1h-8zM256 266h8v1h-8zM264 266h8v1h-8zM272 266h8v1h-8zM24 267h8v1h-8zM32 267h8v1h-8zM40 267h8v1h-8zM48 267h8v1h-8zM56 267h8v1h-8zM64 267h8v1h-8zM72 267h8v1h-8zM80 267h8v1h-8zM88 267h8v1h-8zM96 267h8v1h-8zM104 267h8v1h-8zM112 267h8v1h-8zM120 267h8v1h-8zM128 267h8v1h-8zM136 267h8v1h-8zM144 267h8v1h-8zM152 267h8v1h-8zM160 267h8v1h-8zM168 267h8v1h-8zM176 267h8v1h-8zM184 267h8v1h-8zM192 267h8v1h-8zM200 267h8v1h-8zM208 267h8v1h-8zM216 267h8v1h-8zM224 267h8v1h-8zM232 267h8v1h-8zM240 267h8v1h-8zM248 267h8v1h-8zM256 267h8v1h-8zM264 267h8v1h-8zM272 267h8v1h-8zM24 268h8v1h-8zM32 268h8v1h-8zM40 268h8v1h-8zM48 268h8v1h-8zM56 268h8v1h-8zM64 268h8v1h-8zM72 268h8v1h-8zM80 268h8v1h-8zM88 268h8v1h-8zM96 268h8v1h-8zM104 268h8v1h-8zM112 268h8v1h-8zM120 268h8v1h-8zM128 268h8v1h-8zM136 268h8v1h-8zM144 268h8v1h-8zM152 268h8v1h-8zM160 268h8v1h-8zM168 268h8v1h-8zM176 268h8v1h-8zM184 268h8v1h-8zM192 268h8v1h-8zM200 268h8v1h-8zM208 268h8v1h-8zM216 268h8v1h-8zM224 268h8v1h-8zM232 268h8v1h-8zM240 268h8v1h-8zM248 268h8v1h-8zM256 268h8v1h-8zM264 268h8v1h-8zM272 268h8v1h-8zM24 269h8v1h-8zM32 269h8v1h-8zM40 269h8v1h-8zM48 269h8v1h-8zM56 269h8v1h-8zM64 269h8v1h-8zM72 269h8v1h-8zM80 269h8v1h-8zM88 269h8v1h-8zM96 269h8v1h-8zM104 269h8v1h-8zM112 269h8v1h-8zM120 269h8v1h-8zM128 269h8v1h-8zM136 269h8v1h-8zM144 269h8v1h-8zM152 269h8v1h-8zM160 269h8v1h-8zM168 269h8v1h-8zM176 269h8v1h-8zM184 269h8v1h-8zM192 269h8v1h-8zM200 269h8v1h-8zM208 269h8v1h-8zM216 269h8v1h-8zM224 269h8v1h-8zM232 269h8v1h-8zM240 269h8v1h-8zM248 269h8v1h-8zM256 269h8v1h-8zM264 269h8v1h-8zM272 269h8v1h-8zM24 270h8v1h-8zM32 270h8v1h-8zM40 270h8v1h-8zM48 270h8v1h-8zM56 270h8v1h-8zM64 270h8v1h-8zM72 270h8v1h-8zM80 270h8v1h-8zM88 270h8v1h-8zM96 270h8v1h-8zM104 270h8v1h-8zM112 270h8v1h-8zM120 270h8v1h-8zM128 270h8v1h-8zM136 270h8v1h-8zM144 270h8v1h-8zM152 270h8v1h-8zM160 270h8v1h-8zM168 270h8v1h-8zM176 270h8v1h-8zM184 270h8v1h-8zM192 270h8v1h-8zM200 270h8v1h-8zM208 270h8v1h-8zM216 270h8v1h-8zM224 270h8v1h-8zM232 270h8v1h-8zM240 270h8v1h-8zM248 270h8v1h-8zM256 270h8v1h-8zM264 270h8v1h-8zM272 270h8v1h-8zM24 271h8v1h-8zM32 271h8v1h-8zM40 271h8v1h-8zM48 271h8v1h-8zM56 271h8v1h-8zM64 271h8v1h-8zM72 271h8v1h-8zM80 271h8v1h-8zM88 271h8v1h-8zM96 271h8v1h-8zM104 271h8v1h-8zM112 271h8v1h-8zM120 271h8v1h-8zM128 271h8v1h-8zM136 271h8v1h-8zM144 271h8v1h-8zM152 271h8v1h-8zM160 271h8v1h-8zM168 271h8v1h-8zM176 271h8v1h-8zM184 271h8v1h-8zM192 271h8v1h-8zM200 271h8v1h-8zM208 271h8v1h-8zM216 271h8v1h-8zM224 271h8v1h-8zM232 271h8v1h-8zM240 271h8v1h-8zM248 271h8v1h-8zM256 271h8v1h-8zM264 271h8v1h-8zM272 271h8v1h-8zM24 272h8v1h-8zM32 272h8v1h-8zM40 272h8v1h-8zM48 272h8v1h-8zM56 272h8v1h-8zM64 272h8v1h-8zM72 272h8v1h-8zM80 272h8v1h-8zM88 272h8v1h-8zM96 272h8v1h-8zM104 272h8v1h-8zM112 272h8v1h-8zM120 272h8v1h-8zM128 272h8v1h-8zM136 272h8v1h-8zM144 272h8v1h-8zM152 272h8v1h-8zM160 272h8v1h-8zM168 272h8v1h-8zM176 272h8v1h-8zM184 272h8v1h-8zM192 272h8v1h-8zM200 272h8v1h-8zM208 272h8v1h-8zM216 272h8v1h-8zM24 273h8v1h-8zM32 273h8v1h-8zM40 273h8v1h-8zM48 273h8v1h-8zM56 273h8v1h-8zM64 273h8v1h-8zM72 273h8v1h-8zM80 273h8v1h-8zM88 273h8v1h-8zM24 274h8v1h-8zM32 274h8v1h-8zM40 274h8v1h-8zM48 274h8v1h-8zM56 274h8v1h-8zM64 274h8v1h-8zM24 275h8v1h-8zM32 275h8v1h-8zM40 275h8v1h-8zM48 275h8v1h-8zM56 275h8v1h-8zM64 275h8v1h-8zM24 276h8v1h-8zM32 276h8v1h-8zM40 276h8v1h-8zM48 276h8v1h-8zM56 276h8v1h-8zM24 277h8v1h-8zM32 277h8v1h-8zM40 277h8v1h-8zM48 277h8v1h-8zM56 277h8v1h-8zM24 278h8v1h-8zM32 278h8v1h-8zM40 278h8v1h-8zM48 278h8v1h-8zM24 279h8v1h-8zM32 279h8v1h-8zM24 280h8v1h-8zM32 281h8v1h-8zM40 281h8v1h-8zM48 281h8v1h-8zM56 281h8v1h-8zM64 281h8v1h-8zM72 281h8v1h-8zM80 281h8v1h-8zM88 281h8v1h-8zM96 281h8v1h-8zM104 281h8v1h-8zM112 281h8v1h-8zM120 281h8v1h-8zM128 281h8v1h-8zM136 281h8v1h-8zM144 281h8v1h-8zM152 281h8v1h-8zM160 281h8v1h-8zM168 281h8v1h-8zM176 281h8v1h-8zM184 281h8v1h-8zM192 281h8v1h-8zM200 281h8v1h-8zM208 281h8v1h-8zM216 281h8v1h-8zM32 282h8v1h-8zM40 282h8v1h-8zM48 282h8v1h-8zM56 282h8v1h-8zM64 282h8v1h-8zM72 282h8v1h-8zM80 282h8v1h-8zM88 282h8v1h-8zM96 282h8v1h-8zM104 282h8v1h-8zM112 282h8v1h-8zM120 282h8v1h-8zM128 282h8v1h-8zM136 282h8v1h-8zM144 282h8v1h-8zM152 282h8v1h-8zM160 282h8v1h-8zM168 282h8v1h-8zM176 282h8v1h-8zM184 282h8v1h-8zM192 282h8v1h-8zM200 282h8v1h-8zM208 282h8v1h-8zM32 283h8v1h-8zM40 284h8v1h-8zM48 284h8v1h-8zM56 284h8v1h-8zM64 284h8v1h-8zM72 284h8v1h-8zM80 284h8v1h-8zM88 284h8v1h-8zM96 284h8v1h-8zM104 284h8v1h-8zM112 284h8v1h-8zM120 284h8v1h-8zM48 285h8v1h-8zM56 285h8v1h-8zM64 285h8v1h-8zM72 285h8v1h-8zM80 285h8v1h-8zM88 285h8v1h-8zM96 285h8v1h-8zM104 285h8v1h-8zM112 285h8v1h-8zM120 285h8v1h-8zM128 285h8v1h-8zM136 285h8v1h-8zM144 285h8v1h-8zM152 285h8v1h-8zM160 285h8v1h-8zM168 285h8v1h-8zM176 285h8v1h-8zM184 285h8v1h-8zM192 285h8v1h-8zM200 285h8v1h-8zM208 285h8v1h-8zM216 285h8v1h-8zM48 286h8v1h-8zM56 286h8v1h-8zM64 286h8v1h-8zM72 286h8v1h-8zM80 286h8v1h-8zM88 286h8v1h-8zM96 286h8v1h-8zM104 286h8v1h-8zM112 286h8v1h-8zM120 286h8v1h-8zM128 286h8v1h-8zM136 286h8v1h-8zM144 286h8v1h-8zM152 286h8v1h-8zM160 286h8v1h-8zM168 286h8v1h-8zM176 286h8v1h-8zM184 286h8v1h-8zM192 286h8v1h-8zM200 286h8v1h-8zM208 286h8v1h-8zM216 286h8v1h-8zM56 287h8v1h-8zM64 287h8v1h-8zM72 287h8v1h-8zM80 287h8v1h-8zM88 287h8v1h-8zM96 287h8v1h-8zM104 287h8v1h-8zM112 287h8v1h-8zM120 287h8v1h-8zM128 287h8v1h-8zM136 287h8v1h-8zM144 287h8v1h-8zM152 287h8v1h-8zM160 287h8v1h-8zM168 287h8v1h-8zM176 287h8v1h-8zM184 287h8v1h-8zM192 287h8v1h-8zM200 287h8v1h-8zM208 287h8v1h-8zM216 287h8v1h-8zM224 287h8v1h-8zM232 287h8v1h-8zM240 287h8v1h-8zM248 287h8v1h-8zM256 287h8v1h-8zM264 287h8v1h-8zM272 287h8v1h-8zM56 288h8v1h-8zM64 288h8v1h-8zM72 288h8v1h-8zM80 288h8v1h-8zM88 288h8v1h-8zM96 288h8v1h-8zM104 288h8v1h-8zM112 288h8v1h-8zM120 288h8v1h-8zM128 288h8v1h-8zM136 288h8v1h-8zM144 288h8v1h-8zM152 288h8v1h-8zM160 288h8v1h-8zM168 288h8v1h-8zM176 288h8v1h-8zM184 288h8v1h-8zM192 288h8v1h-8zM200 288h8v1h-8zM208 288h8v1h-8zM216 288h8v1h-8zM64 289h8v1h-8z"/><path fill="#64C97A" d="M72 289h8v1h-8zM80 289h8v1h-8zM88 289h8v1h-8zM96 289h8v1h-8zM104 289h8v1h-8zM112 289h8v1h-8zM120 289h8v1h-8zM128 289h8v1h-8zM136 289h8v1h-8zM144 289h8v1h-8zM152 289h8v1h-8zM160 289h8v1h-8zM168 289h8v1h-8zM176 289h8v1h-8zM184 289h8v1h-8zM192 289h8v1h-8zM200 289h8v1h-8zM208 289h8v1h-8zM216 289h8v1h-8zM224 289h8v1h-8zM232 289h8v1h-8zM240 289h8v1h-8zM248 289h8v1h-8zM256 289h8v1h-8zM264 289h8v1h-8zM272 289h8v1h-8z"/><path fill="#FEFF95" d="M64 290h8v1h-8zM72 290h8v1h-8zM80 290h8v1h-8zM88 290h8v1h-8zM96 290h8v1h-8zM72 291h8v1h-8zM80 291h8v1h-8zM88 291h8v1h-8zM96 291h8v1h-8zM104 291h8v1h-8zM112 291h8v1h-8zM120 291h8v1h-8zM128 291h8v1h-8zM136 291h8v1h-8zM144 291h8v1h-8zM152 291h8v1h-8zM160 291h8v1h-8z"/><path fill="#64C97A" d="M168 291h8v1h-8zM176 291h8v1h-8zM184 291h8v1h-8zM192 291h8v1h-8z"/><path fill="#FEFF95" d="M72 292h8v1h-8zM80 292h8v1h-8zM88 292h8v1h-8zM96 292h8v1h-8zM104 292h8v1h-8zM112 292h8v1h-8zM120 292h8v1h-8zM128 292h8v1h-8zM136 292h8v1h-8zM144 292h8v1h-8zM152 292h8v1h-8zM160 292h8v1h-8zM168 292h8v1h-8zM176 292h8v1h-8zM184 292h8v1h-8zM192 292h8v1h-8zM200 292h8v1h-8zM208 292h8v1h-8zM216 292h8v1h-8zM224 292h8v1h-8zM232 292h8v1h-8zM240 292h8v1h-8zM248 292h8v1h-8zM256 292h8v1h-8zM264 292h8v1h-8zM272 292h8v1h-8zM72 293h8v1h-8zM80 293h8v1h-8zM88 293h8v1h-8zM96 293h8v1h-8zM104 293h8v1h-8zM112 293h8v1h-8zM120 293h8v1h-8zM128 293h8v1h-8zM136 293h8v1h-8zM144 293h8v1h-8zM152 293h8v1h-8zM160 293h8v1h-8zM168 293h8v1h-8zM176 293h8v1h-8zM184 293h8v1h-8zM192 293h8v1h-8zM200 293h8v1h-8zM208 293h8v1h-8zM216 293h8v1h-8zM224 293h8v1h-8zM232 293h8v1h-8zM240 293h8v1h-8zM248 293h8v1h-8zM256 293h8v1h-8zM264 293h8v1h-8zM272 293h8v1h-8zM72 294h8v1h-8zM80 294h8v1h-8z"/><path fill="#5196D5" d="M88 294h8v1h-8zM96 294h8v1h-8zM104 294h8v1h-8zM112 294h8v1h-8zM120 294h8v1h-8zM128 294h8v1h-8zM136 294h8v1h-8zM144 294h8v1h-8zM152 294h8v1h-8zM160 294h8v1h-8zM168 294h8v1h-8zM176 294h8v1h-8zM184 294h8v1h-8zM192 294h8v1h-8zM200 294h8v1h-8zM208 294h8v1h-8zM216 294h8v1h-8zM224 294h8v1h-8zM232 294h8v1h-8zM240 294h8v1h-8zM248 294h8v1h-8zM256 294h8v1h-8zM264 294h8v1h-8zM272 294h8v1h-8z"/><path fill="#FEFF95" d="M72 295h8v1h-8zM80 296h8v1h-8zM88 297h8v1h-8zM96 297h8v1h-8zM104 297h8v1h-8zM112 297h8v1h-8zM120 297h8v1h-8zM128 297h8v1h-8zM136 297h8v1h-8zM144 297h8v1h-8zM152 297h8v1h-8zM160 297h8v1h-8zM168 297h8v1h-8z"/><path fill="#5196D5" d="M176 297h8v1h-8zM184 297h8v1h-8zM192 297h8v1h-8zM200 297h8v1h-8zM208 297h8v1h-8zM216 297h8v1h-8zM224 297h8v1h-8zM232 297h8v1h-8zM240 297h8v1h-8zM248 297h8v1h-8zM256 297h8v1h-8zM264 297h8v1h-8zM272 297h8v1h-8z"/><path fill="#FEFF95" d="M88 298h8v1h-8zM96 298h8v1h-8zM104 298h8v1h-8zM112 298h8v1h-8zM120 298h8v1h-8zM128 298h8v1h-8zM136 298h8v1h-8zM144 298h8v1h-8zM152 298h8v1h-8zM160 298h8v1h-8z"/><path fill="#5196D5" d="M168 298h8v1h-8zM176 298h8v1h-8zM184 298h8v1h-8zM192 298h8v1h-8zM200 298h8v1h-8zM208 298h8v1h-8zM216 298h8v1h-8zM224 298h8v1h-8zM232 298h8v1h-8zM240 298h8v1h-8zM248 298h8v1h-8zM256 298h8v1h-8zM264 298h8v1h-8zM272 298h8v1h-8z"/><path fill="#FEFF95" d="M88 299h8v1h-8zM96 299h8v1h-8zM88 300h8v1h-8zM96 301h8v1h-8zM104 301h8v1h-8zM112 301h8v1h-8zM120 301h8v1h-8zM128 301h8v1h-8zM136 301h8v1h-8zM144 301h8v1h-8zM152 301h8v1h-8zM160 301h8v1h-8zM168 301h8v1h-8zM176 301h8v1h-8zM184 301h8v1h-8zM192 301h8v1h-8zM200 301h8v1h-8zM208 301h8v1h-8zM216 301h8v1h-8zM224 301h8v1h-8zM232 301h8v1h-8zM240 301h8v1h-8zM248 301h8v1h-8zM256 301h8v1h-8zM264 301h8v1h-8zM272 301h8v1h-8zM96 302h8v1h-8zM104 302h8v1h-8zM112 302h8v1h-8zM120 302h8v1h-8zM128 302h8v1h-8zM136 302h8v1h-8zM144 302h8v1h-8zM152 302h8v1h-8zM160 302h8v1h-8zM168 302h8v1h-8zM176 302h8v1h-8zM184 302h8v1h-8zM192 302h8v1h-8zM200 302h8v1h-8zM208 302h8v1h-8zM216 302h8v1h-8zM224 302h8v1h-8zM232 302h8v1h-8zM240 302h8v1h-8zM248 302h8v1h-8zM256 302h8v1h-8zM264 302h8v1h-8zM272 302h8v1h-8zM96 303h8v1h-8zM104 303h8v1h-8zM112 303h8v1h-8zM120 303h8v1h-8zM128 303h8v1h-8zM136 303h8v1h-8zM144 303h8v1h-8zM152 303h8v1h-8zM160 303h8v1h-8zM168 303h8v1h-8zM176 303h8v1h-8zM184 303h8v1h-8zM192 303h8v1h-8zM200 303h8v1h-8zM208 303h8v1h-8z"/><path fill="#5196D5" d="M216 303h8v1h-8zM224 303h8v1h-8zM232 303h8v1h-8zM240 303h8v1h-8zM248 303h8v1h-8zM256 303h8v1h-8zM264 303h8v1h-8zM272 303h8v1h-8z"/><path fill="#FEFF95" d="M96 304h8v1h-8zM104 304h8v1h-8zM112 304h8v1h-8zM120 304h8v1h-8zM128 304h8v1h-8zM136 304h8v1h-8zM144 304h8v1h-8zM152 304h8v1h-8zM160 304h8v1h-8zM168 304h8v1h-8zM176 304h8v1h-8zM184 304h8v1h-8z"/><path fill="#5196D5" d="M192 304h8v1h-8zM200 304h8v1h-8zM208 304h8v1h-8zM216 304h8v1h-8zM224 304h8v1h-8zM232 304h8v1h-8zM240 304h8v1h-8z"/><path fill="#FEFF95" d="M248 304h8v1h-8zM256 304h8v1h-8zM264 304h8v1h-8zM96 305h8v1h-8zM104 305h8v1h-8zM112 305h8v1h-8zM120 305h8v1h-8zM128 305h8v1h-8zM136 305h8v1h-8zM144 305h8v1h-8zM152 305h8v1h-8zM160 305h8v1h-8z"/><path fill="#5196D5" d="M168 305h8v1h-8zM176 305h8v1h-8zM184 305h8v1h-8zM192 305h8v1h-8zM200 305h8v1h-8zM208 305h8v1h-8zM216 305h8v1h-8zM224 305h8v1h-8zM232 305h8v1h-8zM240 305h8v1h-8zM248 305h8v1h-8zM256 305h8v1h-8zM264 305h8v1h-8zM272 305h8v1h-8z"/><path fill="#FEFF95" d="M104 306h8v1h-8zM112 306h8v1h-8zM120 306h8v1h-8zM128 306h8v1h-8zM136 306h8v1h-8zM144 306h8v1h-8zM152 306h8v1h-8zM160 306h8v1h-8zM168 306h8v1h-8zM176 306h8v1h-8zM184 306h8v1h-8zM192 306h8v1h-8zM200 306h8v1h-8zM208 306h8v1h-8zM216 306h8v1h-8zM224 306h8v1h-8zM232 306h8v1h-8zM240 306h8v1h-8zM248 306h8v1h-8zM256 306h8v1h-8zM264 306h8v1h-8zM272 306h8v1h-8zM104 307h8v1h-8zM112 307h8v1h-8zM120 307h8v1h-8zM128 307h8v1h-8zM136 307h8v1h-8zM144 307h8v1h-8zM152 307h8v1h-8zM160 307h8v1h-8zM168 307h8v1h-8zM176 307h8v1h-8zM184 307h8v1h-8zM192 307h8v1h-8zM200 307h8v1h-8zM208 307h8v1h-8zM112 308h8v1h-8zM120 308h8v1h-8zM128 308h8v1h-8zM136 308h8v1h-8zM144 308h8v1h-8zM152 308h8v1h-8zM160 308h8v1h-8zM168 308h8v1h-8zM176 308h8v1h-8zM184 308h8v1h-8zM192 308h8v1h-8zM200 308h8v1h-8zM208 308h8v1h-8z"/><path fill="#64C97A" d="M216 308h8v1h-8zM224 308h8v1h-8zM232 308h8v1h-8zM240 308h8v1h-8zM248 308h8v1h-8zM256 308h8v1h-8zM264 308h8v1h-8z"/><path fill="#5196D5" d="M272 308h8v1h-8z"/><path fill="#FEFF95" d="M112 309h8v1h-8zM120 309h8v1h-8zM128 309h8v1h-8zM136 309h8v1h-8zM144 309h8v1h-8zM152 309h8v1h-8zM160 309h8v1h-8zM168 309h8v1h-8zM176 309h8v1h-8zM184 309h8v1h-8zM192 309h8v1h-8zM200 309h8v1h-8zM208 309h8v1h-8zM216 309h8v1h-8zM224 309h8v1h-8zM232 309h8v1h-8zM240 309h8v1h-8zM248 309h8v1h-8zM256 309h8v1h-8zM264 309h8v1h-8zM272 309h8v1h-8zM112 310h8v1h-8zM120 310h8v1h-8zM128 310h8v1h-8zM136 310h8v1h-8zM144 310h8v1h-8zM152 310h8v1h-8zM160 310h8v1h-8zM168 310h8v1h-8zM176 310h8v1h-8zM184 310h8v1h-8zM192 310h8v1h-8zM200 310h8v1h-8zM208 310h8v1h-8zM216 310h8v1h-8zM224 310h8v1h-8zM232 310h8v1h-8zM240 310h8v1h-8zM248 310h8v1h-8zM256 310h8v1h-8zM264 310h8v1h-8zM272 310h8v1h-8zM112 311h8v1h-8zM120 311h8v1h-8zM128 311h8v1h-8zM136 311h8v1h-8zM144 311h8v1h-8zM152 311h8v1h-8zM160 311h8v1h-8zM168 311h8v1h-8zM176 311h8v1h-8zM184 311h8v1h-8zM192 311h8v1h-8zM200 311h8v1h-8zM208 311h8v1h-8zM216 311h8v1h-8zM224 311h8v1h-8zM232 311h8v1h-8zM240 311h8v1h-8zM248 311h8v1h-8zM256 311h8v1h-8zM264 311h8v1h-8zM272 311h8v1h-8zM120 312h8v1h-8zM128 312h8v1h-8zM136 312h8v1h-8zM144 312h8v1h-8zM152 312h8v1h-8zM160 312h8v1h-8zM168 312h8v1h-8zM176 312h8v1h-8zM184 312h8v1h-8zM192 312h8v1h-8zM200 312h8v1h-8zM208 312h8v1h-8zM216 312h8v1h-8zM224 312h8v1h-8zM232 312h8v1h-8zM240 312h8v1h-8zM248 312h8v1h-8zM256 312h8v1h-8zM264 312h8v1h-8zM272 312h8v1h-8zM120 313h8v1h-8zM128 313h8v1h-8zM136 313h8v1h-8zM144 313h8v1h-8zM152 313h8v1h-8zM160 313h8v1h-8zM168 313h8v1h-8zM176 313h8v1h-8zM184 313h8v1h-8zM192 313h8v1h-8zM200 313h8v1h-8zM208 313h8v1h-8zM216 313h8v1h-8zM224 313h8v1h-8zM232 313h8v1h-8zM240 313h8v1h-8zM248 313h8v1h-8zM256 313h8v1h-8zM264 313h8v1h-8zM272 313h8v1h-8zM120 314h8v1h-8zM128 314h8v1h-8zM136 314h8v1h-8zM144 314h8v1h-8zM152 314h8v1h-8zM160 314h8v1h-8zM168 314h8v1h-8zM176 314h8v1h-8zM184 314h8v1h-8zM192 314h8v1h-8zM200 314h8v1h-8zM208 314h8v1h-8zM120 315h8v1h-8zM128 315h8v1h-8zM136 315h8v1h-8zM144 315h8v1h-8zM152 315h8v1h-8zM160 315h8v1h-8zM168 315h8v1h-8zM176 315h8v1h-8zM184 315h8v1h-8zM192 315h8v1h-8zM200 315h8v1h-8zM208 315h8v1h-8zM136 316h8v1h-8zM144 316h8v1h-8zM152 316h8v1h-8zM160 316h8v1h-8zM168 316h8v1h-8zM176 316h8v1h-8zM184 316h8v1h-8zM192 316h8v1h-8zM200 316h8v1h-8zM208 316h8v1h-8zM216 316h8v1h-8zM224 316h8v1h-8zM232 316h8v1h-8zM240 316h8v1h-8zM248 316h8v1h-8zM256 316h8v1h-8zM264 316h8v1h-8zM272 316h8v1h-8zM160 317h8v1h-8zM168 317h8v1h-8zM176 317h8v1h-8zM184 317h8v1h-8zM192 317h8v1h-8zM200 317h8v1h-8zM208 317h8v1h-8zM216 317h8v1h-8zM224 317h8v1h-8zM232 317h8v1h-8zM240 317h8v1h-8zM248 317h8v1h-8zM256 317h8v1h-8zM264 317h8v1h-8zM168 318h8v1h-8zM176 318h8v1h-8zM184 318h8v1h-8zM192 318h8v1h-8zM200 318h8v1h-8zM208 318h8v1h-8zM216 318h8v1h-8zM224 318h8v1h-8zM232 318h8v1h-8zM240 318h8v1h-8zM248 318h8v1h-8zM256 318h8v1h-8zM264 318h8v1h-8zM272 318h8v1h-8zM200 319h8v1h-8zM208 319h8v1h-8zM216 319h8v1h-8zM224 319h8v1h-8zM232 319h8v1h-8zM240 319h8v1h-8zM248 319h8v1h-8zM256 319h8v1h-8zM264 319h8v1h-8zM272 319h8v1h-8zM216 320h8v1h-8zM224 320h8v1h-8zM232 320h8v1h-8zM240 320h8v1h-8zM248 320h8v1h-8zM256 320h8v1h-8zM264 320h8v1h-8zM272 320h8v1h-8zM216 321h8v1h-8zM224 321h8v1h-8zM232 321h8v1h-8zM240 321h8v1h-8zM248 321h8v1h-8zM256 321h8v1h-8zM264 321h8v1h-8zM272 321h8v1h-8zM216 322h8v1h-8zM224 322h8v1h-8zM232 322h8v1h-8zM240 322h8v1h-8zM248 322h8v1h-8zM256 322h8v1h-8zM264 322h8v1h-8zM272 322h8v1h-8zM216 323h8v1h-8zM224 323h8v1h-8zM232 323h8v1h-8zM240 323h8v1h-8zM248 323h8v1h-8zM256 323h8v1h-8zM264 323h8v1h-8zM216 324h8v1h-8zM224 324h8v1h-8zM232 324h8v1h-8zM240 324h8v1h-8z"/><path fill="#5196D5" d="M248 324h8v1h-8zM256 324h8v1h-8zM264 324h8v1h-8zM272 324h8v1h-8z"/><path fill="#FEFF95" d="M216 325h8v1h-8zM216 326h8v1h-8zM224 327h8v1h-8zM232 327h8v1h-8zM240 327h8v1h-8z"/><path fill="#64C97A" d="M248 327h8v1h-8zM256 327h8v1h-8zM264 327h8v1h-8zM272 327h8v1h-8z"/><path fill="#FEFF95" d="M224 328h8v1h-8zM232 328h8v1h-8zM240 328h8v1h-8zM248 328h8v1h-8zM256 328h8v1h-8zM264 328h8v1h-8zM272 328h8v1h-8zM224 329h8v1h-8zM232 329h8v1h-8zM240 329h8v1h-8zM248 329h8v1h-8zM256 329h8v1h-8zM264 329h8v1h-8zM272 329h8v1h-8zM224 330h8v1h-8zM232 330h8v1h-8zM240 330h8v1h-8zM248 330h8v1h-8zM256 330h8v1h-8zM264 330h8v1h-8zM272 330h8v1h-8zM224 331h8v1h-8zM232 331h8v1h-8zM240 331h8v1h-8zM248 331h8v1h-8zM256 331h8v1h-8zM264 331h8v1h-8zM272 331h8v1h-8zM224 332h8v1h-8zM232 332h8v1h-8zM240 332h8v1h-8zM248 332h8v1h-8zM256 332h8v1h-8zM264 332h8v1h-8zM272 332h8v1h-8zM224 333h8v1h-8zM232 333h8v1h-8zM240 333h8v1h-8zM248 333h8v1h-8zM256 333h8v1h-8zM264 333h8v1h-8zM272 333h8v1h-8zM224 334h8v1h-8zM232 334h8v1h-8zM240 334h8v1h-8zM248 334h8v1h-8zM256 334h8v1h-8zM264 334h8v1h-8zM272 334h8v1h-8zM224 335h8v1h-8zM232 335h8v1h-8zM240 335h8v1h-8zM248 335h8v1h-8zM256 335h8v1h-8zM264 335h8v1h-8z"/><path fill="#5196D5" d="M16 336h8v1h-8zM16 337h8v1h-8zM16 338h8v1h-8zM16 339h8v1h-8zM16 340h8v1h-8zM16 341h8v1h-8zM16 342h8v1h-8zM16 343h8v1h-8zM16 344h8v1h-8zM16 345h8v1h-8zM16 346h8v1h-8zM16 347h8v1h-8zM16 348h8v1h-8zM16 349h8v1h-8zM16 350h8v1h-8zM16 351h8v1h-8zM16 352h8v1h-8zM16 353h8v1h-8zM16 354h8v1h-8zM16 355h8v1h-8zM16 356h8v1h-8zM16 357h8v1h-8zM16 358h8v1h-8zM16 359h8v1h-8zM16 360h8v1h-8zM16 361h8v1h-8zM16 362h8v1h-8zM16 363h8v1h-8zM16 364h8v1h-8zM16 365h8v1h-8zM16 366h8v1h-8zM16 367h8v1h-8zM16 368h8v1h-8zM16 369h8v1h-8zM16 370h8v1h-8zM16 371h8v1h-8zM16 372h8v1h-8zM16 373h8v1h-8zM16 374h8v1h-8zM16 375h8v1h-8zM16 376h8v1h-8zM16 377h8v1h-8zM16 378h8v1h-8zM16 379h8v1h-8zM16 380h8v1h-8zM16 381h8v1h-8zM16 382h8v1h-8zM16 383h8v1h-8zM16 384h8v1h-8zM16 385h8v1h-8zM16 386h8v1h-8zM16 387h8v1h-8zM16 388h8v1h-8zM16 389h8v1h-8zM16 390h8v1h-8zM16 391h8v1h-8zM16 392h8v1h-8zM16 393h8v1h-8zM16 394h8v1h-8zM16 395h8v1h-8zM16 396h8v1h-8zM16 397h8v1h-8zM16 398h8v1h-8zM16 399h8v1h-8zM16 400h8v1h-8zM16 401h8v1h-8zM16 402h8v1h-8zM24 403h8v1h-8zM32 403h8v1h-8zM40 403h8v1h-8zM48 403h8v1h-8zM56 403h8v1h-8zM64 403h8v1h-8zM72 403h8v1h-8zM80 403h8v1h-8zM88 403h8v1h-8zM96 403h8v1h-8z"/><path fill="#FEFF95" d="M104 403h8v1h-8z"/><path fill="#5196D5" d="M112 403h8v1h-8zM120 403h8v1h-8zM128 403h8v1h-8z"/><path fill="#FEFF95" d="M136 403h8v1h-8zM144 403h8v1h-8zM152 403h8v1h-8zM160 403h8v1h-8zM168 403h8v1h-8zM176 403h8v1h-8zM184 403h8v1h-8zM192 403h8v1h-8zM200 403h8v1h-8zM208 403h8v1h-8zM216 403h8v1h-8zM224 403h8v1h-8zM232 403h8v1h-8zM240 403h8v1h-8zM248 403h8v1h-8zM256 403h8v1h-8zM264 403h8v1h-8zM272 403h8v1h-8z"/><path fill="#5196D5" d="M24 404h8v1h-8zM32 404h8v1h-8zM40 404h8v1h-8zM48 404h8v1h-8zM56 404h8v1h-8zM64 404h8v1h-8zM72 404h8v1h-8zM80 404h8v1h-8zM88 404h8v1h-8zM96 404h8v1h-8zM104 404h8v1h-8zM112 404h8v1h-8zM120 404h8v1h-8z"/><path fill="#FEFF95" d="M128 404h8v1h-8zM136 404h8v1h-8zM144 404h8v1h-8zM152 404h8v1h-8zM160 404h8v1h-8zM168 404h8v1h-8zM176 404h8v1h-8zM184 404h8v1h-8zM192 404h8v1h-8zM200 404h8v1h-8zM208 404h8v1h-8zM216 404h8v1h-8zM224 404h8v1h-8zM232 404h8v1h-8zM240 404h8v1h-8zM248 404h8v1h-8zM256 404h8v1h-8zM264 404h8v1h-8zM272 404h8v1h-8z"/><path fill="#5196D5" d="M24 405h8v1h-8zM32 405h8v1h-8zM40 405h8v1h-8zM48 405h8v1h-8zM56 405h8v1h-8zM64 405h8v1h-8zM72 405h8v1h-8zM80 405h8v1h-8zM88 405h8v1h-8zM96 405h8v1h-8zM104 405h8v1h-8zM112 405h8v1h-8zM120 405h8v1h-8zM128 405h8v1h-8zM136 405h8v1h-8zM144 405h8v1h-8zM152 405h8v1h-8zM160 405h8v1h-8zM168 405h8v1h-8zM176 405h8v1h-8zM184 405h8v1h-8zM192 405h8v1h-8zM200 405h8v1h-8zM208 405h8v1h-8zM216 405h8v1h-8zM224 405h8v1h-8zM232 405h8v1h-8zM240 405h8v1h-8zM248 405h8v1h-8zM256 405h8v1h-8zM264 405h8v1h-8zM272 405h8v1h-8zM24 406h8v1h-8zM32 406h8v1h-8zM40 406h8v1h-8zM48 406h8v1h-8zM56 406h8v1h-8zM64 406h8v1h-8zM72 406h8v1h-8zM80 406h8v1h-8zM88 406h8v1h-8zM96 406h8v1h-8zM104 406h8v1h-8zM112 406h8v1h-8zM120 406h8v1h-8zM128 406h8v1h-8zM136 406h8v1h-8zM144 406h8v1h-8zM152 406h8v1h-8zM160 406h8v1h-8zM168 406h8v1h-8zM176 406h8v1h-8zM184 406h8v1h-8zM192 406h8v1h-8zM200 406h8v1h-8zM208 406h8v1h-8zM216 406h8v1h-8zM224 406h8v1h-8zM232 406h8v1h-8zM240 406h8v1h-8zM248 406h8v1h-8zM256 406h8v1h-8zM264 406h8v1h-8zM272 406h8v1h-8zM24 407h8v1h-8zM32 407h8v1h-8zM40 407h8v1h-8zM48 407h8v1h-8zM56 407h8v1h-8zM64 407h8v1h-8zM72 407h8v1h-8zM80 407h8v1h-8zM88 407h8v1h-8zM96 407h8v1h-8zM104 407h8v1h-8zM112 407h8v1h-8zM120 407h8v1h-8zM128 407h8v1h-8zM136 407h8v1h-8zM144 407h8v1h-8zM152 407h8v1h-8zM160 407h8v1h-8zM168 407h8v1h-8zM176 407h8v1h-8zM184 407h8v1h-8zM192 407h8v1h-8zM200 407h8v1h-8zM208 407h8v1h-8zM216 407h8v1h-8zM224 407h8v1h-8zM232 407h8v1h-8zM240 407h8v1h-8zM248 407h8v1h-8zM256 407h8v1h-8zM264 407h8v1h-8zM272 407h8v1h-8zM24 408h8v1h-8zM32 408h8v1h-8zM40 408h8v1h-8zM48 408h8v1h-8zM56 408h8v1h-8zM64 408h8v1h-8zM72 408h8v1h-8zM80 408h8v1h-8zM88 408h8v1h-8zM96 408h8v1h-8zM104 408h8v1h-8zM112 408h8v1h-8zM120 408h8v1h-8zM128 408h8v1h-8zM136 408h8v1h-8zM144 408h8v1h-8zM152 408h8v1h-8zM160 408h8v1h-8zM168 408h8v1h-8zM176 408h8v1h-8zM184 408h8v1h-8zM192 408h8v1h-8zM200 408h8v1h-8zM208 408h8v1h-8zM216 408h8v1h-8zM224 408h8v1h-8zM232 408h8v1h-8zM240 408h8v1h-8zM248 408h8v1h-8zM256 408h8v1h-8zM264 408h8v1h-8zM272 408h8v1h-8zM24 409h8v1h-8zM32 409h8v1h-8zM40 409h8v1h-8zM48 409h8v1h-8zM56 409h8v1h-8zM64 409h8v1h-8zM72 409h8v1h-8zM80 409h8v1h-8zM88 409h8v1h-8zM96 409h8v1h-8zM104 409h8v1h-8zM112 409h8v1h-8zM120 409h8v1h-8zM128 409h8v1h-8zM136 409h8v1h-8zM144 409h8v1h-8zM152 409h8v1h-8zM160 409h8v1h-8zM168 409h8v1h-8zM24 410h8v1h-8zM32 410h8v1h-8zM40 410h8v1h-8zM48 410h8v1h-8zM56 410h8v1h-8zM64 410h8v1h-8zM72 410h8v1h-8zM80 410h8v1h-8zM88 410h8v1h-8zM96 410h8v1h-8zM104 410h8v1h-8zM112 410h8v1h-8zM120 410h8v1h-8zM128 410h8v1h-8zM136 410h8v1h-8zM144 410h8v1h-8zM152 410h8v1h-8zM160 410h8v1h-8zM168 410h8v1h-8zM24 411h8v1h-8zM32 411h8v1h-8zM40 411h8v1h-8zM48 411h8v1h-8zM56 411h8v1h-8zM64 411h8v1h-8zM72 411h8v1h-8zM80 411h8v1h-8zM88 411h8v1h-8zM96 411h8v1h-8zM104 411h8v1h-8zM112 411h8v1h-8zM120 411h8v1h-8zM128 411h8v1h-8zM136 411h8v1h-8zM144 411h8v1h-8zM152 411h8v1h-8zM160 411h8v1h-8zM168 411h8v1h-8zM24 412h8v1h-8zM32 412h8v1h-8zM40 412h8v1h-8zM48 412h8v1h-8zM56 412h8v1h-8zM64 412h8v1h-8zM72 412h8v1h-8zM80 412h8v1h-8zM88 412h8v1h-8zM96 412h8v1h-8zM104 412h8v1h-8zM112 412h8v1h-8zM120 412h8v1h-8zM128 412h8v1h-8zM136 412h8v1h-8zM144 412h8v1h-8zM24 413h8v1h-8zM32 413h8v1h-8zM40 413h8v1h-8zM48 413h8v1h-8zM56 413h8v1h-8zM64 413h8v1h-8zM24 414h8v1h-8zM32 414h8v1h-8zM40 414h8v1h-8zM48 414h8v1h-8zM56 414h8v1h-8zM24 415h8v1h-8zM32 415h8v1h-8zM40 415h8v1h-8zM48 415h8v1h-8zM56 415h8v1h-8zM24 416h8v1h-8zM32 416h8v1h-8zM40 416h8v1h-8zM48 416h8v1h-8zM24 417h8v1h-8zM32 417h8v1h-8zM40 417h8v1h-8zM48 417h8v1h-8zM24 418h8v1h-8zM32 418h8v1h-8zM40 418h8v1h-8zM48 418h8v1h-8zM24 419h8v1h-8zM32 419h8v1h-8zM40 419h8v1h-8zM24 420h8v1h-8zM32 420h8v1h-8zM40 420h8v1h-8zM24 421h8v1h-8zM32 421h8v1h-8zM40 421h8v1h-8zM24 422h8v1h-8zM32 422h8v1h-8zM40 422h8v1h-8zM24 423h8v1h-8zM32 423h8v1h-8zM40 423h8v1h-8zM24 424h8v1h-8zM32 424h8v1h-8zM40 424h8v1h-8zM24 425h8v1h-8zM32 425h8v1h-8zM40 425h8v1h-8zM24 426h8v1h-8zM32 426h8v1h-8zM40 426h8v1h-8zM24 427h8v1h-8zM32 427h8v1h-8zM40 427h8v1h-8zM24 428h8v1h-8zM32 428h8v1h-8zM40 428h8v1h-8zM24 429h8v1h-8zM32 429h8v1h-8zM40 429h8v1h-8zM24 430h8v1h-8zM32 430h8v1h-8zM40 430h8v1h-8zM24 431h8v1h-8zM32 431h8v1h-8zM40 431h8v1h-8zM24 432h8v1h-8zM32 432h8v1h-8zM40 432h8v1h-8zM24 433h8v1h-8zM32 433h8v1h-8zM40 433h8v1h-8zM24 434h8v1h-8zM32 434h8v1h-8zM40 434h8v1h-8zM24 435h8v1h-8zM32 435h8v1h-8zM40 435h8v1h-8zM24 436h8v1h-8zM32 436h8v1h-8zM40 436h8v1h-8zM24 437h8v1h-8zM32 437h8v1h-8zM40 437h8v1h-8zM24 438h8v1h-8zM32 438h8v1h-8zM40 438h8v1h-8zM24 439h8v1h-8zM32 439h8v1h-8zM40 439h8v1h-8zM24 440h8v1h-8zM32 440h8v1h-8zM40 440h8v1h-8zM24 441h8v1h-8zM32 441h8v1h-8zM40 441h8v1h-8zM24 442h8v1h-8zM32 442h8v1h-8zM40 442h8v1h-8zM24 443h8v1h-8zM32 443h8v1h-8zM40 443h8v1h-8zM24 444h8v1h-8zM32 444h8v1h-8zM40 444h8v1h-8zM24 445h8v1h-8zM32 445h8v1h-8zM40 445h8v1h-8zM24 446h8v1h-8zM32 446h8v1h-8zM40 446h8v1h-8zM24 447h8v1h-8zM32 447h8v1h-8zM40 447h8v1h-8zM24 448h8v1h-8zM32 448h8v1h-8zM40 448h8v1h-8zM24 449h8v1h-8zM32 449h8v1h-8zM40 449h8v1h-8zM24 450h8v1h-8zM32 450h8v1h-8zM40 450h8v1h-8zM24 451h8v1h-8zM32 451h8v1h-8zM40 451h8v1h-8zM24 452h8v1h-8zM32 452h8v1h-8zM40 452h8v1h-8zM24 453h8v1h-8zM32 453h8v1h-8zM40 453h8v1h-8zM24 454h8v1h-8zM32 454h8v1h-8zM40 454h8v1h-8zM24 455h8v1h-8zM32 455h8v1h-8zM40 455h8v1h-8zM24 456h8v1h-8zM32 456h8v1h-8zM40 456h8v1h-8zM24 457h8v1h-8zM32 457h8v1h-8zM40 457h8v1h-8zM24 458h8v1h-8zM32 458h8v1h-8zM40 458h8v1h-8zM24 459h8v1h-8zM32 459h8v1h-8zM40 459h8v1h-8zM24 460h8v1h-8zM32 460h8v1h-8zM40 460h8v1h-8zM24 461h8v1h-8zM32 461h8v1h-8zM40 461h8v1h-8zM24 462h8v1h-8zM32 462h8v1h-8zM40 462h8v1h-8zM24 463h8v1h-8zM32 463h8v1h-8zM40 463h8v1h-8zM24 464h8v1h-8zM32 464h8v1h-8zM40 464h8v1h-8zM24 465h8v1h-8zM32 465h8v1h-8zM40 465h8v1h-8zM24 466h8v1h-8zM32 466h8v1h-8zM40 466h8v1h-8zM24 467h8v1h-8zM32 467h8v1h-8zM40 467h8v1h-8zM24 468h8v1h-8zM32 468h8v1h-8zM40 468h8v1h-8zM24 469h8v1h-8zM32 469h8v1h-8zM40 469h8v1h-8zM24 470h8v1h-8zM32 470h8v1h-8zM128 470h8v1h-8zM136 470h8v1h-8zM144 470h8v1h-8zM152 470h8v1h-8zM160 470h8v1h-8zM168 470h8v1h-8zM176 470h8v1h-8zM184 470h8v1h-8zM192 470h8v1h-8zM200 470h8v1h-8zM208 470h8v1h-8zM24 471h8v1h-8zM24 472h8v1h-8zM24 473h8v1h-8zM24 474h8v1h-8zM32 475h8v1h-8zM40 475h8v1h-8zM48 475h8v1h-8zM56 475h8v1h-8zM64 475h8v1h-8zM72 475h8v1h-8zM80 475h8v1h-8z"/><path fill="#925CB1" d="M88 475h8v1h-8zM96 475h8v1h-8zM104 475h8v1h-8zM112 475h8v1h-8zM120 475h8v1h-8zM128 475h8v1h-8zM136 475h8v1h-8zM144 475h8v1h-8zM152 475h8v1h-8zM160 475h8v1h-8zM168 475h8v1h-8zM176 475h8v1h-8zM184 475h8v1h-8zM192 475h8v1h-8zM200 475h8v1h-8zM208 475h8v1h-8zM216 475h8v1h-8zM224 475h8v1h-8zM232 475h8v1h-8zM240 475h8v1h-8zM248 475h8v1h-8zM256 475h8v1h-8zM264 475h8v1h-8zM272 475h8v1h-8z"/><path fill="#5196D5" d="M32 476h8v1h-8zM40 476h8v1h-8zM48 476h8v1h-8zM56 476h8v1h-8zM64 476h8v1h-8zM72 476h8v1h-8zM80 476h8v1h-8z"/><path fill="#FEFF95" d="M88 476h8v1h-8zM96 476h8v1h-8zM104 476h8v1h-8zM112 476h8v1h-8zM120 476h8v1h-8zM128 476h8v1h-8zM136 476h8v1h-8zM144 476h8v1h-8zM152 476h8v1h-8zM160 476h8v1h-8zM168 476h8v1h-8zM176 476h8v1h-8zM184 476h8v1h-8zM192 476h8v1h-8zM200 476h8v1h-8zM208 476h8v1h-8zM216 476h8v1h-8zM224 476h8v1h-8zM232 476h8v1h-8zM240 476h8v1h-8zM248 476h8v1h-8zM256 476h8v1h-8zM264 476h8v1h-8zM272 476h8v1h-8z"/><path fill="#5196D5" d="M32 477h8v1h-8zM40 477h8v1h-8zM48 477h8v1h-8zM56 477h8v1h-8zM64 477h8v1h-8zM72 477h8v1h-8zM80 477h8v1h-8zM88 477h8v1h-8zM96 477h8v1h-8zM104 477h8v1h-8zM112 477h8v1h-8zM120 477h8v1h-8zM128 477h8v1h-8zM136 477h8v1h-8zM144 477h8v1h-8zM152 477h8v1h-8zM160 477h8v1h-8zM168 477h8v1h-8zM176 477h8v1h-8zM184 477h8v1h-8zM192 477h8v1h-8zM200 477h8v1h-8zM208 477h8v1h-8zM32 478h8v1h-8zM40 478h8v1h-8zM48 478h8v1h-8zM56 478h8v1h-8zM64 478h8v1h-8zM72 478h8v1h-8zM80 478h8v1h-8zM88 478h8v1h-8zM32 479h8v1h-8zM40 479h8v1h-8zM48 479h8v1h-8zM56 479h8v1h-8zM64 479h8v1h-8zM72 479h8v1h-8zM80 479h8v1h-8zM88 479h8v1h-8zM32 480h8v1h-8zM40 480h8v1h-8zM48 480h8v1h-8zM56 480h8v1h-8z"/><path fill="#EE89C9" d="M64 480h8v1h-8zM72 480h8v1h-8zM80 480h8v1h-8zM88 480h8v1h-8zM96 480h8v1h-8z"/><path fill="#5196D5" d="M104 480h8v1h-8zM112 480h8v1h-8z"/><path fill="#EE89C9" d="M120 480h8v1h-8zM128 480h8v1h-8zM136 480h8v1h-8zM144 480h8v1h-8zM152 480h8v1h-8zM160 480h8v1h-8zM168 480h8v1h-8zM176 480h8v1h-8zM184 480h8v1h-8zM192 480h8v1h-8zM200 480h8v1h-8zM208 480h8v1h-8zM216 480h8v1h-8zM224 480h8v1h-8zM232 480h8v1h-8zM240 480h8v1h-8zM248 480h8v1h-8zM256 480h8v1h-8zM264 480h8v1h-8zM272 480h8v1h-8z"/><path fill="#5196D5" d="M32 481h8v1h-8zM40 481h8v1h-8zM48 481h8v1h-8zM56 481h8v1h-8zM32 482h8v1h-8zM40 482h8v1h-8zM48 482h8v1h-8zM56 482h8v1h-8zM40 483h8v1h-8zM48 483h8v1h-8zM56 483h8v1h-8zM64 483h8v1h-8zM72 483h8v1h-8zM80 483h8v1h-8zM88 483h8v1h-8zM96 483h8v1h-8zM104 483h8v1h-8zM112 483h8v1h-8zM120 483h8v1h-8zM128 483h8v1h-8zM136 483h8v1h-8zM144 483h8v1h-8zM152 483h8v1h-8zM160 483h8v1h-8zM168 483h8v1h-8zM40 484h8v1h-8zM48 484h8v1h-8zM56 484h8v1h-8zM64 484h8v1h-8zM72 484h8v1h-8zM80 484h8v1h-8zM88 484h8v1h-8zM96 484h8v1h-8zM104 484h8v1h-8zM112 484h8v1h-8zM120 484h8v1h-8zM40 485h8v1h-8zM48 485h8v1h-8z"/><path fill="#EE89C9" d="M56 485h8v1h-8zM64 485h8v1h-8zM72 485h8v1h-8zM80 485h8v1h-8zM88 485h8v1h-8zM96 485h8v1h-8zM104 485h8v1h-8zM112 485h8v1h-8zM120 485h8v1h-8z"/><path fill="#5196D5" d="M48 486h8v1h-8zM56 486h8v1h-8zM64 486h8v1h-8zM72 486h8v1h-8zM80 486h8v1h-8zM88 486h8v1h-8zM96 486h8v1h-8zM104 486h8v1h-8zM112 486h8v1h-8zM120 486h8v1h-8zM128 486h8v1h-8zM136 486h8v1h-8zM144 486h8v1h-8zM152 486h8v1h-8zM160 486h8v1h-8zM168 486h8v1h-8zM176 486h8v1h-8zM184 486h8v1h-8zM192 486h8v1h-8zM200 486h8v1h-8zM208 486h8v1h-8zM216 486h8v1h-8zM224 486h8v1h-8zM232 486h8v1h-8zM240 486h8v1h-8zM248 486h8v1h-8zM256 486h8v1h-8zM264 486h8v1h-8zM272 486h8v1h-8zM48 487h8v1h-8zM56 487h8v1h-8zM64 487h8v1h-8zM72 487h8v1h-8zM80 487h8v1h-8zM88 487h8v1h-8zM96 487h8v1h-8zM104 487h8v1h-8zM112 487h8v1h-8zM120 487h8v1h-8zM128 487h8v1h-8zM136 487h8v1h-8zM144 487h8v1h-8zM152 487h8v1h-8zM160 487h8v1h-8zM168 487h8v1h-8zM176 487h8v1h-8zM184 487h8v1h-8zM192 487h8v1h-8zM200 487h8v1h-8zM208 487h8v1h-8zM216 487h8v1h-8zM224 487h8v1h-8zM232 487h8v1h-8zM240 487h8v1h-8zM248 487h8v1h-8zM256 487h8v1h-8zM264 487h8v1h-8zM272 487h8v1h-8zM48 488h8v1h-8zM56 488h8v1h-8zM64 488h8v1h-8zM72 488h8v1h-8zM80 488h8v1h-8z"/><path fill="#EE89C9" d="M88 488h8v1h-8zM96 488h8v1h-8zM104 488h8v1h-8zM112 488h8v1h-8zM120 488h8v1h-8zM128 488h8v1h-8zM136 488h8v1h-8zM144 488h8v1h-8zM152 488h8v1h-8zM160 488h8v1h-8zM168 488h8v1h-8zM176 488h8v1h-8zM184 488h8v1h-8zM192 488h8v1h-8zM200 488h8v1h-8zM208 488h8v1h-8z"/><path fill="#5196D5" d="M48 489h8v1h-8zM56 489h8v1h-8zM64 489h8v1h-8zM48 490h8v1h-8zM56 490h8v1h-8zM64 490h8v1h-8zM48 491h8v1h-8zM56 491h8v1h-8zM48 492h8v1h-8zM56 492h8v1h-8zM48 493h8v1h-8zM56 493h8v1h-8zM48 494h8v1h-8zM56 494h8v1h-8zM48 495h8v1h-8zM56 495h8v1h-8zM56 496h8v1h-8zM64 496h8v1h-8zM72 496h8v1h-8zM80 496h8v1h-8zM88 496h8v1h-8zM96 496h8v1h-8zM104 496h8v1h-8zM112 496h8v1h-8zM120 496h8v1h-8zM128 496h8v1h-8zM136 496h8v1h-8zM144 496h8v1h-8zM152 496h8v1h-8zM160 496h8v1h-8zM168 496h8v1h-8zM176 496h8v1h-8zM184 496h8v1h-8zM192 496h8v1h-8zM200 496h8v1h-8zM208 496h8v1h-8zM216 496h8v1h-8zM224 496h8v1h-8zM232 496h8v1h-8zM240 496h8v1h-8zM248 496h8v1h-8zM256 496h8v1h-8zM264 496h8v1h-8zM272 496h8v1h-8zM56 497h8v1h-8zM64 497h8v1h-8zM72 497h8v1h-8zM80 497h8v1h-8zM88 497h8v1h-8zM96 497h8v1h-8zM104 497h8v1h-8zM112 497h8v1h-8zM120 497h8v1h-8zM128 497h8v1h-8zM136 497h8v1h-8zM144 497h8v1h-8zM152 497h8v1h-8zM160 497h8v1h-8zM168 497h8v1h-8zM176 497h8v1h-8zM184 497h8v1h-8zM192 497h8v1h-8zM200 497h8v1h-8zM208 497h8v1h-8zM216 497h8v1h-8zM224 497h8v1h-8zM232 497h8v1h-8zM240 497h8v1h-8zM248 497h8v1h-8zM256 497h8v1h-8zM264 497h8v1h-8zM272 497h8v1h-8zM56 498h8v1h-8zM64 498h8v1h-8zM72 498h8v1h-8zM80 498h8v1h-8zM88 498h8v1h-8zM96 498h8v1h-8zM104 498h8v1h-8zM112 498h8v1h-8zM120 498h8v1h-8zM128 498h8v1h-8zM136 498h8v1h-8zM144 498h8v1h-8zM152 498h8v1h-8zM160 498h8v1h-8zM168 498h8v1h-8zM176 498h8v1h-8zM184 498h8v1h-8zM192 498h8v1h-8zM200 498h8v1h-8zM208 498h8v1h-8zM216 498h8v1h-8zM224 498h8v1h-8zM232 498h8v1h-8zM240 498h8v1h-8zM248 498h8v1h-8zM256 498h8v1h-8zM264 498h8v1h-8zM272 498h8v1h-8zM56 499h8v1h-8zM64 499h8v1h-8zM72 499h8v1h-8zM80 499h8v1h-8zM88 499h8v1h-8zM96 499h8v1h-8zM104 499h8v1h-8zM112 499h8v1h-8zM120 499h8v1h-8zM128 499h8v1h-8zM136 499h8v1h-8zM144 499h8v1h-8zM152 499h8v1h-8zM160 499h8v1h-8zM168 499h8v1h-8zM176 499h8v1h-8zM184 499h8v1h-8zM192 499h8v1h-8zM200 499h8v1h-8zM208 499h8v1h-8zM56 500h8v1h-8zM64 500h8v1h-8zM72 500h8v1h-8zM80 500h8v1h-8zM88 500h8v1h-8zM96 500h8v1h-8zM104 500h8v1h-8zM112 500h8v1h-8zM120 500h8v1h-8zM128 500h8v1h-8zM136 500h8v1h-8zM144 500h8v1h-8zM152 500h8v1h-8zM160 500h8v1h-8zM168 500h8v1h-8zM176 500h8v1h-8zM184 500h8v1h-8zM192 500h8v1h-8zM200 500h8v1h-8zM208 500h8v1h-8zM56 501h8v1h-8zM64 501h8v1h-8zM72 501h8v1h-8z"/><path fill="#EE89C9" d="M80 501h8v1h-8zM88 501h8v1h-8zM96 501h8v1h-8zM104 501h8v1h-8zM112 501h8v1h-8zM120 501h8v1h-8z"/><path fill="#5196D5" d="M128 501h8v1h-8zM56 502h8v1h-8zM64 502h8v1h-8zM72 502h8v1h-8zM56 503h8v1h-8zM56 504h8v1h-8zM64 505h8v1h-8zM72 505h8v1h-8zM80 505h8v1h-8z"/><path fill="#FEFF95" d="M88 505h8v1h-8zM96 505h8v1h-8z"/><path fill="#5196D5" d="M104 505h8v1h-8zM112 505h8v1h-8zM120 505h8v1h-8zM128 505h8v1h-8zM136 505h8v1h-8zM144 505h8v1h-8zM152 505h8v1h-8zM160 505h8v1h-8zM168 505h8v1h-8zM176 505h8v1h-8zM184 505h8v1h-8zM192 505h8v1h-8zM200 505h8v1h-8zM208 505h8v1h-8zM216 505h8v1h-8zM224 505h8v1h-8zM232 505h8v1h-8zM240 505h8v1h-8zM248 505h8v1h-8zM256 505h8v1h-8zM264 505h8v1h-8zM272 505h8v1h-8zM64 506h8v1h-8zM72 506h8v1h-8zM80 506h8v1h-8zM88 506h8v1h-8zM96 506h8v1h-8zM104 506h8v1h-8zM112 506h8v1h-8zM120 506h8v1h-8zM128 506h8v1h-8zM136 506h8v1h-8zM144 506h8v1h-8zM152 506h8v1h-8zM160 506h8v1h-8zM168 506h8v1h-8z"/><path fill="#D55744" d="M176 506h8v1h-8zM184 506h8v1h-8zM192 506h8v1h-8zM200 506h8v1h-8zM208 506h8v1h-8zM216 506h8v1h-8z"/><path fill="#5196D5" d="M64 507h8v1h-8zM72 507h8v1h-8zM80 507h8v1h-8zM88 507h8v1h-8zM96 507h8v1h-8zM104 507h8v1h-8zM112 507h8v1h-8zM120 507h8v1h-8zM128 507h8v1h-8zM136 507h8v1h-8zM144 507h8v1h-8zM152 507h8v1h-8zM160 507h8v1h-8zM168 507h8v1h-8zM176 507h8v1h-8zM184 507h8v1h-8zM192 507h8v1h-8zM200 507h8v1h-8zM208 507h8v1h-8zM64 508h8v1h-8zM72 508h8v1h-8zM80 508h8v1h-8zM88 508h8v1h-8zM96 508h8v1h-8zM104 508h8v1h-8zM112 508h8v1h-8zM120 508h8v1h-8zM128 508h8v1h-8zM136 508h8v1h-8zM144 508h8v1h-8zM152 508h8v1h-8zM160 508h8v1h-8zM168 508h8v1h-8zM176 508h8v1h-8zM184 508h8v1h-8zM192 508h8v1h-8zM200 508h8v1h-8zM208 508h8v1h-8zM64 509h8v1h-8zM72 509h8v1h-8zM80 509h8v1h-8zM88 509h8v1h-8zM96 509h8v1h-8zM104 509h8v1h-8zM112 509h8v1h-8zM120 509h8v1h-8zM128 509h8v1h-8zM136 509h8v1h-8zM144 509h8v1h-8zM152 509h8v1h-8zM160 509h8v1h-8zM168 509h8v1h-8zM176 509h8v1h-8zM184 509h8v1h-8zM192 509h8v1h-8zM200 509h8v1h-8zM208 509h8v1h-8zM64 510h8v1h-8zM72 510h8v1h-8zM80 510h8v1h-8zM88 510h8v1h-8zM96 510h8v1h-8zM104 510h8v1h-8zM112 510h8v1h-8zM120 510h8v1h-8zM128 510h8v1h-8zM136 510h8v1h-8zM144 510h8v1h-8zM152 510h8v1h-8zM160 510h8v1h-8zM168 510h8v1h-8zM64 511h8v1h-8zM72 511h8v1h-8zM80 511h8v1h-8zM88 511h8v1h-8zM96 511h8v1h-8zM64 512h8v1h-8zM72 512h8v1h-8zM80 512h8v1h-8zM88 512h8v1h-8zM96 512h8v1h-8zM64 513h8v1h-8zM72 513h8v1h-8zM80 513h8v1h-8zM88 513h8v1h-8zM96 513h8v1h-8zM72 514h8v1h-8zM80 514h8v1h-8z"/><path fill="#64C97A" d="M88 514h8v1h-8zM96 514h8v1h-8zM104 514h8v1h-8zM112 514h8v1h-8zM120 514h8v1h-8zM128 514h8v1h-8zM136 514h8v1h-8zM144 514h8v1h-8zM152 514h8v1h-8zM160 514h8v1h-8zM168 514h8v1h-8zM176 514h8v1h-8zM184 514h8v1h-8zM192 514h8v1h-8zM200 514h8v1h-8zM208 514h8v1h-8zM216 514h8v1h-8zM224 514h8v1h-8zM232 514h8v1h-8zM240 514h8v1h-8zM248 514h8v1h-8zM256 514h8v1h-8zM264 514h8v1h-8zM272 514h8v1h-8z"/><path fill="#5196D5" d="M72 515h8v1h-8zM80 515h8v1h-8zM88 515h8v1h-8zM96 515h8v1h-8zM104 515h8v1h-8zM112 515h8v1h-8zM120 515h8v1h-8zM128 515h8v1h-8zM136 515h8v1h-8zM144 515h8v1h-8zM152 515h8v1h-8zM160 515h8v1h-8zM168 515h8v1h-8zM176 515h8v1h-8zM184 515h8v1h-8zM192 515h8v1h-8zM200 515h8v1h-8zM208 515h8v1h-8zM216 515h8v1h-8zM224 515h8v1h-8zM232 515h8v1h-8zM240 515h8v1h-8zM248 515h8v1h-8zM256 515h8v1h-8zM264 515h8v1h-8zM272 515h8v1h-8zM72 516h8v1h-8zM80 516h8v1h-8zM88 516h8v1h-8zM96 516h8v1h-8zM104 516h8v1h-8zM112 516h8v1h-8zM120 516h8v1h-8zM128 516h8v1h-8zM136 516h8v1h-8zM144 516h8v1h-8zM152 516h8v1h-8zM160 516h8v1h-8zM168 516h8v1h-8zM176 516h8v1h-8zM184 516h8v1h-8zM192 516h8v1h-8zM200 516h8v1h-8zM208 516h8v1h-8zM216 516h8v1h-8zM224 516h8v1h-8zM232 516h8v1h-8zM240 516h8v1h-8zM248 516h8v1h-8zM256 516h8v1h-8zM264 516h8v1h-8zM272 516h8v1h-8zM72 517h8v1h-8zM80 517h8v1h-8zM88 517h8v1h-8zM96 517h8v1h-8zM104 517h8v1h-8zM112 517h8v1h-8zM120 517h8v1h-8zM128 517h8v1h-8zM136 517h8v1h-8zM144 517h8v1h-8zM152 517h8v1h-8zM160 517h8v1h-8zM168 517h8v1h-8zM176 517h8v1h-8zM184 517h8v1h-8zM192 517h8v1h-8zM200 517h8v1h-8zM208 517h8v1h-8zM216 517h8v1h-8zM224 517h8v1h-8zM232 517h8v1h-8zM240 517h8v1h-8zM248 517h8v1h-8zM256 517h8v1h-8zM264 517h8v1h-8zM272 517h8v1h-8zM72 518h8v1h-8zM80 518h8v1h-8zM88 518h8v1h-8zM96 518h8v1h-8zM104 518h8v1h-8zM112 518h8v1h-8zM120 518h8v1h-8zM128 518h8v1h-8zM136 518h8v1h-8zM144 518h8v1h-8zM152 518h8v1h-8zM160 518h8v1h-8zM168 518h8v1h-8zM176 518h8v1h-8zM184 518h8v1h-8zM192 518h8v1h-8zM200 518h8v1h-8zM208 518h8v1h-8zM216 518h8v1h-8zM224 518h8v1h-8zM232 518h8v1h-8zM240 518h8v1h-8zM248 518h8v1h-8zM256 518h8v1h-8zM264 518h8v1h-8zM272 518h8v1h-8zM72 519h8v1h-8zM80 519h8v1h-8zM88 519h8v1h-8zM96 519h8v1h-8zM104 519h8v1h-8zM112 519h8v1h-8zM120 519h8v1h-8zM128 519h8v1h-8zM136 519h8v1h-8zM144 519h8v1h-8zM152 519h8v1h-8zM160 519h8v1h-8zM168 519h8v1h-8zM176 519h8v1h-8zM184 519h8v1h-8zM192 519h8v1h-8zM200 519h8v1h-8zM208 519h8v1h-8zM216 519h8v1h-8zM224 519h8v1h-8zM232 519h8v1h-8zM240 519h8v1h-8zM248 519h8v1h-8zM256 519h8v1h-8zM264 519h8v1h-8zM272 519h8v1h-8zM72 520h8v1h-8zM80 520h8v1h-8zM88 520h8v1h-8zM96 520h8v1h-8zM104 520h8v1h-8zM112 520h8v1h-8zM120 520h8v1h-8zM128 520h8v1h-8zM136 520h8v1h-8zM144 520h8v1h-8zM152 520h8v1h-8zM160 520h8v1h-8zM168 520h8v1h-8zM176 520h8v1h-8zM184 520h8v1h-8zM192 520h8v1h-8zM200 520h8v1h-8zM208 520h8v1h-8zM216 520h8v1h-8zM224 520h8v1h-8zM232 520h8v1h-8zM72 521h8v1h-8zM80 521h8v1h-8zM88 521h8v1h-8zM96 521h8v1h-8zM104 521h8v1h-8zM112 521h8v1h-8zM120 521h8v1h-8zM128 521h8v1h-8zM72 522h8v1h-8zM80 522h8v1h-8zM88 522h8v1h-8zM96 522h8v1h-8zM104 522h8v1h-8zM112 522h8v1h-8zM120 522h8v1h-8zM128 522h8v1h-8zM72 523h8v1h-8zM80 523h8v1h-8zM88 523h8v1h-8zM96 523h8v1h-8zM72 524h8v1h-8zM80 524h8v1h-8zM88 524h8v1h-8zM72 525h8v1h-8zM80 525h8v1h-8zM88 525h8v1h-8zM80 526h8v1h-8zM88 526h8v1h-8zM96 526h8v1h-8zM104 526h8v1h-8zM112 526h8v1h-8zM120 526h8v1h-8zM128 526h8v1h-8zM136 526h8v1h-8zM144 526h8v1h-8zM152 526h8v1h-8zM160 526h8v1h-8zM168 526h8v1h-8zM176 526h8v1h-8zM184 526h8v1h-8zM192 526h8v1h-8zM200 526h8v1h-8zM208 526h8v1h-8zM80 527h8v1h-8zM88 527h8v1h-8zM96 527h8v1h-8zM104 527h8v1h-8zM112 527h8v1h-8zM120 527h8v1h-8zM128 527h8v1h-8zM136 527h8v1h-8zM144 527h8v1h-8zM152 527h8v1h-8zM160 527h8v1h-8zM168 527h8v1h-8z"/><path fill="#EE89C9" d="M176 527h8v1h-8zM184 527h8v1h-8zM192 527h8v1h-8zM200 527h8v1h-8zM208 527h8v1h-8zM216 527h8v1h-8z"/><path fill="#5196D5" d="M80 528h8v1h-8zM88 528h8v1h-8zM88 529h8v1h-8zM96 529h8v1h-8zM104 529h8v1h-8zM112 529h8v1h-8zM120 529h8v1h-8zM128 529h8v1h-8zM136 529h8v1h-8zM144 529h8v1h-8zM152 529h8v1h-8zM160 529h8v1h-8zM168 529h8v1h-8zM176 529h8v1h-8zM184 529h8v1h-8zM192 529h8v1h-8zM200 529h8v1h-8zM208 529h8v1h-8zM216 529h8v1h-8zM224 529h8v1h-8zM232 529h8v1h-8zM240 529h8v1h-8zM248 529h8v1h-8zM256 529h8v1h-8zM264 529h8v1h-8zM272 529h8v1h-8zM88 530h8v1h-8zM96 530h8v1h-8zM104 530h8v1h-8zM112 530h8v1h-8zM120 530h8v1h-8zM128 530h8v1h-8zM136 530h8v1h-8zM144 530h8v1h-8zM152 530h8v1h-8zM160 530h8v1h-8zM168 530h8v1h-8zM176 530h8v1h-8zM184 530h8v1h-8zM192 530h8v1h-8zM200 530h8v1h-8zM208 530h8v1h-8zM216 530h8v1h-8zM224 530h8v1h-8zM232 530h8v1h-8zM240 530h8v1h-8zM248 530h8v1h-8zM256 530h8v1h-8zM264 530h8v1h-8zM272 530h8v1h-8zM88 531h8v1h-8zM96 531h8v1h-8zM104 531h8v1h-8zM112 531h8v1h-8zM120 531h8v1h-8zM128 531h8v1h-8zM136 531h8v1h-8zM144 531h8v1h-8zM152 531h8v1h-8zM160 531h8v1h-8zM168 531h8v1h-8zM176 531h8v1h-8zM184 531h8v1h-8zM192 531h8v1h-8zM200 531h8v1h-8zM208 531h8v1h-8zM216 531h8v1h-8zM224 531h8v1h-8zM232 531h8v1h-8zM240 531h8v1h-8zM248 531h8v1h-8zM256 531h8v1h-8zM264 531h8v1h-8zM272 531h8v1h-8zM88 532h8v1h-8zM96 532h8v1h-8zM104 532h8v1h-8zM112 532h8v1h-8zM120 532h8v1h-8zM128 532h8v1h-8zM136 532h8v1h-8zM144 532h8v1h-8zM152 532h8v1h-8zM160 532h8v1h-8zM168 532h8v1h-8zM176 532h8v1h-8zM184 532h8v1h-8zM192 532h8v1h-8zM200 532h8v1h-8zM208 532h8v1h-8zM216 532h8v1h-8zM224 532h8v1h-8zM232 532h8v1h-8zM240 532h8v1h-8zM248 532h8v1h-8zM256 532h8v1h-8zM264 532h8v1h-8zM272 532h8v1h-8zM88 533h8v1h-8zM96 533h8v1h-8zM104 533h8v1h-8zM112 533h8v1h-8zM120 533h8v1h-8zM128 533h8v1h-8zM136 533h8v1h-8zM144 533h8v1h-8zM152 533h8v1h-8zM160 533h8v1h-8zM168 533h8v1h-8zM176 533h8v1h-8zM184 533h8v1h-8zM192 533h8v1h-8zM200 533h8v1h-8zM208 533h8v1h-8zM216 533h8v1h-8zM224 533h8v1h-8zM232 533h8v1h-8zM240 533h8v1h-8zM248 533h8v1h-8zM256 533h8v1h-8zM264 533h8v1h-8zM272 533h8v1h-8zM88 534h8v1h-8zM88 535h8v1h-8zM88 536h8v1h-8zM96 537h8v1h-8zM104 537h8v1h-8zM112 537h8v1h-8zM120 537h8v1h-8zM128 537h8v1h-8zM136 537h8v1h-8zM144 537h8v1h-8zM152 537h8v1h-8zM160 537h8v1h-8zM168 537h8v1h-8zM176 537h8v1h-8zM184 537h8v1h-8zM192 537h8v1h-8zM200 537h8v1h-8zM208 537h8v1h-8zM216 537h8v1h-8zM224 537h8v1h-8zM232 537h8v1h-8zM240 537h8v1h-8zM248 537h8v1h-8zM256 537h8v1h-8zM264 537h8v1h-8zM272 537h8v1h-8zM96 538h8v1h-8zM104 538h8v1h-8zM112 538h8v1h-8zM120 538h8v1h-8zM128 538h8v1h-8zM136 538h8v1h-8zM144 538h8v1h-8zM152 538h8v1h-8zM160 538h8v1h-8zM168 538h8v1h-8zM176 538h8v1h-8zM184 538h8v1h-8zM192 538h8v1h-8zM200 538h8v1h-8zM208 538h8v1h-8zM216 538h8v1h-8zM224 538h8v1h-8zM232 538h8v1h-8zM240 538h8v1h-8zM248 538h8v1h-8zM256 538h8v1h-8zM264 538h8v1h-8zM272 538h8v1h-8zM96 539h8v1h-8zM104 539h8v1h-8zM112 539h8v1h-8zM120 539h8v1h-8zM128 539h8v1h-8zM136 539h8v1h-8zM144 539h8v1h-8zM152 539h8v1h-8zM160 539h8v1h-8zM168 539h8v1h-8zM176 539h8v1h-8zM184 539h8v1h-8zM192 539h8v1h-8zM200 539h8v1h-8zM208 539h8v1h-8zM216 539h8v1h-8zM224 539h8v1h-8zM232 539h8v1h-8zM240 539h8v1h-8zM248 539h8v1h-8zM256 539h8v1h-8zM264 539h8v1h-8zM272 539h8v1h-8zM96 540h8v1h-8zM104 540h8v1h-8zM112 540h8v1h-8zM120 540h8v1h-8zM128 540h8v1h-8zM136 540h8v1h-8zM144 540h8v1h-8zM152 540h8v1h-8zM160 540h8v1h-8zM168 540h8v1h-8zM176 540h8v1h-8zM184 540h8v1h-8zM192 540h8v1h-8zM200 540h8v1h-8zM208 540h8v1h-8zM216 540h8v1h-8zM224 540h8v1h-8zM232 540h8v1h-8zM240 540h8v1h-8zM248 540h8v1h-8zM256 540h8v1h-8zM264 540h8v1h-8zM272 540h8v1h-8zM96 541h8v1h-8zM104 541h8v1h-8zM112 541h8v1h-8zM120 541h8v1h-8zM128 541h8v1h-8zM136 541h8v1h-8zM144 541h8v1h-8zM152 541h8v1h-8zM160 541h8v1h-8zM168 541h8v1h-8zM176 541h8v1h-8zM184 541h8v1h-8zM192 541h8v1h-8zM200 541h8v1h-8zM208 541h8v1h-8zM216 541h8v1h-8zM224 541h8v1h-8zM232 541h8v1h-8zM240 541h8v1h-8zM248 541h8v1h-8zM256 541h8v1h-8zM264 541h8v1h-8zM272 541h8v1h-8zM96 542h8v1h-8zM104 542h8v1h-8zM112 542h8v1h-8zM120 542h8v1h-8zM128 542h8v1h-8zM136 542h8v1h-8zM144 542h8v1h-8zM152 542h8v1h-8zM160 542h8v1h-8zM168 542h8v1h-8zM176 542h8v1h-8zM184 542h8v1h-8zM192 542h8v1h-8zM200 542h8v1h-8zM208 542h8v1h-8zM216 542h8v1h-8zM224 542h8v1h-8zM232 542h8v1h-8zM240 542h8v1h-8zM248 542h8v1h-8zM256 542h8v1h-8zM264 542h8v1h-8zM96 543h8v1h-8zM104 543h8v1h-8zM112 543h8v1h-8zM120 543h8v1h-8zM96 544h8v1h-8zM104 544h8v1h-8zM104 545h8v1h-8zM112 545h8v1h-8zM120 545h8v1h-8zM128 545h8v1h-8zM136 545h8v1h-8zM144 545h8v1h-8zM152 545h8v1h-8zM160 545h8v1h-8zM168 545h8v1h-8zM176 545h8v1h-8zM184 545h8v1h-8zM192 545h8v1h-8zM200 545h8v1h-8zM208 545h8v1h-8zM216 545h8v1h-8zM224 545h8v1h-8zM232 545h8v1h-8zM240 545h8v1h-8zM248 545h8v1h-8zM256 545h8v1h-8zM264 545h8v1h-8zM272 545h8v1h-8zM104 546h8v1h-8zM112 546h8v1h-8zM120 546h8v1h-8zM128 546h8v1h-8zM136 546h8v1h-8zM144 546h8v1h-8zM152 546h8v1h-8zM160 546h8v1h-8zM168 546h8v1h-8zM176 546h8v1h-8zM184 546h8v1h-8zM192 546h8v1h-8zM200 546h8v1h-8zM208 546h8v1h-8zM104 547h8v1h-8zM112 547h8v1h-8zM120 547h8v1h-8zM128 547h8v1h-8zM136 547h8v1h-8zM144 547h8v1h-8zM152 547h8v1h-8zM160 547h8v1h-8zM168 547h8v1h-8zM176 547h8v1h-8zM184 547h8v1h-8zM192 547h8v1h-8zM200 547h8v1h-8zM208 547h8v1h-8zM112 548h8v1h-8zM120 548h8v1h-8zM128 548h8v1h-8zM136 548h8v1h-8zM144 548h8v1h-8zM152 548h8v1h-8zM160 548h8v1h-8zM168 548h8v1h-8zM176 548h8v1h-8zM184 548h8v1h-8zM192 548h8v1h-8zM200 548h8v1h-8zM208 548h8v1h-8zM216 548h8v1h-8zM224 548h8v1h-8zM232 548h8v1h-8zM240 548h8v1h-8zM248 548h8v1h-8zM256 548h8v1h-8zM264 548h8v1h-8zM272 548h8v1h-8zM112 549h8v1h-8zM120 549h8v1h-8zM128 549h8v1h-8zM136 549h8v1h-8zM144 549h8v1h-8zM152 549h8v1h-8zM160 549h8v1h-8zM168 549h8v1h-8zM176 549h8v1h-8zM184 549h8v1h-8zM192 549h8v1h-8zM200 549h8v1h-8zM208 549h8v1h-8zM216 549h8v1h-8zM224 549h8v1h-8zM232 549h8v1h-8zM240 549h8v1h-8zM248 549h8v1h-8zM256 549h8v1h-8zM264 549h8v1h-8zM272 549h8v1h-8zM112 550h8v1h-8zM120 550h8v1h-8zM128 550h8v1h-8zM136 550h8v1h-8zM144 550h8v1h-8zM152 550h8v1h-8zM160 550h8v1h-8zM168 550h8v1h-8zM176 550h8v1h-8zM184 550h8v1h-8zM192 550h8v1h-8zM200 550h8v1h-8zM208 550h8v1h-8zM216 550h8v1h-8zM224 550h8v1h-8zM232 550h8v1h-8zM240 550h8v1h-8zM248 550h8v1h-8zM256 550h8v1h-8zM264 550h8v1h-8zM272 550h8v1h-8zM112 551h8v1h-8zM120 551h8v1h-8zM128 551h8v1h-8zM136 551h8v1h-8zM144 551h8v1h-8zM152 551h8v1h-8zM160 551h8v1h-8zM168 551h8v1h-8zM176 551h8v1h-8zM184 551h8v1h-8zM192 551h8v1h-8zM200 551h8v1h-8zM208 551h8v1h-8zM216 551h8v1h-8zM224 551h8v1h-8zM232 551h8v1h-8zM240 551h8v1h-8zM248 551h8v1h-8zM256 551h8v1h-8zM264 551h8v1h-8zM272 551h8v1h-8zM112 552h8v1h-8zM120 552h8v1h-8zM128 552h8v1h-8zM136 552h8v1h-8zM144 552h8v1h-8zM152 552h8v1h-8zM160 552h8v1h-8zM168 552h8v1h-8zM176 552h8v1h-8zM184 552h8v1h-8zM192 552h8v1h-8zM200 552h8v1h-8zM208 552h8v1h-8zM112 553h8v1h-8zM120 553h8v1h-8zM128 553h8v1h-8zM136 553h8v1h-8zM144 553h8v1h-8zM152 553h8v1h-8zM160 553h8v1h-8zM168 553h8v1h-8zM120 554h8v1h-8zM128 554h8v1h-8zM136 554h8v1h-8zM144 554h8v1h-8zM152 554h8v1h-8zM160 554h8v1h-8zM168 554h8v1h-8zM176 554h8v1h-8zM184 554h8v1h-8zM192 554h8v1h-8zM200 554h8v1h-8zM208 554h8v1h-8zM216 554h8v1h-8zM224 554h8v1h-8zM232 554h8v1h-8zM240 554h8v1h-8zM248 554h8v1h-8zM256 554h8v1h-8zM264 554h8v1h-8zM272 554h8v1h-8zM128 555h8v1h-8zM136 555h8v1h-8zM144 555h8v1h-8zM152 555h8v1h-8zM160 555h8v1h-8zM168 555h8v1h-8zM176 555h8v1h-8zM184 555h8v1h-8zM192 555h8v1h-8zM200 555h8v1h-8zM208 555h8v1h-8zM216 555h8v1h-8z"/><path fill="#D55744" d="M224 555h8v1h-8zM232 555h8v1h-8zM240 555h8v1h-8zM248 555h8v1h-8zM256 555h8v1h-8zM264 555h8v1h-8zM272 555h8v1h-8z"/><path fill="#5196D5" d="M128 556h8v1h-8zM136 556h8v1h-8zM144 556h8v1h-8zM152 556h8v1h-8zM160 556h8v1h-8zM168 556h8v1h-8zM176 556h8v1h-8zM184 556h8v1h-8zM192 556h8v1h-8zM200 556h8v1h-8zM208 556h8v1h-8zM216 556h8v1h-8zM224 556h8v1h-8zM232 556h8v1h-8zM240 556h8v1h-8zM248 556h8v1h-8zM256 556h8v1h-8zM264 556h8v1h-8zM272 556h8v1h-8zM136 557h8v1h-8zM144 557h8v1h-8zM152 557h8v1h-8zM160 557h8v1h-8zM168 557h8v1h-8zM176 557h8v1h-8zM184 557h8v1h-8zM192 557h8v1h-8zM200 557h8v1h-8zM208 557h8v1h-8zM216 557h8v1h-8zM152 558h8v1h-8zM160 558h8v1h-8zM168 558h8v1h-8zM176 558h8v1h-8zM184 558h8v1h-8zM192 558h8v1h-8zM200 558h8v1h-8zM208 558h8v1h-8zM216 558h8v1h-8zM224 558h8v1h-8zM232 558h8v1h-8zM240 558h8v1h-8zM248 558h8v1h-8zM256 558h8v1h-8zM264 558h8v1h-8zM272 558h8v1h-8zM160 559h8v1h-8zM168 559h8v1h-8zM176 559h8v1h-8zM184 559h8v1h-8zM192 559h8v1h-8zM200 559h8v1h-8zM208 559h8v1h-8zM216 559h8v1h-8zM224 559h8v1h-8zM232 559h8v1h-8zM240 559h8v1h-8zM248 559h8v1h-8zM256 559h8v1h-8zM264 559h8v1h-8zM272 559h8v1h-8zM160 560h8v1h-8zM168 560h8v1h-8zM176 560h8v1h-8zM184 560h8v1h-8zM192 560h8v1h-8zM200 560h8v1h-8zM208 560h8v1h-8zM160 561h8v1h-8zM168 561h8v1h-8zM176 561h8v1h-8zM184 561h8v1h-8zM192 561h8v1h-8zM168 562h8v1h-8zM176 562h8v1h-8zM184 562h8v1h-8zM192 562h8v1h-8zM200 562h8v1h-8zM208 562h8v1h-8zM216 562h8v1h-8zM176 563h8v1h-8zM184 563h8v1h-8zM192 563h8v1h-8zM200 563h8v1h-8zM208 563h8v1h-8zM216 563h8v1h-8zM224 563h8v1h-8zM232 563h8v1h-8zM240 563h8v1h-8zM248 563h8v1h-8zM256 563h8v1h-8zM264 563h8v1h-8zM272 563h8v1h-8zM176 564h8v1h-8zM184 564h8v1h-8zM192 564h8v1h-8zM200 564h8v1h-8zM208 564h8v1h-8zM216 564h8v1h-8zM224 564h8v1h-8zM232 564h8v1h-8zM240 564h8v1h-8zM248 564h8v1h-8zM256 564h8v1h-8zM264 564h8v1h-8zM272 564h8v1h-8zM176 565h8v1h-8zM184 565h8v1h-8zM192 565h8v1h-8zM200 565h8v1h-8zM208 565h8v1h-8zM216 565h8v1h-8zM176 566h8v1h-8zM184 566h8v1h-8zM192 566h8v1h-8zM200 566h8v1h-8zM208 566h8v1h-8zM216 566h8v1h-8zM176 567h8v1h-8zM184 567h8v1h-8zM192 567h8v1h-8zM200 567h8v1h-8zM208 567h8v1h-8zM176 568h8v1h-8zM184 568h8v1h-8zM192 568h8v1h-8zM200 568h8v1h-8zM208 568h8v1h-8zM176 569h8v1h-8zM184 569h8v1h-8zM192 569h8v1h-8zM216 570h8v1h-8zM224 570h8v1h-8zM232 570h8v1h-8zM240 570h8v1h-8zM248 570h8v1h-8zM256 570h8v1h-8zM264 570h8v1h-8zM272 570h8v1h-8zM216 571h8v1h-8zM224 571h8v1h-8zM232 571h8v1h-8zM240 571h8v1h-8zM248 571h8v1h-8zM256 571h8v1h-8zM264 571h8v1h-8zM272 571h8v1h-8zM216 572h8v1h-8zM224 572h8v1h-8zM232 572h8v1h-8zM240 572h8v1h-8zM248 572h8v1h-8zM256 572h8v1h-8zM264 572h8v1h-8zM272 572h8v1h-8zM216 573h8v1h-8zM224 573h8v1h-8zM232 573h8v1h-8zM240 573h8v1h-8zM248 573h8v1h-8zM256 573h8v1h-8zM264 573h8v1h-8zM272 573h8v1h-8zM216 574h8v1h-8zM224 574h8v1h-8zM232 574h8v1h-8zM240 574h8v1h-8zM248 574h8v1h-8zM256 574h8v1h-8zM264 574h8v1h-8zM272 574h8v1h-8zM216 575h8v1h-8z"/><path fill="#EE89C9" d="M224 575h8v1h-8zM232 575h8v1h-8zM240 575h8v1h-8zM248 575h8v1h-8zM256 575h8v1h-8zM264 575h8v1h-8zM272 575h8v1h-8z"/><path fill="#5196D5" d="M216 576h8v1h-8zM216 577h8v1h-8zM216 578h8v1h-8zM216 579h8v1h-8zM224 580h8v1h-8zM232 580h8v1h-8zM240 580h8v1h-8z"/><path fill="#64C97A" d="M248 580h8v1h-8zM256 580h8v1h-8zM264 580h8v1h-8zM272 580h8v1h-8z"/><path fill="#5196D5" d="M224 581h8v1h-8zM232 581h8v1h-8zM240 581h8v1h-8zM248 581h8v1h-8zM256 581h8v1h-8zM264 581h8v1h-8zM272 581h8v1h-8zM224 582h8v1h-8zM232 582h8v1h-8zM240 582h8v1h-8zM248 582h8v1h-8zM256 582h8v1h-8zM264 582h8v1h-8zM272 582h8v1h-8zM224 583h8v1h-8zM232 583h8v1h-8zM240 583h8v1h-8zM248 583h8v1h-8zM256 583h8v1h-8zM264 583h8v1h-8zM272 583h8v1h-8zM224 584h8v1h-8zM232 584h8v1h-8zM240 584h8v1h-8zM248 584h8v1h-8zM256 584h8v1h-8zM264 584h8v1h-8zM272 584h8v1h-8zM224 585h8v1h-8zM232 585h8v1h-8zM240 585h8v1h-8zM248 585h8v1h-8zM256 585h8v1h-8zM264 585h8v1h-8zM272 585h8v1h-8zM224 586h8v1h-8zM232 586h8v1h-8zM240 586h8v1h-8zM248 586h8v1h-8zM256 586h8v1h-8zM264 586h8v1h-8zM272 586h8v1h-8zM224 587h8v1h-8zM232 587h8v1h-8zM240 587h8v1h-8zM248 587h8v1h-8zM256 587h8v1h-8zM264 587h8v1h-8zM272 587h8v1h-8zM224 588h8v1h-8zM232 588h8v1h-8zM240 588h8v1h-8zM248 588h8v1h-8zM256 588h8v1h-8zM264 588h8v1h-8zM272 588h8v1h-8zM224 589h8v1h-8zM232 589h8v1h-8zM240 589h8v1h-8zM248 589h8v1h-8zM256 589h8v1h-8zM264 589h8v1h-8zM272 589h8v1h-8zM224 590h8v1h-8zM232 590h8v1h-8zM240 590h8v1h-8zM248 590h8v1h-8zM256 590h8v1h-8zM264 590h8v1h-8zM272 590h8v1h-8zM224 591h8v1h-8zM232 591h8v1h-8zM240 591h8v1h-8zM248 591h8v1h-8zM256 591h8v1h-8zM264 591h8v1h-8zM272 591h8v1h-8zM224 592h8v1h-8zM232 592h8v1h-8zM240 592h8v1h-8zM248 592h8v1h-8zM256 592h8v1h-8zM264 592h8v1h-8zM272 592h8v1h-8zM224 593h8v1h-8zM232 593h8v1h-8zM240 593h8v1h-8zM248 593h8v1h-8zM256 593h8v1h-8zM264 593h8v1h-8zM224 594h8v1h-8zM232 594h8v1h-8zM224 595h8v1h-8zM232 595h8v1h-8zM224 596h8v1h-8zM232 596h8v1h-8zM240 597h8v1h-8zM248 597h8v1h-8zM256 597h8v1h-8zM264 597h8v1h-8zM272 597h8v1h-8zM240 598h8v1h-8zM248 598h8v1h-8zM256 598h8v1h-8zM264 598h8v1h-8zM272 598h8v1h-8zM240 599h8v1h-8zM248 599h8v1h-8zM256 599h8v1h-8zM264 599h8v1h-8zM272 599h8v1h-8zM240 600h8v1h-8zM248 600h8v1h-8zM256 600h8v1h-8zM264 600h8v1h-8zM272 600h8v1h-8zM248 601h8v1h-8zM256 601h8v1h-8zM264 601h8v1h-8zM272 601h8v1h-8zM248 602h8v1h-8zM256 602h8v1h-8zM264 602h8v1h-8zM272 602h8v1h-8zM256 603h8v1h-8zM264 603h8v1h-8zM272 603h8v1h-8zM264 604h8v1h-8zM272 604h8v1h-8zM272 605h8v1h-8zM272 606h8v1h-8z"/><path fill="#EE89C9" d="M0 607h8v1H0z"/><path fill="#64C97A" d="M8 607h8v1H8z"/><path fill="#EE89C9" d="M16 608h8v1h-8zM16 609h8v1h-8zM24 610h8v1h-8zM32 610h8v1h-8zM40 610h8v1h-8zM48 610h8v1h-8z"/><path fill="#64C97A" d="M56 610h8v1h-8zM64 610h8v1h-8zM72 610h8v1h-8zM80 610h8v1h-8zM88 610h8v1h-8zM96 610h8v1h-8zM104 610h8v1h-8zM112 610h8v1h-8z"/><path fill="#5196D5" d="M120 610h8v1h-8zM128 610h8v1h-8zM136 610h8v1h-8zM144 610h8v1h-8zM152 610h8v1h-8zM160 610h8v1h-8zM168 610h8v1h-8zM176 610h8v1h-8zM184 610h8v1h-8zM192 610h8v1h-8zM200 610h8v1h-8zM208 610h8v1h-8zM216 610h8v1h-8z"/><path fill="#FEFF95" d="M224 610h8v1h-8zM232 610h8v1h-8zM240 610h8v1h-8z"/><path fill="#64C97A" d="M248 610h8v1h-8zM256 610h8v1h-8zM264 610h8v1h-8zM272 610h8v1h-8z"/><path fill="#EE89C9" d="M24 611h8v1h-8zM32 611h8v1h-8zM40 611h8v1h-8zM48 612h8v1h-8z"/><path fill="#D55744" d="M56 612h8v1h-8zM64 612h8v1h-8zM72 612h8v1h-8z"/><path fill="#EE89C9" d="M80 612h8v1h-8zM88 612h8v1h-8zM96 612h8v1h-8z"/><path fill="#5196D5" d="M104 612h8v1h-8zM112 612h8v1h-8zM120 612h8v1h-8zM128 612h8v1h-8zM136 612h8v1h-8zM144 612h8v1h-8zM152 612h8v1h-8zM160 612h8v1h-8z"/><path fill="#D55744" d="M168 612h8v1h-8zM176 612h8v1h-8zM184 612h8v1h-8zM192 612h8v1h-8zM200 612h8v1h-8zM208 612h8v1h-8zM216 612h8v1h-8z"/><path fill="#EE89C9" d="M88 613h8v1h-8zM96 614h8v1h-8zM104 614h8v1h-8zM112 614h8v1h-8zM120 614h8v1h-8zM128 614h8v1h-8zM136 614h8v1h-8zM144 614h8v1h-8zM152 614h8v1h-8zM160 614h8v1h-8zM168 614h8v1h-8zM176 614h8v1h-8zM184 614h8v1h-8zM192 614h8v1h-8zM200 614h8v1h-8zM208 614h8v1h-8zM216 614h8v1h-8zM224 614h8v1h-8zM232 614h8v1h-8zM240 614h8v1h-8zM248 614h8v1h-8zM256 614h8v1h-8zM264 614h8v1h-8zM272 614h8v1h-8zM128 615h8v1h-8zM136 615h8v1h-8zM144 615h8v1h-8zM152 615h8v1h-8zM160 615h8v1h-8zM168 615h8v1h-8zM176 615h8v1h-8zM184 615h8v1h-8zM192 615h8v1h-8zM200 615h8v1h-8zM208 615h8v1h-8zM216 615h8v1h-8z"/><path fill="#925CB1" d="M224 615h8v1h-8zM232 615h8v1h-8zM240 615h8v1h-8zM248 615h8v1h-8zM256 615h8v1h-8zM264 615h8v1h-8zM272 615h8v1h-8z"/><path fill="#EE89C9" d="M136 616h8v1h-8zM144 616h8v1h-8zM152 616h8v1h-8zM160 616h8v1h-8zM168 616h8v1h-8zM176 616h8v1h-8zM184 616h8v1h-8zM192 616h8v1h-8zM200 616h8v1h-8zM208 616h8v1h-8zM216 616h8v1h-8zM216 617h8v1h-8zM224 617h8v1h-8zM232 617h8v1h-8zM240 617h8v1h-8zM248 617h8v1h-8zM256 617h8v1h-8zM264 617h8v1h-8z"/><path fill="#FEFF95" d="M272 617h8v1h-8z"/><path fill="#EE89C9" d="M216 618h8v1h-8zM224 618h8v1h-8zM232 618h8v1h-8zM240 618h8v1h-8zM248 618h8v1h-8zM256 618h8v1h-8zM264 618h8v1h-8zM272 618h8v1h-8zM216 619h8v1h-8zM224 619h8v1h-8zM232 619h8v1h-8zM240 619h8v1h-8zM248 619h8v1h-8zM256 619h8v1h-8zM264 619h8v1h-8zM272 619h8v1h-8zM224 620h8v1h-8zM232 620h8v1h-8zM240 620h8v1h-8zM248 620h8v1h-8zM256 620h8v1h-8zM264 620h8v1h-8zM272 620h8v1h-8zM224 621h8v1h-8zM232 621h8v1h-8zM240 621h8v1h-8zM248 621h8v1h-8zM256 621h8v1h-8zM264 621h8v1h-8zM272 621h8v1h-8zM224 622h8v1h-8zM232 622h8v1h-8zM240 622h8v1h-8zM248 622h8v1h-8zM256 622h8v1h-8zM264 622h8v1h-8zM272 622h8v1h-8zM224 623h8v1h-8zM232 623h8v1h-8zM240 623h8v1h-8zM248 623h8v1h-8zM256 623h8v1h-8zM264 623h8v1h-8zM272 623h8v1h-8z"/></svg>