<svg width="280" height="529" xmlns="http://www.w3.org/2000/svg"><path stroke="#aaa" d="M4 0v529M12 0v529M20 0v529M28 0v529M36 0v529M44 0v529M52 0v529M60 0v529M68 0v529M76 0v529M84 0v529M92 0v529M100 0v529M108 0v529M116 0v529M124 0v529M132 0v529M140 0v529M148 0v529M156 0v529M164 0v529M172 0v529M180 0v529M188 0v529M196 0v529M204 0v529M212 0v529M220 0v529M228 0v529M236 0v529M244 0v529M252 0v529M260 0v529M268 0v529M276 0v529"/><path fill="#c2d1c5" d="M0 0h8v1H0zM8 0h8v1H8zM16 0h8v1h-8zM0 1h8v1H0zM16 2h8v1h-8zM24 2h8v1h-8zM32 2h8v1h-8zM40 2h8v1h-8zM48 2h8v1h-8zM56 2h8v1h-8zM64 2h8v1h-8zM16 3h8v1h-8zM24 3h8v1h-8zM32 3h8v1h-8z"/><path fill="#e4d7e4" d="M40 3h8v1h-8zM48 3h8v1h-8z"/><path fill="#b5c3ce" d="M56 3h8v1h-8zM64 3h8v1h-8zM72 3h8v1h-8zM80 3h8v1h-8zM88 3h8v1h-8zM96 3h8v1h-8zM104 3h8v1h-8zM112 3h8v1h-8zM120 3h8v1h-8zM128 3h8v1h-8zM136 3h8v1h-8zM144 3h8v1h-8zM152 3h8v1h-8zM160 3h8v1h-8zM168 3h8v1h-8zM176 3h8v1h-8zM184 3h8v1h-8zM192 3h8v1h-8zM200 3h8v1h-8zM208 3h8v1h-8zM216 3h8v1h-8zM224 3h8v1h-8zM232 3h8v1h-8zM240 3h8v1h-8zM248 3h8v1h-8zM256 3h8v1h-8zM264 3h8v1h-8zM272 3h8v1h-8z"/><path fill="#c2d1c5" d="M16 4h8v1h-8zM24 5h8v1h-8zM32 5h8v1h-8zM40 5h8v1h-8zM48 5h8v1h-8zM56 5h8v1h-8z"/><path fill="#b5c3ce" d="M64 5h8v1h-8zM72 5h8v1h-8zM80 5h8v1h-8zM88 5h8v1h-8zM96 5h8v1h-8zM104 5h8v1h-8zM112 5h8v1h-8zM120 5h8v1h-8zM128 5h8v1h-8zM136 5h8v1h-8zM144 5h8v1h-8zM152 5h8v1h-8zM160 5h8v1h-8zM168 5h8v1h-8zM176 5h8v1h-8zM184 5h8v1h-8zM192 5h8v1h-8zM200 5h8v1h-8zM208 5h8v1h-8zM216 5h8v1h-8zM224 5h8v1h-8zM232 5h8v1h-8z"/><path fill="#c2d1c5" d="M240 5h8v1h-8zM248 5h8v1h-8zM256 5h8v1h-8zM264 5h8v1h-8zM272 5h8v1h-8zM24 6h8v1h-8zM32 6h8v1h-8zM40 6h8v1h-8z"/><path fill="#e9e9de" d="M48 6h8v1h-8zM56 6h8v1h-8zM64 6h8v1h-8z"/><path fill="#c2d1c5" d="M24 7h8v1h-8z"/><path fill="#b5c3ce" d="M32 7h8v1h-8z"/><path fill="#c2d1c5" d="M40 7h8v1h-8zM48 7h8v1h-8z"/><path fill="#e9e9de" d="M56 7h8v1h-8zM64 7h8v1h-8zM72 7h8v1h-8zM80 7h8v1h-8zM88 7h8v1h-8zM96 7h8v1h-8zM104 7h8v1h-8z"/><path fill="#c2d1c5" d="M32 8h8v1h-8zM40 8h8v1h-8zM48 8h8v1h-8zM56 8h8v1h-8zM64 8h8v1h-8zM72 8h8v1h-8zM80 8h8v1h-8zM88 8h8v1h-8zM96 8h8v1h-8zM104 8h8v1h-8zM112 8h8v1h-8z"/><path fill="#e9e9de" d="M120 8h8v1h-8zM128 8h8v1h-8zM136 8h8v1h-8zM144 8h8v1h-8zM152 8h8v1h-8zM160 8h8v1h-8zM168 8h8v1h-8z"/><path fill="#c2d1c5" d="M176 8h8v1h-8zM184 8h8v1h-8zM192 8h8v1h-8zM200 8h8v1h-8zM208 8h8v1h-8zM216 8h8v1h-8zM32 9h8v1h-8zM40 9h8v1h-8zM48 9h8v1h-8z"/><path fill="#e9e9de" d="M56 9h8v1h-8zM64 9h8v1h-8zM72 9h8v1h-8zM80 9h8v1h-8zM88 9h8v1h-8zM96 9h8v1h-8zM104 9h8v1h-8z"/><path fill="#c2d1c5" d="M64 10h8v1h-8zM72 10h8v1h-8zM80 10h8v1h-8zM88 10h8v1h-8zM96 10h8v1h-8zM104 10h8v1h-8zM112 10h8v1h-8zM120 10h8v1h-8zM128 10h8v1h-8zM136 10h8v1h-8zM144 10h8v1h-8zM152 10h8v1h-8zM160 10h8v1h-8zM168 10h8v1h-8zM176 10h8v1h-8zM184 10h8v1h-8zM192 10h8v1h-8zM200 10h8v1h-8zM208 10h8v1h-8zM216 10h8v1h-8zM224 10h8v1h-8zM232 10h8v1h-8zM240 10h8v1h-8zM248 10h8v1h-8zM256 10h8v1h-8zM264 10h8v1h-8zM272 10h8v1h-8zM64 11h8v1h-8zM72 11h8v1h-8zM80 11h8v1h-8zM88 11h8v1h-8zM96 11h8v1h-8zM104 11h8v1h-8zM112 11h8v1h-8zM120 11h8v1h-8zM128 11h8v1h-8zM136 11h8v1h-8zM144 11h8v1h-8zM152 11h8v1h-8zM160 11h8v1h-8zM168 11h8v1h-8zM176 11h8v1h-8zM184 11h8v1h-8zM192 11h8v1h-8zM200 11h8v1h-8zM208 11h8v1h-8zM216 11h8v1h-8zM64 12h8v1h-8zM72 12h8v1h-8zM80 12h8v1h-8zM88 12h8v1h-8zM96 12h8v1h-8zM104 12h8v1h-8zM112 12h8v1h-8zM120 12h8v1h-8zM128 12h8v1h-8zM136 12h8v1h-8zM144 12h8v1h-8zM152 12h8v1h-8zM160 12h8v1h-8zM168 12h8v1h-8zM176 12h8v1h-8zM184 12h8v1h-8z"/><path fill="#b5c3ce" d="M192 12h8v1h-8zM200 12h8v1h-8zM208 12h8v1h-8zM216 12h8v1h-8zM224 12h8v1h-8zM232 12h8v1h-8zM240 12h8v1h-8zM248 12h8v1h-8zM256 12h8v1h-8zM264 12h8v1h-8zM272 12h8v1h-8z"/><path fill="#c2d1c5" d="M72 13h8v1h-8zM80 13h8v1h-8zM88 13h8v1h-8z"/><path fill="#e9e9de" d="M96 13h8v1h-8zM104 13h8v1h-8zM112 13h8v1h-8zM120 13h8v1h-8zM128 13h8v1h-8zM136 13h8v1h-8zM144 13h8v1h-8zM152 13h8v1h-8zM160 13h8v1h-8zM168 13h8v1h-8zM176 13h8v1h-8zM184 13h8v1h-8zM192 13h8v1h-8zM200 13h8v1h-8zM208 13h8v1h-8zM216 13h8v1h-8zM224 13h8v1h-8zM232 13h8v1h-8zM240 13h8v1h-8zM248 13h8v1h-8zM256 13h8v1h-8zM264 13h8v1h-8zM272 13h8v1h-8z"/><path fill="#c2d1c5" d="M72 14h8v1h-8z"/><path fill="#c9b1ad" d="M80 14h8v1h-8zM88 14h8v1h-8zM96 14h8v1h-8zM104 14h8v1h-8zM112 14h8v1h-8zM120 14h8v1h-8zM128 14h8v1h-8zM136 14h8v1h-8zM144 14h8v1h-8zM152 14h8v1h-8zM160 14h8v1h-8zM168 14h8v1h-8zM176 14h8v1h-8zM184 14h8v1h-8zM192 14h8v1h-8zM200 14h8v1h-8zM208 14h8v1h-8z"/><path fill="#c2d1c5" d="M88 15h8v1h-8zM96 15h8v1h-8zM104 15h8v1h-8zM112 15h8v1h-8zM120 15h8v1h-8zM128 15h8v1h-8zM136 15h8v1h-8zM144 15h8v1h-8zM152 15h8v1h-8zM160 15h8v1h-8zM168 15h8v1h-8zM176 15h8v1h-8zM184 15h8v1h-8zM192 15h8v1h-8zM200 15h8v1h-8zM208 15h8v1h-8zM216 15h8v1h-8zM224 15h8v1h-8zM232 15h8v1h-8z"/><path fill="#b5c3ce" d="M240 15h8v1h-8zM248 15h8v1h-8zM256 15h8v1h-8zM264 15h8v1h-8zM272 15h8v1h-8z"/><path fill="#c2d1c5" d="M88 16h8v1h-8zM96 16h8v1h-8zM104 16h8v1h-8zM112 16h8v1h-8zM120 16h8v1h-8z"/><path fill="#b5c3ce" d="M128 16h8v1h-8zM136 16h8v1h-8zM144 16h8v1h-8zM152 16h8v1h-8zM160 16h8v1h-8zM168 16h8v1h-8zM176 16h8v1h-8zM184 16h8v1h-8zM192 16h8v1h-8zM200 16h8v1h-8zM208 16h8v1h-8zM216 16h8v1h-8zM224 16h8v1h-8zM232 16h8v1h-8zM240 16h8v1h-8zM248 16h8v1h-8zM256 16h8v1h-8zM264 16h8v1h-8zM272 16h8v1h-8z"/><path fill="#c2d1c5" d="M96 17h8v1h-8zM104 17h8v1h-8zM112 17h8v1h-8zM120 17h8v1h-8zM128 17h8v1h-8zM136 17h8v1h-8zM144 17h8v1h-8zM152 17h8v1h-8zM160 17h8v1h-8zM168 17h8v1h-8zM176 17h8v1h-8zM184 17h8v1h-8zM192 17h8v1h-8zM200 17h8v1h-8zM208 17h8v1h-8zM216 17h8v1h-8zM224 17h8v1h-8zM232 17h8v1h-8zM240 17h8v1h-8zM248 17h8v1h-8zM256 17h8v1h-8zM264 17h8v1h-8zM272 17h8v1h-8zM96 18h8v1h-8zM104 18h8v1h-8zM112 18h8v1h-8zM120 18h8v1h-8zM128 18h8v1h-8zM136 18h8v1h-8zM144 18h8v1h-8zM152 18h8v1h-8zM160 18h8v1h-8zM168 18h8v1h-8zM176 18h8v1h-8zM184 18h8v1h-8zM192 18h8v1h-8zM200 18h8v1h-8zM208 18h8v1h-8zM216 18h8v1h-8zM224 18h8v1h-8zM232 18h8v1h-8z"/><path fill="#e9e9de" d="M240 18h8v1h-8zM248 18h8v1h-8zM256 18h8v1h-8zM264 18h8v1h-8zM272 18h8v1h-8z"/><path fill="#c2d1c5" d="M96 19h8v1h-8zM104 19h8v1h-8zM112 19h8v1h-8zM120 19h8v1h-8zM128 19h8v1h-8zM136 19h8v1h-8zM144 19h8v1h-8zM152 19h8v1h-8zM160 19h8v1h-8z"/><path fill="#b5c3ce" d="M168 19h8v1h-8zM176 19h8v1h-8zM184 19h8v1h-8zM192 19h8v1h-8zM200 19h8v1h-8zM208 19h8v1h-8zM216 19h8v1h-8zM224 19h8v1h-8zM232 19h8v1h-8zM240 19h8v1h-8zM248 19h8v1h-8zM256 19h8v1h-8zM264 19h8v1h-8zM272 19h8v1h-8z"/><path fill="#c2d1c5" d="M104 20h8v1h-8zM112 20h8v1h-8zM120 20h8v1h-8zM128 20h8v1h-8zM136 20h8v1h-8zM144 20h8v1h-8zM152 20h8v1h-8zM160 20h8v1h-8zM168 20h8v1h-8zM176 20h8v1h-8zM184 20h8v1h-8zM192 20h8v1h-8zM200 20h8v1h-8zM208 20h8v1h-8zM216 20h8v1h-8zM224 20h8v1h-8zM232 20h8v1h-8zM240 20h8v1h-8zM248 20h8v1h-8zM256 20h8v1h-8zM264 20h8v1h-8zM112 21h8v1h-8zM120 21h8v1h-8zM128 21h8v1h-8zM136 21h8v1h-8zM144 21h8v1h-8zM152 21h8v1h-8zM160 21h8v1h-8zM168 21h8v1h-8zM176 21h8v1h-8zM184 21h8v1h-8zM192 21h8v1h-8zM200 21h8v1h-8zM208 21h8v1h-8zM216 21h8v1h-8zM224 21h8v1h-8zM232 21h8v1h-8zM240 21h8v1h-8zM248 21h8v1h-8zM256 21h8v1h-8zM264 21h8v1h-8zM272 21h8v1h-8zM112 22h8v1h-8zM120 22h8v1h-8z"/><path fill="#e9e9de" d="M128 22h8v1h-8zM136 22h8v1h-8zM144 22h8v1h-8zM152 22h8v1h-8zM160 22h8v1h-8zM168 22h8v1h-8zM176 22h8v1h-8zM184 22h8v1h-8zM192 22h8v1h-8zM200 22h8v1h-8zM208 22h8v1h-8zM216 22h8v1h-8zM224 22h8v1h-8zM232 22h8v1h-8zM240 22h8v1h-8zM248 22h8v1h-8zM256 22h8v1h-8zM264 22h8v1h-8zM272 22h8v1h-8z"/><path fill="#c2d1c5" d="M216 23h8v1h-8zM224 23h8v1h-8zM224 24h8v1h-8zM232 24h8v1h-8zM240 24h8v1h-8zM248 24h8v1h-8zM256 24h8v1h-8zM264 24h8v1h-8zM272 24h8v1h-8zM224 25h8v1h-8zM232 25h8v1h-8zM240 25h8v1h-8zM248 25h8v1h-8zM256 25h8v1h-8zM264 25h8v1h-8zM272 25h8v1h-8zM224 26h8v1h-8zM232 26h8v1h-8zM240 26h8v1h-8zM248 26h8v1h-8zM256 26h8v1h-8zM264 26h8v1h-8z"/><path fill="#b5c3ce" d="M272 26h8v1h-8z"/><path fill="#c2d1c5" d="M224 27h8v1h-8zM232 27h8v1h-8zM240 27h8v1h-8zM248 27h8v1h-8zM256 27h8v1h-8zM264 27h8v1h-8zM224 28h8v1h-8zM232 28h8v1h-8zM232 29h8v1h-8zM240 29h8v1h-8zM248 29h8v1h-8zM256 29h8v1h-8zM264 29h8v1h-8zM272 29h8v1h-8z"/><path fill="#c9b1ad" d="M0 30h8v1H0zM8 30h8v1H8zM16 30h8v1h-8zM24 30h8v1h-8zM32 30h8v1h-8zM40 30h8v1h-8zM48 30h8v1h-8zM56 30h8v1h-8zM64 30h8v1h-8zM72 30h8v1h-8zM80 30h8v1h-8zM88 30h8v1h-8zM96 30h8v1h-8zM104 30h8v1h-8zM112 30h8v1h-8zM120 30h8v1h-8zM128 30h8v1h-8zM136 30h8v1h-8zM144 30h8v1h-8zM152 30h8v1h-8zM160 30h8v1h-8zM168 30h8v1h-8zM176 30h8v1h-8zM184 30h8v1h-8zM192 30h8v1h-8zM200 30h8v1h-8zM208 30h8v1h-8zM216 30h8v1h-8zM224 30h8v1h-8zM232 30h8v1h-8zM240 30h8v1h-8zM248 30h8v1h-8zM256 30h8v1h-8zM264 30h8v1h-8zM272 30h8v1h-8zM0 31h8v1H0zM8 31h8v1H8z"/><path fill="#e9e9de" d="M16 31h8v1h-8z"/><path fill="#c9b1ad" d="M8 32h8v1H8zM16 32h8v1h-8zM16 33h8v1h-8zM24 33h8v1h-8zM32 33h8v1h-8zM40 33h8v1h-8zM16 34h8v1h-8zM24 34h8v1h-8zM32 34h8v1h-8zM40 34h8v1h-8zM16 35h8v1h-8zM24 35h8v1h-8zM32 35h8v1h-8zM40 35h8v1h-8zM16 36h8v1h-8zM24 36h8v1h-8zM32 36h8v1h-8zM40 36h8v1h-8zM16 37h8v1h-8zM24 37h8v1h-8zM32 37h8v1h-8zM40 37h8v1h-8zM16 38h8v1h-8zM24 38h8v1h-8zM32 38h8v1h-8zM40 38h8v1h-8zM16 39h8v1h-8zM24 39h8v1h-8zM32 39h8v1h-8zM40 39h8v1h-8zM16 40h8v1h-8zM24 40h8v1h-8zM32 40h8v1h-8zM40 40h8v1h-8zM16 41h8v1h-8zM24 41h8v1h-8zM32 41h8v1h-8zM40 41h8v1h-8zM16 42h8v1h-8zM24 42h8v1h-8zM32 42h8v1h-8zM40 42h8v1h-8zM16 43h8v1h-8zM24 43h8v1h-8zM32 43h8v1h-8zM40 43h8v1h-8zM16 44h8v1h-8zM24 44h8v1h-8zM32 44h8v1h-8zM40 44h8v1h-8zM16 45h8v1h-8zM24 45h8v1h-8zM32 45h8v1h-8zM40 45h8v1h-8zM16 46h8v1h-8zM24 46h8v1h-8zM32 46h8v1h-8zM40 46h8v1h-8zM16 47h8v1h-8zM24 47h8v1h-8zM32 47h8v1h-8zM40 47h8v1h-8zM16 48h8v1h-8zM24 48h8v1h-8zM32 48h8v1h-8zM40 48h8v1h-8zM16 49h8v1h-8zM24 49h8v1h-8zM32 49h8v1h-8zM40 49h8v1h-8zM16 50h8v1h-8zM24 50h8v1h-8zM32 50h8v1h-8zM40 50h8v1h-8zM16 51h8v1h-8zM24 51h8v1h-8zM32 51h8v1h-8zM40 51h8v1h-8zM16 52h8v1h-8zM24 52h8v1h-8zM32 52h8v1h-8zM40 52h8v1h-8zM16 53h8v1h-8zM24 53h8v1h-8zM32 53h8v1h-8zM40 53h8v1h-8zM16 54h8v1h-8zM24 54h8v1h-8zM32 54h8v1h-8zM40 54h8v1h-8zM16 55h8v1h-8zM24 55h8v1h-8zM32 55h8v1h-8zM40 55h8v1h-8zM16 56h8v1h-8zM24 56h8v1h-8zM32 56h8v1h-8zM40 56h8v1h-8zM16 57h8v1h-8zM24 57h8v1h-8zM32 57h8v1h-8zM40 57h8v1h-8zM16 58h8v1h-8zM24 58h8v1h-8zM32 58h8v1h-8zM40 58h8v1h-8zM16 59h8v1h-8zM24 59h8v1h-8zM32 59h8v1h-8zM40 59h8v1h-8zM16 60h8v1h-8zM24 60h8v1h-8zM32 60h8v1h-8zM40 60h8v1h-8zM16 61h8v1h-8zM24 61h8v1h-8zM32 61h8v1h-8zM40 61h8v1h-8zM16 62h8v1h-8zM16 63h8v1h-8zM16 64h8v1h-8zM16 65h8v1h-8zM16 66h8v1h-8zM24 67h8v1h-8zM32 67h8v1h-8zM40 67h8v1h-8zM48 67h8v1h-8zM56 67h8v1h-8zM64 67h8v1h-8zM72 67h8v1h-8zM80 67h8v1h-8zM88 67h8v1h-8zM24 68h8v1h-8zM32 68h8v1h-8zM40 68h8v1h-8zM48 68h8v1h-8zM56 68h8v1h-8zM24 69h8v1h-8zM32 69h8v1h-8zM40 69h8v1h-8z"/><path fill="#b5c3ce" d="M48 69h8v1h-8zM56 69h8v1h-8zM64 69h8v1h-8zM72 69h8v1h-8zM80 69h8v1h-8zM88 69h8v1h-8zM96 69h8v1h-8zM104 69h8v1h-8zM112 69h8v1h-8zM120 69h8v1h-8z"/><path fill="#c9b1ad" d="M24 70h8v1h-8zM32 70h8v1h-8zM40 70h8v1h-8z"/><path fill="#b5c3ce" d="M48 70h8v1h-8zM56 70h8v1h-8zM64 70h8v1h-8zM72 70h8v1h-8zM80 70h8v1h-8z"/><path fill="#c9b1ad" d="M24 71h8v1h-8zM216 71h8v1h-8zM224 71h8v1h-8zM232 71h8v1h-8zM240 71h8v1h-8zM248 71h8v1h-8zM256 71h8v1h-8zM264 71h8v1h-8zM272 71h8v1h-8zM32 72h8v1h-8zM40 72h8v1h-8zM48 72h8v1h-8zM56 72h8v1h-8zM64 72h8v1h-8zM72 72h8v1h-8zM80 72h8v1h-8zM88 72h8v1h-8zM96 72h8v1h-8zM104 72h8v1h-8zM112 72h8v1h-8zM120 72h8v1h-8zM128 72h8v1h-8zM136 72h8v1h-8zM144 72h8v1h-8zM152 72h8v1h-8zM160 72h8v1h-8zM168 72h8v1h-8zM176 72h8v1h-8zM184 72h8v1h-8zM192 72h8v1h-8zM200 72h8v1h-8zM208 72h8v1h-8zM40 73h8v1h-8zM48 73h8v1h-8zM56 73h8v1h-8zM64 73h8v1h-8zM72 73h8v1h-8zM80 73h8v1h-8zM88 73h8v1h-8zM96 73h8v1h-8zM104 73h8v1h-8zM112 73h8v1h-8zM120 73h8v1h-8zM56 74h8v1h-8zM64 74h8v1h-8zM72 74h8v1h-8zM80 74h8v1h-8zM88 74h8v1h-8zM96 74h8v1h-8zM104 74h8v1h-8zM112 74h8v1h-8zM120 74h8v1h-8zM128 74h8v1h-8zM136 74h8v1h-8zM144 74h8v1h-8zM152 74h8v1h-8zM160 74h8v1h-8zM168 74h8v1h-8zM56 75h8v1h-8zM64 75h8v1h-8z"/><path fill="#b5c3ce" d="M72 75h8v1h-8zM80 75h8v1h-8zM88 75h8v1h-8zM96 75h8v1h-8zM104 75h8v1h-8zM112 75h8v1h-8zM120 75h8v1h-8z"/><path fill="#c9b1ad" d="M128 75h8v1h-8zM136 75h8v1h-8zM144 75h8v1h-8zM152 75h8v1h-8zM160 75h8v1h-8zM168 75h8v1h-8zM176 75h8v1h-8zM184 75h8v1h-8zM192 75h8v1h-8zM200 75h8v1h-8zM208 75h8v1h-8zM56 76h8v1h-8zM64 77h8v1h-8zM72 77h8v1h-8zM80 77h8v1h-8zM88 77h8v1h-8zM96 77h8v1h-8zM104 77h8v1h-8zM112 77h8v1h-8zM120 77h8v1h-8zM128 77h8v1h-8zM136 77h8v1h-8zM144 77h8v1h-8zM152 77h8v1h-8zM160 77h8v1h-8zM168 77h8v1h-8zM176 77h8v1h-8zM184 77h8v1h-8zM192 77h8v1h-8zM200 77h8v1h-8zM208 77h8v1h-8zM216 77h8v1h-8zM224 77h8v1h-8zM232 77h8v1h-8zM240 77h8v1h-8zM248 77h8v1h-8zM256 77h8v1h-8zM264 77h8v1h-8zM272 77h8v1h-8zM64 78h8v1h-8zM72 78h8v1h-8zM80 78h8v1h-8zM88 78h8v1h-8zM96 78h8v1h-8zM104 78h8v1h-8zM112 78h8v1h-8zM120 78h8v1h-8zM128 78h8v1h-8zM136 78h8v1h-8zM144 78h8v1h-8zM152 78h8v1h-8zM160 78h8v1h-8zM168 78h8v1h-8zM176 78h8v1h-8zM184 78h8v1h-8zM192 78h8v1h-8zM200 78h8v1h-8zM208 78h8v1h-8zM64 79h8v1h-8z"/><path fill="#e9e9de" d="M72 79h8v1h-8zM80 79h8v1h-8z"/><path fill="#c9b1ad" d="M88 79h8v1h-8zM96 79h8v1h-8zM104 79h8v1h-8zM112 79h8v1h-8zM120 79h8v1h-8zM128 79h8v1h-8zM136 79h8v1h-8zM144 79h8v1h-8zM152 79h8v1h-8zM160 79h8v1h-8zM168 79h8v1h-8zM176 79h8v1h-8zM184 79h8v1h-8zM192 79h8v1h-8zM200 79h8v1h-8zM208 79h8v1h-8zM216 79h8v1h-8zM224 79h8v1h-8zM232 79h8v1h-8zM240 79h8v1h-8zM248 79h8v1h-8zM256 79h8v1h-8zM264 79h8v1h-8zM272 79h8v1h-8zM72 80h8v1h-8zM80 80h8v1h-8zM88 80h8v1h-8zM96 80h8v1h-8zM104 80h8v1h-8zM112 80h8v1h-8zM120 80h8v1h-8zM128 80h8v1h-8zM136 80h8v1h-8zM144 80h8v1h-8zM152 80h8v1h-8zM160 80h8v1h-8zM168 80h8v1h-8zM176 80h8v1h-8zM184 80h8v1h-8zM192 80h8v1h-8zM200 80h8v1h-8z"/><path fill="#b5c3ce" d="M208 80h8v1h-8zM216 80h8v1h-8zM224 80h8v1h-8zM232 80h8v1h-8zM240 80h8v1h-8zM248 80h8v1h-8zM256 80h8v1h-8zM264 80h8v1h-8zM272 80h8v1h-8z"/><path fill="#c9b1ad" d="M80 81h8v1h-8zM88 81h8v1h-8zM96 81h8v1h-8zM104 81h8v1h-8zM112 81h8v1h-8zM120 81h8v1h-8zM128 81h8v1h-8zM136 81h8v1h-8zM144 81h8v1h-8zM152 81h8v1h-8zM160 81h8v1h-8zM168 81h8v1h-8z"/><path fill="#b5c3ce" d="M176 81h8v1h-8zM184 81h8v1h-8zM192 81h8v1h-8zM200 81h8v1h-8zM208 81h8v1h-8zM216 81h8v1h-8z"/><path fill="#c9b1ad" d="M88 82h8v1h-8zM96 82h8v1h-8zM104 82h8v1h-8zM112 82h8v1h-8zM120 82h8v1h-8zM128 82h8v1h-8zM136 82h8v1h-8zM144 82h8v1h-8zM152 82h8v1h-8zM160 82h8v1h-8zM168 82h8v1h-8zM176 82h8v1h-8zM184 82h8v1h-8zM192 82h8v1h-8zM200 82h8v1h-8zM208 82h8v1h-8zM216 82h8v1h-8zM224 82h8v1h-8zM232 82h8v1h-8zM240 82h8v1h-8zM248 82h8v1h-8zM256 82h8v1h-8zM264 82h8v1h-8zM272 82h8v1h-8zM88 83h8v1h-8zM96 83h8v1h-8zM104 83h8v1h-8zM112 83h8v1h-8zM120 83h8v1h-8zM128 83h8v1h-8zM136 83h8v1h-8zM144 83h8v1h-8zM152 83h8v1h-8zM160 83h8v1h-8zM168 83h8v1h-8zM176 83h8v1h-8zM184 83h8v1h-8zM192 83h8v1h-8zM200 83h8v1h-8zM208 83h8v1h-8zM216 83h8v1h-8zM224 83h8v1h-8zM232 83h8v1h-8zM240 83h8v1h-8zM248 83h8v1h-8zM256 83h8v1h-8zM264 83h8v1h-8zM272 83h8v1h-8zM88 84h8v1h-8zM96 85h8v1h-8zM104 85h8v1h-8zM112 85h8v1h-8zM120 85h8v1h-8zM128 85h8v1h-8zM136 85h8v1h-8zM144 85h8v1h-8zM152 85h8v1h-8zM160 85h8v1h-8zM168 85h8v1h-8zM176 85h8v1h-8zM184 85h8v1h-8zM192 85h8v1h-8zM200 85h8v1h-8zM208 85h8v1h-8zM216 85h8v1h-8zM224 85h8v1h-8zM232 85h8v1h-8zM240 85h8v1h-8zM248 85h8v1h-8zM256 85h8v1h-8zM264 85h8v1h-8zM272 85h8v1h-8zM96 86h8v1h-8zM104 86h8v1h-8zM112 86h8v1h-8zM120 86h8v1h-8zM128 86h8v1h-8zM136 86h8v1h-8zM144 86h8v1h-8zM152 86h8v1h-8zM160 86h8v1h-8zM168 86h8v1h-8zM176 86h8v1h-8zM184 86h8v1h-8zM192 86h8v1h-8zM200 86h8v1h-8zM208 86h8v1h-8zM216 86h8v1h-8zM224 86h8v1h-8zM232 86h8v1h-8zM240 86h8v1h-8zM248 86h8v1h-8zM256 86h8v1h-8zM264 86h8v1h-8zM272 86h8v1h-8zM96 87h8v1h-8zM104 87h8v1h-8zM112 87h8v1h-8zM120 87h8v1h-8zM128 87h8v1h-8zM136 87h8v1h-8zM144 87h8v1h-8zM152 87h8v1h-8zM160 87h8v1h-8zM168 87h8v1h-8zM176 87h8v1h-8zM184 87h8v1h-8zM192 87h8v1h-8zM200 87h8v1h-8zM208 87h8v1h-8zM216 87h8v1h-8zM224 87h8v1h-8zM232 87h8v1h-8zM96 88h8v1h-8zM104 88h8v1h-8zM112 88h8v1h-8zM120 88h8v1h-8zM128 88h8v1h-8zM136 88h8v1h-8zM144 88h8v1h-8zM152 88h8v1h-8zM160 88h8v1h-8zM168 88h8v1h-8zM176 88h8v1h-8zM184 88h8v1h-8zM192 88h8v1h-8zM200 88h8v1h-8zM208 88h8v1h-8zM216 88h8v1h-8zM96 89h8v1h-8zM104 89h8v1h-8zM112 89h8v1h-8zM120 89h8v1h-8zM128 89h8v1h-8zM136 89h8v1h-8zM144 89h8v1h-8zM152 89h8v1h-8zM160 89h8v1h-8zM168 89h8v1h-8zM176 89h8v1h-8zM104 90h8v1h-8z"/><path fill="#b9b9b9" d="M112 90h8v1h-8zM120 90h8v1h-8z"/><path fill="#b5c3ce" d="M128 90h8v1h-8zM136 90h8v1h-8zM144 90h8v1h-8zM152 90h8v1h-8zM160 90h8v1h-8zM168 90h8v1h-8zM176 90h8v1h-8zM184 90h8v1h-8zM192 90h8v1h-8zM200 90h8v1h-8zM208 90h8v1h-8zM216 90h8v1h-8zM224 90h8v1h-8zM232 90h8v1h-8zM240 90h8v1h-8zM248 90h8v1h-8zM256 90h8v1h-8zM264 90h8v1h-8zM272 90h8v1h-8z"/><path fill="#c9b1ad" d="M104 91h8v1h-8zM112 91h8v1h-8zM120 91h8v1h-8zM128 91h8v1h-8zM136 91h8v1h-8zM144 91h8v1h-8zM152 91h8v1h-8zM160 91h8v1h-8zM168 91h8v1h-8zM176 91h8v1h-8zM184 91h8v1h-8zM192 91h8v1h-8zM200 91h8v1h-8zM208 91h8v1h-8zM216 91h8v1h-8zM224 91h8v1h-8zM232 91h8v1h-8zM240 91h8v1h-8zM248 91h8v1h-8zM256 91h8v1h-8zM264 91h8v1h-8zM272 91h8v1h-8zM104 92h8v1h-8zM112 92h8v1h-8zM120 92h8v1h-8zM128 92h8v1h-8zM136 92h8v1h-8zM144 92h8v1h-8zM152 92h8v1h-8zM160 92h8v1h-8zM168 92h8v1h-8zM176 92h8v1h-8zM184 92h8v1h-8zM192 92h8v1h-8zM200 92h8v1h-8zM208 92h8v1h-8zM216 92h8v1h-8zM224 92h8v1h-8zM232 92h8v1h-8zM240 92h8v1h-8zM248 92h8v1h-8zM256 92h8v1h-8zM264 92h8v1h-8zM272 92h8v1h-8zM112 93h8v1h-8zM120 93h8v1h-8zM128 93h8v1h-8zM136 93h8v1h-8zM144 93h8v1h-8zM152 93h8v1h-8zM160 93h8v1h-8zM168 93h8v1h-8zM176 93h8v1h-8zM184 93h8v1h-8zM192 93h8v1h-8zM200 93h8v1h-8zM208 93h8v1h-8zM216 93h8v1h-8zM224 93h8v1h-8zM232 93h8v1h-8zM240 93h8v1h-8zM248 93h8v1h-8zM256 93h8v1h-8zM264 93h8v1h-8zM272 93h8v1h-8zM112 94h8v1h-8zM120 94h8v1h-8zM128 94h8v1h-8zM136 94h8v1h-8zM144 94h8v1h-8zM152 94h8v1h-8zM160 94h8v1h-8zM168 94h8v1h-8zM176 94h8v1h-8zM184 94h8v1h-8zM192 94h8v1h-8zM200 94h8v1h-8zM208 94h8v1h-8zM216 94h8v1h-8zM224 94h8v1h-8zM232 94h8v1h-8zM240 94h8v1h-8zM248 94h8v1h-8zM256 94h8v1h-8zM264 94h8v1h-8zM272 94h8v1h-8zM112 95h8v1h-8zM120 95h8v1h-8zM128 96h8v1h-8zM136 96h8v1h-8zM144 96h8v1h-8zM152 96h8v1h-8zM160 96h8v1h-8zM168 96h8v1h-8zM176 96h8v1h-8zM184 96h8v1h-8zM192 96h8v1h-8zM200 96h8v1h-8zM208 96h8v1h-8zM216 96h8v1h-8zM224 96h8v1h-8zM232 96h8v1h-8zM240 96h8v1h-8zM248 96h8v1h-8zM256 96h8v1h-8zM264 96h8v1h-8zM272 96h8v1h-8zM128 97h8v1h-8zM136 97h8v1h-8zM144 97h8v1h-8zM152 97h8v1h-8zM160 97h8v1h-8zM168 97h8v1h-8zM176 97h8v1h-8zM184 97h8v1h-8zM192 97h8v1h-8zM200 97h8v1h-8zM208 97h8v1h-8zM216 97h8v1h-8zM128 98h8v1h-8zM136 98h8v1h-8zM144 98h8v1h-8zM152 98h8v1h-8zM160 98h8v1h-8zM168 98h8v1h-8zM176 98h8v1h-8zM184 98h8v1h-8zM192 98h8v1h-8zM200 98h8v1h-8zM208 98h8v1h-8zM216 98h8v1h-8zM128 99h8v1h-8zM136 100h8v1h-8zM144 100h8v1h-8zM152 100h8v1h-8zM160 100h8v1h-8zM168 100h8v1h-8zM176 100h8v1h-8zM184 100h8v1h-8zM192 100h8v1h-8zM200 100h8v1h-8zM208 100h8v1h-8zM216 100h8v1h-8zM224 100h8v1h-8zM232 100h8v1h-8zM240 100h8v1h-8zM248 100h8v1h-8zM256 100h8v1h-8zM264 100h8v1h-8zM272 100h8v1h-8zM136 101h8v1h-8zM144 101h8v1h-8zM152 101h8v1h-8zM160 101h8v1h-8zM168 101h8v1h-8zM176 101h8v1h-8zM184 101h8v1h-8zM192 101h8v1h-8zM200 101h8v1h-8zM208 101h8v1h-8zM216 101h8v1h-8zM224 101h8v1h-8zM232 101h8v1h-8zM240 101h8v1h-8zM248 101h8v1h-8zM256 101h8v1h-8zM264 101h8v1h-8zM272 101h8v1h-8zM136 102h8v1h-8zM144 102h8v1h-8zM152 102h8v1h-8zM160 102h8v1h-8zM168 102h8v1h-8zM176 102h8v1h-8zM184 102h8v1h-8zM192 102h8v1h-8zM200 102h8v1h-8zM208 102h8v1h-8zM216 102h8v1h-8zM136 103h8v1h-8zM144 103h8v1h-8zM152 103h8v1h-8zM160 103h8v1h-8zM168 103h8v1h-8zM176 103h8v1h-8zM184 103h8v1h-8zM192 103h8v1h-8zM200 103h8v1h-8zM208 103h8v1h-8zM216 103h8v1h-8zM136 104h8v1h-8zM144 104h8v1h-8zM152 104h8v1h-8zM160 104h8v1h-8zM168 104h8v1h-8zM176 104h8v1h-8zM184 104h8v1h-8zM192 104h8v1h-8zM200 104h8v1h-8zM208 104h8v1h-8zM216 104h8v1h-8zM144 105h8v1h-8zM152 105h8v1h-8zM160 105h8v1h-8zM168 105h8v1h-8zM176 105h8v1h-8zM184 105h8v1h-8zM192 105h8v1h-8zM200 105h8v1h-8zM208 105h8v1h-8zM216 105h8v1h-8zM176 106h8v1h-8zM184 106h8v1h-8zM192 106h8v1h-8zM200 106h8v1h-8zM208 106h8v1h-8zM216 106h8v1h-8zM224 106h8v1h-8zM232 106h8v1h-8zM240 106h8v1h-8zM248 106h8v1h-8zM256 106h8v1h-8zM264 106h8v1h-8zM272 106h8v1h-8zM176 107h8v1h-8zM184 107h8v1h-8zM192 107h8v1h-8zM200 107h8v1h-8zM208 107h8v1h-8zM216 107h8v1h-8zM184 108h8v1h-8zM192 108h8v1h-8zM200 108h8v1h-8zM208 108h8v1h-8zM216 108h8v1h-8zM224 108h8v1h-8zM232 108h8v1h-8zM240 108h8v1h-8zM248 108h8v1h-8zM256 108h8v1h-8zM264 108h8v1h-8zM272 108h8v1h-8zM184 109h8v1h-8zM192 109h8v1h-8zM200 109h8v1h-8zM208 109h8v1h-8zM216 109h8v1h-8zM224 109h8v1h-8zM232 109h8v1h-8zM240 109h8v1h-8zM248 109h8v1h-8zM256 109h8v1h-8zM264 109h8v1h-8zM184 110h8v1h-8zM192 110h8v1h-8zM200 110h8v1h-8zM208 110h8v1h-8zM216 110h8v1h-8zM224 110h8v1h-8zM232 110h8v1h-8zM240 110h8v1h-8zM248 110h8v1h-8zM256 110h8v1h-8zM264 110h8v1h-8zM192 111h8v1h-8zM200 111h8v1h-8zM208 111h8v1h-8zM216 111h8v1h-8zM224 111h8v1h-8zM232 111h8v1h-8zM240 111h8v1h-8zM248 111h8v1h-8zM256 111h8v1h-8zM264 111h8v1h-8zM216 112h8v1h-8zM224 112h8v1h-8zM232 112h8v1h-8zM240 112h8v1h-8zM248 112h8v1h-8zM256 112h8v1h-8zM264 112h8v1h-8zM272 112h8v1h-8zM216 113h8v1h-8zM224 113h8v1h-8zM232 113h8v1h-8zM240 113h8v1h-8zM248 113h8v1h-8zM256 113h8v1h-8zM264 113h8v1h-8zM272 113h8v1h-8zM216 114h8v1h-8zM224 114h8v1h-8zM232 114h8v1h-8zM240 114h8v1h-8zM248 114h8v1h-8zM256 114h8v1h-8zM264 114h8v1h-8zM272 114h8v1h-8zM216 115h8v1h-8zM224 115h8v1h-8zM232 115h8v1h-8zM240 115h8v1h-8zM248 115h8v1h-8zM256 115h8v1h-8zM264 115h8v1h-8zM216 116h8v1h-8zM224 116h8v1h-8zM232 116h8v1h-8zM216 117h8v1h-8zM224 117h8v1h-8zM232 117h8v1h-8zM216 118h8v1h-8zM224 118h8v1h-8zM232 118h8v1h-8zM216 119h8v1h-8zM224 119h8v1h-8zM232 119h8v1h-8zM216 120h8v1h-8zM224 120h8v1h-8zM232 120h8v1h-8zM216 121h8v1h-8zM224 121h8v1h-8zM232 121h8v1h-8zM216 122h8v1h-8zM224 122h8v1h-8zM232 122h8v1h-8zM216 123h8v1h-8zM216 124h8v1h-8zM216 125h8v1h-8zM216 126h8v1h-8zM216 127h8v1h-8zM216 128h8v1h-8zM216 129h8v1h-8zM216 130h8v1h-8zM216 131h8v1h-8zM216 132h8v1h-8zM216 133h8v1h-8zM216 134h8v1h-8zM216 135h8v1h-8zM216 136h8v1h-8zM216 137h8v1h-8zM216 138h8v1h-8zM216 139h8v1h-8zM216 140h8v1h-8zM224 141h8v1h-8zM232 141h8v1h-8zM240 141h8v1h-8zM248 141h8v1h-8zM256 141h8v1h-8zM264 141h8v1h-8zM272 141h8v1h-8zM224 142h8v1h-8zM232 142h8v1h-8zM240 142h8v1h-8zM248 142h8v1h-8zM256 142h8v1h-8zM264 142h8v1h-8zM272 142h8v1h-8zM224 143h8v1h-8zM232 143h8v1h-8z"/><path fill="#bc3d2a" d="M240 143h8v1h-8zM248 143h8v1h-8zM256 143h8v1h-8zM264 143h8v1h-8zM272 143h8v1h-8z"/><path fill="#c9b1ad" d="M224 144h8v1h-8zM232 144h8v1h-8zM240 144h8v1h-8zM248 144h8v1h-8zM256 144h8v1h-8zM264 144h8v1h-8zM272 144h8v1h-8zM224 145h8v1h-8zM232 145h8v1h-8zM240 145h8v1h-8zM248 145h8v1h-8zM256 145h8v1h-8zM264 145h8v1h-8zM272 145h8v1h-8zM224 146h8v1h-8zM232 146h8v1h-8zM240 146h8v1h-8zM248 146h8v1h-8zM256 146h8v1h-8zM264 146h8v1h-8zM272 146h8v1h-8zM224 147h8v1h-8zM232 147h8v1h-8zM240 147h8v1h-8zM248 147h8v1h-8zM256 147h8v1h-8zM264 147h8v1h-8zM272 147h8v1h-8zM224 148h8v1h-8zM232 148h8v1h-8zM240 148h8v1h-8zM248 148h8v1h-8zM256 148h8v1h-8zM264 148h8v1h-8zM272 148h8v1h-8zM224 149h8v1h-8zM232 149h8v1h-8zM240 149h8v1h-8zM248 149h8v1h-8zM256 149h8v1h-8zM264 149h8v1h-8zM272 149h8v1h-8zM224 150h8v1h-8zM232 150h8v1h-8zM240 150h8v1h-8zM248 150h8v1h-8zM256 150h8v1h-8zM264 150h8v1h-8zM272 150h8v1h-8zM224 151h8v1h-8zM232 151h8v1h-8zM240 151h8v1h-8zM248 151h8v1h-8zM256 151h8v1h-8zM264 151h8v1h-8zM272 151h8v1h-8zM224 152h8v1h-8zM232 152h8v1h-8zM240 152h8v1h-8zM248 152h8v1h-8zM256 152h8v1h-8zM264 152h8v1h-8zM272 152h8v1h-8zM224 153h8v1h-8zM232 153h8v1h-8zM240 153h8v1h-8zM248 153h8v1h-8zM256 153h8v1h-8zM264 153h8v1h-8zM272 153h8v1h-8zM224 154h8v1h-8zM232 154h8v1h-8zM240 154h8v1h-8zM248 154h8v1h-8zM256 154h8v1h-8zM264 154h8v1h-8zM272 154h8v1h-8zM224 155h8v1h-8zM232 155h8v1h-8zM240 155h8v1h-8zM248 155h8v1h-8zM256 155h8v1h-8zM264 155h8v1h-8zM272 155h8v1h-8zM224 156h8v1h-8zM232 156h8v1h-8zM240 156h8v1h-8zM248 156h8v1h-8zM256 156h8v1h-8zM264 156h8v1h-8zM272 156h8v1h-8zM224 157h8v1h-8zM232 157h8v1h-8zM240 157h8v1h-8zM248 157h8v1h-8zM256 157h8v1h-8zM264 157h8v1h-8zM272 157h8v1h-8zM224 158h8v1h-8zM232 158h8v1h-8zM240 158h8v1h-8zM248 158h8v1h-8zM256 158h8v1h-8zM264 158h8v1h-8zM272 158h8v1h-8zM224 159h8v1h-8zM232 159h8v1h-8zM240 159h8v1h-8zM248 159h8v1h-8zM256 159h8v1h-8zM264 159h8v1h-8zM272 159h8v1h-8zM224 160h8v1h-8zM232 160h8v1h-8zM240 160h8v1h-8zM248 160h8v1h-8zM256 160h8v1h-8zM264 160h8v1h-8zM272 160h8v1h-8zM224 161h8v1h-8zM232 161h8v1h-8zM240 161h8v1h-8zM248 161h8v1h-8zM256 161h8v1h-8zM264 161h8v1h-8zM272 161h8v1h-8zM224 162h8v1h-8zM232 162h8v1h-8zM240 162h8v1h-8zM248 162h8v1h-8zM256 162h8v1h-8zM264 162h8v1h-8zM272 162h8v1h-8zM224 163h8v1h-8zM232 163h8v1h-8zM240 163h8v1h-8zM248 163h8v1h-8zM256 163h8v1h-8zM264 163h8v1h-8zM272 163h8v1h-8zM224 164h8v1h-8zM232 164h8v1h-8zM240 164h8v1h-8zM248 164h8v1h-8zM256 164h8v1h-8zM264 164h8v1h-8zM272 164h8v1h-8zM224 165h8v1h-8zM232 165h8v1h-8zM240 165h8v1h-8zM248 165h8v1h-8zM256 165h8v1h-8zM264 165h8v1h-8zM272 165h8v1h-8zM224 166h8v1h-8zM232 166h8v1h-8zM240 166h8v1h-8zM248 166h8v1h-8zM256 166h8v1h-8zM264 166h8v1h-8zM272 166h8v1h-8zM224 167h8v1h-8zM232 167h8v1h-8zM240 167h8v1h-8zM248 167h8v1h-8zM256 167h8v1h-8zM264 167h8v1h-8zM272 167h8v1h-8zM224 168h8v1h-8zM232 168h8v1h-8zM240 168h8v1h-8zM248 168h8v1h-8zM256 168h8v1h-8zM264 168h8v1h-8zM272 168h8v1h-8zM224 169h8v1h-8zM232 169h8v1h-8zM240 169h8v1h-8zM248 169h8v1h-8zM256 169h8v1h-8zM264 169h8v1h-8zM272 169h8v1h-8zM224 170h8v1h-8zM232 170h8v1h-8zM240 170h8v1h-8zM248 170h8v1h-8zM256 170h8v1h-8zM264 170h8v1h-8zM272 170h8v1h-8zM224 171h8v1h-8zM232 171h8v1h-8zM240 171h8v1h-8zM248 171h8v1h-8zM256 171h8v1h-8zM264 171h8v1h-8zM272 171h8v1h-8zM224 172h8v1h-8zM232 172h8v1h-8zM240 172h8v1h-8zM248 172h8v1h-8zM256 172h8v1h-8zM264 172h8v1h-8zM224 173h8v1h-8zM232 173h8v1h-8zM240 173h8v1h-8zM224 174h8v1h-8zM232 174h8v1h-8zM240 174h8v1h-8zM224 175h8v1h-8zM232 175h8v1h-8z"/><path fill="#e9e9de" d="M240 175h8v1h-8zM248 175h8v1h-8zM256 175h8v1h-8zM264 175h8v1h-8zM272 175h8v1h-8z"/><path fill="#c9b1ad" d="M224 176h8v1h-8zM232 176h8v1h-8zM224 177h8v1h-8zM232 177h8v1h-8zM224 178h8v1h-8zM232 178h8v1h-8zM224 179h8v1h-8zM232 179h8v1h-8zM224 180h8v1h-8zM232 180h8v1h-8zM224 181h8v1h-8zM232 181h8v1h-8zM240 182h8v1h-8zM248 182h8v1h-8zM256 182h8v1h-8zM264 182h8v1h-8zM272 182h8v1h-8zM240 183h8v1h-8zM248 183h8v1h-8zM256 183h8v1h-8zM264 183h8v1h-8zM272 183h8v1h-8zM240 184h8v1h-8zM248 184h8v1h-8zM256 184h8v1h-8zM264 184h8v1h-8zM272 184h8v1h-8zM240 185h8v1h-8zM248 185h8v1h-8zM256 185h8v1h-8zM264 185h8v1h-8zM272 185h8v1h-8zM240 186h8v1h-8zM248 186h8v1h-8zM256 186h8v1h-8zM264 186h8v1h-8zM272 186h8v1h-8zM240 187h8v1h-8zM248 187h8v1h-8zM256 187h8v1h-8zM264 187h8v1h-8zM272 187h8v1h-8zM240 188h8v1h-8zM248 188h8v1h-8zM256 188h8v1h-8zM264 188h8v1h-8zM272 188h8v1h-8zM240 189h8v1h-8zM248 189h8v1h-8zM256 189h8v1h-8zM264 189h8v1h-8zM272 189h8v1h-8zM240 190h8v1h-8zM248 190h8v1h-8zM256 190h8v1h-8zM264 190h8v1h-8zM272 190h8v1h-8zM240 191h8v1h-8zM248 191h8v1h-8zM256 191h8v1h-8zM264 191h8v1h-8zM272 191h8v1h-8zM240 192h8v1h-8zM248 192h8v1h-8zM256 192h8v1h-8zM264 192h8v1h-8zM272 192h8v1h-8zM240 193h8v1h-8zM248 193h8v1h-8zM256 193h8v1h-8zM264 193h8v1h-8zM272 193h8v1h-8zM240 194h8v1h-8zM248 194h8v1h-8zM256 194h8v1h-8zM264 194h8v1h-8zM272 194h8v1h-8zM240 195h8v1h-8zM248 195h8v1h-8zM256 195h8v1h-8zM264 195h8v1h-8zM272 195h8v1h-8zM240 196h8v1h-8zM248 196h8v1h-8zM256 196h8v1h-8zM264 196h8v1h-8zM272 196h8v1h-8zM240 197h8v1h-8zM248 197h8v1h-8zM256 197h8v1h-8zM264 197h8v1h-8zM272 197h8v1h-8zM240 198h8v1h-8zM248 198h8v1h-8zM256 198h8v1h-8zM264 198h8v1h-8zM272 198h8v1h-8zM240 199h8v1h-8zM248 199h8v1h-8zM256 199h8v1h-8zM264 199h8v1h-8zM240 200h8v1h-8zM248 200h8v1h-8zM256 200h8v1h-8zM264 200h8v1h-8zM248 201h8v1h-8zM256 201h8v1h-8zM264 201h8v1h-8zM272 201h8v1h-8zM248 202h8v1h-8zM256 202h8v1h-8zM264 202h8v1h-8zM272 202h8v1h-8zM248 203h8v1h-8zM256 203h8v1h-8zM264 203h8v1h-8z"/><path fill="#b5c3ce" d="M272 203h8v1h-8z"/><path fill="#c9b1ad" d="M256 204h8v1h-8zM264 204h8v1h-8zM272 204h8v1h-8zM272 205h8v1h-8z"/><path fill="#e9e9de" d="M0 206h8v1H0zM8 206h8v1H8zM16 206h8v1h-8zM8 207h8v1H8zM16 207h8v1h-8zM16 208h8v1h-8zM24 208h8v1h-8zM32 208h8v1h-8zM40 208h8v1h-8zM48 208h8v1h-8zM56 208h8v1h-8zM64 208h8v1h-8zM72 208h8v1h-8zM80 208h8v1h-8zM88 208h8v1h-8zM96 208h8v1h-8zM104 208h8v1h-8zM112 208h8v1h-8zM120 208h8v1h-8zM128 208h8v1h-8zM136 208h8v1h-8zM144 208h8v1h-8zM152 208h8v1h-8zM160 208h8v1h-8zM168 208h8v1h-8zM176 208h8v1h-8zM184 208h8v1h-8zM192 208h8v1h-8zM200 208h8v1h-8zM208 208h8v1h-8zM216 208h8v1h-8zM224 208h8v1h-8zM232 208h8v1h-8zM240 208h8v1h-8zM248 208h8v1h-8zM256 208h8v1h-8zM264 208h8v1h-8zM272 208h8v1h-8zM16 209h8v1h-8zM24 209h8v1h-8zM32 209h8v1h-8zM40 209h8v1h-8zM48 209h8v1h-8zM16 210h8v1h-8zM24 210h8v1h-8zM16 211h8v1h-8zM16 212h8v1h-8zM16 213h8v1h-8zM16 214h8v1h-8zM16 215h8v1h-8zM16 216h8v1h-8zM16 217h8v1h-8zM16 218h8v1h-8zM16 219h8v1h-8zM16 220h8v1h-8zM16 221h8v1h-8zM16 222h8v1h-8zM16 223h8v1h-8zM16 224h8v1h-8zM16 225h8v1h-8zM24 226h8v1h-8z"/><path fill="#c9b1ad" d="M32 226h8v1h-8zM40 226h8v1h-8zM48 226h8v1h-8zM56 226h8v1h-8zM64 226h8v1h-8zM72 226h8v1h-8zM80 226h8v1h-8zM88 226h8v1h-8zM96 226h8v1h-8zM104 226h8v1h-8zM112 226h8v1h-8zM120 226h8v1h-8zM128 226h8v1h-8zM136 226h8v1h-8zM144 226h8v1h-8zM152 226h8v1h-8zM160 226h8v1h-8zM168 226h8v1h-8zM176 226h8v1h-8zM184 226h8v1h-8zM192 226h8v1h-8zM200 226h8v1h-8zM208 226h8v1h-8z"/><path fill="#e9e9de" d="M216 226h8v1h-8zM224 226h8v1h-8zM232 226h8v1h-8zM240 226h8v1h-8zM248 226h8v1h-8zM256 226h8v1h-8zM264 226h8v1h-8zM272 226h8v1h-8zM24 227h8v1h-8zM32 227h8v1h-8zM40 227h8v1h-8z"/><path fill="#c2d1c5" d="M48 227h8v1h-8zM56 227h8v1h-8zM64 227h8v1h-8zM72 227h8v1h-8zM80 227h8v1h-8z"/><path fill="#e9e9de" d="M88 227h8v1h-8zM96 227h8v1h-8zM104 227h8v1h-8zM112 227h8v1h-8zM120 227h8v1h-8zM128 227h8v1h-8zM136 227h8v1h-8zM144 227h8v1h-8zM152 227h8v1h-8zM160 227h8v1h-8zM168 227h8v1h-8zM176 227h8v1h-8zM184 227h8v1h-8zM192 227h8v1h-8zM200 227h8v1h-8zM208 227h8v1h-8z"/><path fill="#c2d1c5" d="M216 227h8v1h-8zM224 227h8v1h-8zM232 227h8v1h-8zM240 227h8v1h-8zM248 227h8v1h-8zM256 227h8v1h-8zM264 227h8v1h-8zM272 227h8v1h-8z"/><path fill="#e9e9de" d="M24 228h8v1h-8zM32 228h8v1h-8zM40 228h8v1h-8zM48 228h8v1h-8zM56 228h8v1h-8zM64 228h8v1h-8z"/><path fill="#c2d1c5" d="M72 228h8v1h-8zM80 228h8v1h-8zM88 228h8v1h-8z"/><path fill="#e9e9de" d="M24 229h8v1h-8zM32 229h8v1h-8zM40 229h8v1h-8zM48 229h8v1h-8zM56 229h8v1h-8zM64 229h8v1h-8zM72 229h8v1h-8zM80 229h8v1h-8zM88 229h8v1h-8zM96 229h8v1h-8zM104 229h8v1h-8zM112 229h8v1h-8zM120 229h8v1h-8zM128 229h8v1h-8zM136 229h8v1h-8zM144 229h8v1h-8zM152 229h8v1h-8zM160 229h8v1h-8zM168 229h8v1h-8zM176 229h8v1h-8zM184 229h8v1h-8zM192 229h8v1h-8zM200 229h8v1h-8zM208 229h8v1h-8zM216 229h8v1h-8z"/><path fill="#b9b9b9" d="M224 229h8v1h-8zM232 229h8v1h-8zM240 229h8v1h-8zM248 229h8v1h-8zM256 229h8v1h-8zM264 229h8v1h-8zM272 229h8v1h-8z"/><path fill="#e9e9de" d="M24 230h8v1h-8zM32 230h8v1h-8zM40 230h8v1h-8zM48 230h8v1h-8zM56 230h8v1h-8zM64 230h8v1h-8zM72 230h8v1h-8zM80 230h8v1h-8zM88 230h8v1h-8zM96 230h8v1h-8zM104 230h8v1h-8zM112 230h8v1h-8zM120 230h8v1h-8zM128 230h8v1h-8zM136 230h8v1h-8zM144 230h8v1h-8zM152 230h8v1h-8zM160 230h8v1h-8zM168 230h8v1h-8zM176 230h8v1h-8zM184 230h8v1h-8zM192 230h8v1h-8zM200 230h8v1h-8zM208 230h8v1h-8zM216 230h8v1h-8zM224 230h8v1h-8zM232 230h8v1h-8zM240 230h8v1h-8zM248 230h8v1h-8zM256 230h8v1h-8zM264 230h8v1h-8zM272 230h8v1h-8zM24 231h8v1h-8zM32 231h8v1h-8zM40 231h8v1h-8zM48 231h8v1h-8zM56 231h8v1h-8zM64 231h8v1h-8zM72 231h8v1h-8zM80 231h8v1h-8zM88 231h8v1h-8zM96 231h8v1h-8zM104 231h8v1h-8zM112 231h8v1h-8zM120 231h8v1h-8zM128 231h8v1h-8zM136 231h8v1h-8zM144 231h8v1h-8zM152 231h8v1h-8zM160 231h8v1h-8zM168 231h8v1h-8zM176 231h8v1h-8zM184 231h8v1h-8zM192 231h8v1h-8zM200 231h8v1h-8zM208 231h8v1h-8zM216 231h8v1h-8zM224 231h8v1h-8zM232 231h8v1h-8zM240 231h8v1h-8zM248 231h8v1h-8zM256 231h8v1h-8zM264 231h8v1h-8zM272 231h8v1h-8zM24 232h8v1h-8zM32 232h8v1h-8zM40 232h8v1h-8zM48 232h8v1h-8zM56 232h8v1h-8zM64 232h8v1h-8zM72 232h8v1h-8zM80 232h8v1h-8zM88 232h8v1h-8zM96 232h8v1h-8zM104 232h8v1h-8zM112 232h8v1h-8zM120 232h8v1h-8zM128 232h8v1h-8zM136 232h8v1h-8zM144 232h8v1h-8zM152 232h8v1h-8zM160 232h8v1h-8zM168 232h8v1h-8zM176 232h8v1h-8zM184 232h8v1h-8zM192 232h8v1h-8zM200 232h8v1h-8zM208 232h8v1h-8zM216 232h8v1h-8zM224 232h8v1h-8zM232 232h8v1h-8zM240 232h8v1h-8zM248 232h8v1h-8zM256 232h8v1h-8zM264 232h8v1h-8zM272 232h8v1h-8zM24 233h8v1h-8zM32 233h8v1h-8zM40 233h8v1h-8zM48 233h8v1h-8zM56 233h8v1h-8zM64 233h8v1h-8zM72 233h8v1h-8zM80 233h8v1h-8zM88 233h8v1h-8zM96 233h8v1h-8zM104 233h8v1h-8zM112 233h8v1h-8zM120 233h8v1h-8zM128 233h8v1h-8zM136 233h8v1h-8zM144 233h8v1h-8zM152 233h8v1h-8zM160 233h8v1h-8zM168 233h8v1h-8zM176 233h8v1h-8zM184 233h8v1h-8zM192 233h8v1h-8zM200 233h8v1h-8zM208 233h8v1h-8zM216 233h8v1h-8zM224 233h8v1h-8zM232 233h8v1h-8zM240 233h8v1h-8zM248 233h8v1h-8zM256 233h8v1h-8zM264 233h8v1h-8zM272 233h8v1h-8zM24 234h8v1h-8zM32 234h8v1h-8zM40 234h8v1h-8zM48 234h8v1h-8zM56 234h8v1h-8zM64 234h8v1h-8zM72 234h8v1h-8zM80 234h8v1h-8zM88 234h8v1h-8zM96 234h8v1h-8zM104 234h8v1h-8zM112 234h8v1h-8zM120 234h8v1h-8zM128 234h8v1h-8zM136 234h8v1h-8zM144 234h8v1h-8zM152 234h8v1h-8zM160 234h8v1h-8zM168 234h8v1h-8zM176 234h8v1h-8zM184 234h8v1h-8zM192 234h8v1h-8zM200 234h8v1h-8zM208 234h8v1h-8zM216 234h8v1h-8zM224 234h8v1h-8zM232 234h8v1h-8zM240 234h8v1h-8zM248 234h8v1h-8zM256 234h8v1h-8zM264 234h8v1h-8zM272 234h8v1h-8zM24 235h8v1h-8zM32 235h8v1h-8zM40 235h8v1h-8zM48 235h8v1h-8zM56 235h8v1h-8zM64 235h8v1h-8zM72 235h8v1h-8zM80 235h8v1h-8zM88 235h8v1h-8zM96 235h8v1h-8zM104 235h8v1h-8zM112 235h8v1h-8zM120 235h8v1h-8zM128 235h8v1h-8zM136 235h8v1h-8zM144 235h8v1h-8zM152 235h8v1h-8zM160 235h8v1h-8zM168 235h8v1h-8zM176 235h8v1h-8zM184 235h8v1h-8zM192 235h8v1h-8zM200 235h8v1h-8zM208 235h8v1h-8zM216 235h8v1h-8zM224 235h8v1h-8zM232 235h8v1h-8zM240 235h8v1h-8zM248 235h8v1h-8zM256 235h8v1h-8zM264 235h8v1h-8zM272 235h8v1h-8zM24 236h8v1h-8zM32 236h8v1h-8zM40 236h8v1h-8zM48 236h8v1h-8zM56 236h8v1h-8zM64 236h8v1h-8zM72 236h8v1h-8zM80 236h8v1h-8zM88 236h8v1h-8zM96 236h8v1h-8zM104 236h8v1h-8zM112 236h8v1h-8zM120 236h8v1h-8zM128 236h8v1h-8zM136 236h8v1h-8zM144 236h8v1h-8zM152 236h8v1h-8zM160 236h8v1h-8zM168 236h8v1h-8zM176 236h8v1h-8zM184 236h8v1h-8zM192 236h8v1h-8zM200 236h8v1h-8zM208 236h8v1h-8zM216 236h8v1h-8zM224 236h8v1h-8zM232 236h8v1h-8zM240 236h8v1h-8zM248 236h8v1h-8zM256 236h8v1h-8zM264 236h8v1h-8zM272 236h8v1h-8zM24 237h8v1h-8zM32 237h8v1h-8zM40 237h8v1h-8zM48 237h8v1h-8zM56 237h8v1h-8zM64 237h8v1h-8zM72 237h8v1h-8zM80 237h8v1h-8zM88 237h8v1h-8zM96 237h8v1h-8zM104 237h8v1h-8zM112 237h8v1h-8zM120 237h8v1h-8zM128 237h8v1h-8zM136 237h8v1h-8zM144 237h8v1h-8zM152 237h8v1h-8zM160 237h8v1h-8zM168 237h8v1h-8zM176 237h8v1h-8zM184 237h8v1h-8zM192 237h8v1h-8zM200 237h8v1h-8zM208 237h8v1h-8zM216 237h8v1h-8zM224 237h8v1h-8zM232 237h8v1h-8zM240 237h8v1h-8zM248 237h8v1h-8zM256 237h8v1h-8zM264 237h8v1h-8zM272 237h8v1h-8zM24 238h8v1h-8zM32 238h8v1h-8zM40 238h8v1h-8zM48 238h8v1h-8zM56 238h8v1h-8zM64 238h8v1h-8zM72 238h8v1h-8zM80 238h8v1h-8zM88 238h8v1h-8zM96 238h8v1h-8zM104 238h8v1h-8zM112 238h8v1h-8zM120 238h8v1h-8zM128 238h8v1h-8zM136 238h8v1h-8zM144 238h8v1h-8zM152 238h8v1h-8zM160 238h8v1h-8zM168 238h8v1h-8zM176 238h8v1h-8zM184 238h8v1h-8zM192 238h8v1h-8zM200 238h8v1h-8zM208 238h8v1h-8zM216 238h8v1h-8zM224 238h8v1h-8zM232 238h8v1h-8zM240 238h8v1h-8zM248 238h8v1h-8zM256 238h8v1h-8zM264 238h8v1h-8zM272 238h8v1h-8zM24 239h8v1h-8zM32 239h8v1h-8zM40 239h8v1h-8zM48 239h8v1h-8zM56 239h8v1h-8zM64 239h8v1h-8zM72 239h8v1h-8zM80 239h8v1h-8zM88 239h8v1h-8zM96 239h8v1h-8zM104 239h8v1h-8zM112 239h8v1h-8zM120 239h8v1h-8zM128 239h8v1h-8zM136 239h8v1h-8zM144 239h8v1h-8zM152 239h8v1h-8zM160 239h8v1h-8zM168 239h8v1h-8zM176 239h8v1h-8zM184 239h8v1h-8zM192 239h8v1h-8zM200 239h8v1h-8zM208 239h8v1h-8zM216 239h8v1h-8zM24 240h8v1h-8zM32 240h8v1h-8zM40 240h8v1h-8zM48 240h8v1h-8zM56 240h8v1h-8zM64 240h8v1h-8zM72 240h8v1h-8zM80 240h8v1h-8zM88 240h8v1h-8zM24 241h8v1h-8zM32 241h8v1h-8zM40 241h8v1h-8zM48 241h8v1h-8zM56 241h8v1h-8zM64 241h8v1h-8zM24 242h8v1h-8zM32 242h8v1h-8zM40 242h8v1h-8zM48 242h8v1h-8zM56 242h8v1h-8zM64 242h8v1h-8zM24 243h8v1h-8zM32 243h8v1h-8zM40 243h8v1h-8zM48 243h8v1h-8zM56 243h8v1h-8zM24 244h8v1h-8zM32 244h8v1h-8zM40 244h8v1h-8zM48 244h8v1h-8zM56 244h8v1h-8zM24 245h8v1h-8zM32 245h8v1h-8zM32 246h8v1h-8zM40 246h8v1h-8zM48 246h8v1h-8zM56 246h8v1h-8zM64 246h8v1h-8zM72 246h8v1h-8zM80 246h8v1h-8zM88 246h8v1h-8zM96 246h8v1h-8zM104 246h8v1h-8zM112 246h8v1h-8zM120 246h8v1h-8zM128 246h8v1h-8zM136 246h8v1h-8zM144 246h8v1h-8zM152 246h8v1h-8zM160 246h8v1h-8zM168 246h8v1h-8zM176 246h8v1h-8zM184 246h8v1h-8zM192 246h8v1h-8zM200 246h8v1h-8zM208 246h8v1h-8zM216 246h8v1h-8zM32 247h8v1h-8zM40 247h8v1h-8zM48 247h8v1h-8zM56 247h8v1h-8zM64 247h8v1h-8zM72 247h8v1h-8zM80 247h8v1h-8zM88 247h8v1h-8zM96 247h8v1h-8zM104 247h8v1h-8zM112 247h8v1h-8zM120 247h8v1h-8zM128 247h8v1h-8zM136 247h8v1h-8zM144 247h8v1h-8zM152 247h8v1h-8zM160 247h8v1h-8zM168 247h8v1h-8zM176 247h8v1h-8zM184 247h8v1h-8zM192 247h8v1h-8zM200 247h8v1h-8zM208 247h8v1h-8zM32 248h8v1h-8zM40 249h8v1h-8zM48 249h8v1h-8zM56 249h8v1h-8zM64 249h8v1h-8zM72 249h8v1h-8zM80 249h8v1h-8zM88 249h8v1h-8zM96 249h8v1h-8zM104 249h8v1h-8zM112 249h8v1h-8zM120 249h8v1h-8zM48 250h8v1h-8zM56 250h8v1h-8zM64 250h8v1h-8zM72 250h8v1h-8zM80 250h8v1h-8zM88 250h8v1h-8zM96 250h8v1h-8zM104 250h8v1h-8zM112 250h8v1h-8zM120 250h8v1h-8zM128 250h8v1h-8zM136 250h8v1h-8zM144 250h8v1h-8zM152 250h8v1h-8zM160 250h8v1h-8zM168 250h8v1h-8zM176 250h8v1h-8zM184 250h8v1h-8zM192 250h8v1h-8zM200 250h8v1h-8zM208 250h8v1h-8zM216 250h8v1h-8zM48 251h8v1h-8zM56 251h8v1h-8zM64 251h8v1h-8zM72 251h8v1h-8zM80 251h8v1h-8zM88 251h8v1h-8zM96 251h8v1h-8zM104 251h8v1h-8zM112 251h8v1h-8zM120 251h8v1h-8zM128 251h8v1h-8zM136 251h8v1h-8zM144 251h8v1h-8zM152 251h8v1h-8zM160 251h8v1h-8zM168 251h8v1h-8zM176 251h8v1h-8zM184 251h8v1h-8zM192 251h8v1h-8zM200 251h8v1h-8zM208 251h8v1h-8zM216 251h8v1h-8zM56 252h8v1h-8zM64 252h8v1h-8zM72 252h8v1h-8zM80 252h8v1h-8zM88 252h8v1h-8zM96 252h8v1h-8zM104 252h8v1h-8zM112 252h8v1h-8zM120 252h8v1h-8zM128 252h8v1h-8zM136 252h8v1h-8zM144 252h8v1h-8zM152 252h8v1h-8zM160 252h8v1h-8zM168 252h8v1h-8zM176 252h8v1h-8zM184 252h8v1h-8zM192 252h8v1h-8zM200 252h8v1h-8zM208 252h8v1h-8zM216 252h8v1h-8zM224 252h8v1h-8zM232 252h8v1h-8zM240 252h8v1h-8zM248 252h8v1h-8zM256 252h8v1h-8zM264 252h8v1h-8zM272 252h8v1h-8zM56 253h8v1h-8zM64 253h8v1h-8zM72 253h8v1h-8zM80 253h8v1h-8zM88 253h8v1h-8zM96 253h8v1h-8zM104 253h8v1h-8zM112 253h8v1h-8zM120 253h8v1h-8zM128 253h8v1h-8zM136 253h8v1h-8zM144 253h8v1h-8zM152 253h8v1h-8zM160 253h8v1h-8zM168 253h8v1h-8zM176 253h8v1h-8zM184 253h8v1h-8zM192 253h8v1h-8zM200 253h8v1h-8zM208 253h8v1h-8zM216 253h8v1h-8zM64 254h8v1h-8z"/><path fill="#c2d1c5" d="M72 254h8v1h-8zM80 254h8v1h-8zM88 254h8v1h-8zM96 254h8v1h-8zM104 254h8v1h-8zM112 254h8v1h-8zM120 254h8v1h-8zM128 254h8v1h-8zM136 254h8v1h-8zM144 254h8v1h-8zM152 254h8v1h-8zM160 254h8v1h-8zM168 254h8v1h-8zM176 254h8v1h-8zM184 254h8v1h-8zM192 254h8v1h-8zM200 254h8v1h-8zM208 254h8v1h-8zM216 254h8v1h-8zM224 254h8v1h-8zM232 254h8v1h-8zM240 254h8v1h-8zM248 254h8v1h-8zM256 254h8v1h-8zM264 254h8v1h-8zM272 254h8v1h-8z"/><path fill="#e9e9de" d="M64 255h8v1h-8zM72 255h8v1h-8zM80 255h8v1h-8zM88 255h8v1h-8zM96 255h8v1h-8zM72 256h8v1h-8zM80 256h8v1h-8zM88 256h8v1h-8zM96 256h8v1h-8zM104 256h8v1h-8zM112 256h8v1h-8zM120 256h8v1h-8zM128 256h8v1h-8zM136 256h8v1h-8zM144 256h8v1h-8zM152 256h8v1h-8zM160 256h8v1h-8z"/><path fill="#c2d1c5" d="M168 256h8v1h-8zM176 256h8v1h-8zM184 256h8v1h-8zM192 256h8v1h-8z"/><path fill="#e9e9de" d="M72 257h8v1h-8zM80 257h8v1h-8zM88 257h8v1h-8zM96 257h8v1h-8zM104 257h8v1h-8zM112 257h8v1h-8zM120 257h8v1h-8zM128 257h8v1h-8zM136 257h8v1h-8zM144 257h8v1h-8zM152 257h8v1h-8zM160 257h8v1h-8zM168 257h8v1h-8zM176 257h8v1h-8zM184 257h8v1h-8zM192 257h8v1h-8zM200 257h8v1h-8zM208 257h8v1h-8zM216 257h8v1h-8zM224 257h8v1h-8zM232 257h8v1h-8zM240 257h8v1h-8zM248 257h8v1h-8zM256 257h8v1h-8zM264 257h8v1h-8zM272 257h8v1h-8zM72 258h8v1h-8zM80 258h8v1h-8zM88 258h8v1h-8zM96 258h8v1h-8zM104 258h8v1h-8zM112 258h8v1h-8zM120 258h8v1h-8zM128 258h8v1h-8zM136 258h8v1h-8zM144 258h8v1h-8zM152 258h8v1h-8zM160 258h8v1h-8zM168 258h8v1h-8zM176 258h8v1h-8zM184 258h8v1h-8zM192 258h8v1h-8zM200 258h8v1h-8zM208 258h8v1h-8zM216 258h8v1h-8zM224 258h8v1h-8zM232 258h8v1h-8zM240 258h8v1h-8zM248 258h8v1h-8zM256 258h8v1h-8zM264 258h8v1h-8zM272 258h8v1h-8zM72 259h8v1h-8zM80 259h8v1h-8z"/><path fill="#b5c3ce" d="M88 259h8v1h-8zM96 259h8v1h-8zM104 259h8v1h-8zM112 259h8v1h-8zM120 259h8v1h-8zM128 259h8v1h-8zM136 259h8v1h-8zM144 259h8v1h-8zM152 259h8v1h-8zM160 259h8v1h-8zM168 259h8v1h-8zM176 259h8v1h-8zM184 259h8v1h-8zM192 259h8v1h-8zM200 259h8v1h-8zM208 259h8v1h-8zM216 259h8v1h-8zM224 259h8v1h-8zM232 259h8v1h-8zM240 259h8v1h-8zM248 259h8v1h-8zM256 259h8v1h-8zM264 259h8v1h-8zM272 259h8v1h-8z"/><path fill="#e9e9de" d="M72 260h8v1h-8zM80 261h8v1h-8zM88 262h8v1h-8zM96 262h8v1h-8zM104 262h8v1h-8zM112 262h8v1h-8zM120 262h8v1h-8zM128 262h8v1h-8zM136 262h8v1h-8zM144 262h8v1h-8zM152 262h8v1h-8zM160 262h8v1h-8zM168 262h8v1h-8z"/><path fill="#b5c3ce" d="M176 262h8v1h-8zM184 262h8v1h-8zM192 262h8v1h-8zM200 262h8v1h-8zM208 262h8v1h-8zM216 262h8v1h-8zM224 262h8v1h-8zM232 262h8v1h-8zM240 262h8v1h-8zM248 262h8v1h-8zM256 262h8v1h-8zM264 262h8v1h-8zM272 262h8v1h-8z"/><path fill="#e9e9de" d="M88 263h8v1h-8zM96 263h8v1h-8zM104 263h8v1h-8zM112 263h8v1h-8zM120 263h8v1h-8zM128 263h8v1h-8zM136 263h8v1h-8zM144 263h8v1h-8zM152 263h8v1h-8zM160 263h8v1h-8z"/><path fill="#b5c3ce" d="M168 263h8v1h-8zM176 263h8v1h-8zM184 263h8v1h-8zM192 263h8v1h-8zM200 263h8v1h-8zM208 263h8v1h-8zM216 263h8v1h-8zM224 263h8v1h-8zM232 263h8v1h-8zM240 263h8v1h-8zM248 263h8v1h-8zM256 263h8v1h-8zM264 263h8v1h-8zM272 263h8v1h-8z"/><path fill="#e9e9de" d="M88 264h8v1h-8zM96 264h8v1h-8zM88 265h8v1h-8zM96 266h8v1h-8zM104 266h8v1h-8zM112 266h8v1h-8zM120 266h8v1h-8zM128 266h8v1h-8zM136 266h8v1h-8zM144 266h8v1h-8zM152 266h8v1h-8zM160 266h8v1h-8zM168 266h8v1h-8zM176 266h8v1h-8zM184 266h8v1h-8zM192 266h8v1h-8zM200 266h8v1h-8zM208 266h8v1h-8zM216 266h8v1h-8zM224 266h8v1h-8zM232 266h8v1h-8zM240 266h8v1h-8zM248 266h8v1h-8zM256 266h8v1h-8zM264 266h8v1h-8zM272 266h8v1h-8zM96 267h8v1h-8zM104 267h8v1h-8zM112 267h8v1h-8zM120 267h8v1h-8zM128 267h8v1h-8zM136 267h8v1h-8zM144 267h8v1h-8zM152 267h8v1h-8zM160 267h8v1h-8zM168 267h8v1h-8zM176 267h8v1h-8zM184 267h8v1h-8zM192 267h8v1h-8zM200 267h8v1h-8zM208 267h8v1h-8zM216 267h8v1h-8zM224 267h8v1h-8zM232 267h8v1h-8zM240 267h8v1h-8zM248 267h8v1h-8zM256 267h8v1h-8zM264 267h8v1h-8zM272 267h8v1h-8zM96 268h8v1h-8zM104 268h8v1h-8zM112 268h8v1h-8zM120 268h8v1h-8zM128 268h8v1h-8zM136 268h8v1h-8zM144 268h8v1h-8zM152 268h8v1h-8zM160 268h8v1h-8zM168 268h8v1h-8zM176 268h8v1h-8zM184 268h8v1h-8zM192 268h8v1h-8zM200 268h8v1h-8zM208 268h8v1h-8z"/><path fill="#b5c3ce" d="M216 268h8v1h-8zM224 268h8v1h-8zM232 268h8v1h-8zM240 268h8v1h-8zM248 268h8v1h-8zM256 268h8v1h-8zM264 268h8v1h-8zM272 268h8v1h-8z"/><path fill="#e9e9de" d="M96 269h8v1h-8zM104 269h8v1h-8zM112 269h8v1h-8zM120 269h8v1h-8zM128 269h8v1h-8zM136 269h8v1h-8zM144 269h8v1h-8zM152 269h8v1h-8zM160 269h8v1h-8zM168 269h8v1h-8zM176 269h8v1h-8zM184 269h8v1h-8z"/><path fill="#b5c3ce" d="M192 269h8v1h-8zM200 269h8v1h-8zM208 269h8v1h-8zM216 269h8v1h-8zM224 269h8v1h-8zM232 269h8v1h-8zM240 269h8v1h-8z"/><path fill="#e9e9de" d="M248 269h8v1h-8zM256 269h8v1h-8zM264 269h8v1h-8zM96 270h8v1h-8zM104 270h8v1h-8zM112 270h8v1h-8zM120 270h8v1h-8zM128 270h8v1h-8zM136 270h8v1h-8zM144 270h8v1h-8zM152 270h8v1h-8zM160 270h8v1h-8z"/><path fill="#b5c3ce" d="M168 270h8v1h-8zM176 270h8v1h-8zM184 270h8v1h-8zM192 270h8v1h-8zM200 270h8v1h-8zM208 270h8v1h-8zM216 270h8v1h-8zM224 270h8v1h-8zM232 270h8v1h-8zM240 270h8v1h-8zM248 270h8v1h-8zM256 270h8v1h-8zM264 270h8v1h-8zM272 270h8v1h-8z"/><path fill="#e9e9de" d="M104 271h8v1h-8zM112 271h8v1h-8zM120 271h8v1h-8zM128 271h8v1h-8zM136 271h8v1h-8zM144 271h8v1h-8zM152 271h8v1h-8zM160 271h8v1h-8zM168 271h8v1h-8zM176 271h8v1h-8zM184 271h8v1h-8zM192 271h8v1h-8zM200 271h8v1h-8zM208 271h8v1h-8zM216 271h8v1h-8zM224 271h8v1h-8zM232 271h8v1h-8zM240 271h8v1h-8zM248 271h8v1h-8zM256 271h8v1h-8zM264 271h8v1h-8zM272 271h8v1h-8zM104 272h8v1h-8zM112 272h8v1h-8zM120 272h8v1h-8zM128 272h8v1h-8zM136 272h8v1h-8zM144 272h8v1h-8zM152 272h8v1h-8zM160 272h8v1h-8zM168 272h8v1h-8zM176 272h8v1h-8zM184 272h8v1h-8zM192 272h8v1h-8zM200 272h8v1h-8zM208 272h8v1h-8zM112 273h8v1h-8zM120 273h8v1h-8zM128 273h8v1h-8zM136 273h8v1h-8zM144 273h8v1h-8zM152 273h8v1h-8zM160 273h8v1h-8zM168 273h8v1h-8zM176 273h8v1h-8zM184 273h8v1h-8zM192 273h8v1h-8zM200 273h8v1h-8zM208 273h8v1h-8z"/><path fill="#c2d1c5" d="M216 273h8v1h-8zM224 273h8v1h-8zM232 273h8v1h-8zM240 273h8v1h-8zM248 273h8v1h-8zM256 273h8v1h-8zM264 273h8v1h-8z"/><path fill="#b5c3ce" d="M272 273h8v1h-8z"/><path fill="#e9e9de" d="M112 274h8v1h-8zM120 274h8v1h-8zM128 274h8v1h-8zM136 274h8v1h-8zM144 274h8v1h-8zM152 274h8v1h-8zM160 274h8v1h-8zM168 274h8v1h-8zM176 274h8v1h-8zM184 274h8v1h-8zM192 274h8v1h-8zM200 274h8v1h-8zM208 274h8v1h-8zM216 274h8v1h-8zM224 274h8v1h-8zM232 274h8v1h-8zM240 274h8v1h-8zM248 274h8v1h-8zM256 274h8v1h-8zM264 274h8v1h-8zM272 274h8v1h-8zM112 275h8v1h-8zM120 275h8v1h-8zM128 275h8v1h-8zM136 275h8v1h-8zM144 275h8v1h-8zM152 275h8v1h-8zM160 275h8v1h-8zM168 275h8v1h-8zM176 275h8v1h-8zM184 275h8v1h-8zM192 275h8v1h-8zM200 275h8v1h-8zM208 275h8v1h-8zM216 275h8v1h-8zM224 275h8v1h-8zM232 275h8v1h-8zM240 275h8v1h-8zM248 275h8v1h-8zM256 275h8v1h-8zM264 275h8v1h-8zM272 275h8v1h-8zM112 276h8v1h-8zM120 276h8v1h-8zM128 276h8v1h-8zM136 276h8v1h-8zM144 276h8v1h-8zM152 276h8v1h-8zM160 276h8v1h-8zM168 276h8v1h-8zM176 276h8v1h-8zM184 276h8v1h-8zM192 276h8v1h-8zM200 276h8v1h-8zM208 276h8v1h-8zM216 276h8v1h-8zM224 276h8v1h-8zM232 276h8v1h-8zM240 276h8v1h-8zM248 276h8v1h-8zM256 276h8v1h-8zM264 276h8v1h-8zM272 276h8v1h-8zM120 277h8v1h-8zM128 277h8v1h-8zM136 277h8v1h-8zM144 277h8v1h-8zM152 277h8v1h-8zM160 277h8v1h-8zM168 277h8v1h-8zM176 277h8v1h-8zM184 277h8v1h-8zM192 277h8v1h-8zM200 277h8v1h-8zM208 277h8v1h-8zM216 277h8v1h-8zM224 277h8v1h-8zM232 277h8v1h-8zM240 277h8v1h-8zM248 277h8v1h-8zM256 277h8v1h-8zM264 277h8v1h-8zM272 277h8v1h-8zM120 278h8v1h-8zM128 278h8v1h-8zM136 278h8v1h-8zM144 278h8v1h-8zM152 278h8v1h-8zM160 278h8v1h-8zM168 278h8v1h-8zM176 278h8v1h-8zM184 278h8v1h-8zM192 278h8v1h-8zM200 278h8v1h-8zM208 278h8v1h-8zM216 278h8v1h-8zM224 278h8v1h-8zM232 278h8v1h-8zM240 278h8v1h-8zM248 278h8v1h-8zM256 278h8v1h-8zM264 278h8v1h-8zM272 278h8v1h-8zM120 279h8v1h-8zM128 279h8v1h-8zM136 279h8v1h-8zM144 279h8v1h-8zM152 279h8v1h-8zM160 279h8v1h-8zM168 279h8v1h-8zM176 279h8v1h-8zM184 279h8v1h-8zM192 279h8v1h-8zM200 279h8v1h-8zM208 279h8v1h-8zM120 280h8v1h-8zM128 280h8v1h-8zM136 280h8v1h-8zM144 280h8v1h-8zM152 280h8v1h-8zM160 280h8v1h-8zM168 280h8v1h-8zM176 280h8v1h-8zM184 280h8v1h-8zM192 280h8v1h-8zM200 280h8v1h-8zM208 280h8v1h-8zM136 281h8v1h-8zM144 281h8v1h-8zM152 281h8v1h-8zM160 281h8v1h-8zM168 281h8v1h-8zM176 281h8v1h-8zM184 281h8v1h-8zM192 281h8v1h-8zM200 281h8v1h-8zM208 281h8v1h-8zM216 281h8v1h-8zM224 281h8v1h-8zM232 281h8v1h-8zM240 281h8v1h-8zM248 281h8v1h-8zM256 281h8v1h-8zM264 281h8v1h-8zM272 281h8v1h-8zM160 282h8v1h-8zM168 282h8v1h-8zM176 282h8v1h-8zM184 282h8v1h-8zM192 282h8v1h-8zM200 282h8v1h-8zM208 282h8v1h-8zM216 282h8v1h-8zM224 282h8v1h-8zM232 282h8v1h-8zM240 282h8v1h-8zM248 282h8v1h-8zM256 282h8v1h-8zM264 282h8v1h-8zM168 283h8v1h-8zM176 283h8v1h-8zM184 283h8v1h-8zM192 283h8v1h-8zM200 283h8v1h-8zM208 283h8v1h-8zM216 283h8v1h-8zM224 283h8v1h-8zM232 283h8v1h-8zM240 283h8v1h-8zM248 283h8v1h-8zM256 283h8v1h-8zM264 283h8v1h-8zM272 283h8v1h-8zM200 284h8v1h-8zM208 284h8v1h-8zM216 284h8v1h-8zM224 284h8v1h-8zM232 284h8v1h-8zM240 284h8v1h-8zM248 284h8v1h-8zM256 284h8v1h-8zM264 284h8v1h-8zM272 284h8v1h-8zM216 285h8v1h-8zM224 285h8v1h-8zM232 285h8v1h-8zM240 285h8v1h-8zM248 285h8v1h-8zM256 285h8v1h-8zM264 285h8v1h-8zM272 285h8v1h-8zM216 286h8v1h-8zM224 286h8v1h-8zM232 286h8v1h-8zM240 286h8v1h-8zM248 286h8v1h-8zM256 286h8v1h-8zM264 286h8v1h-8zM272 286h8v1h-8zM216 287h8v1h-8zM224 287h8v1h-8zM232 287h8v1h-8zM240 287h8v1h-8zM248 287h8v1h-8zM256 287h8v1h-8zM264 287h8v1h-8zM272 287h8v1h-8zM216 288h8v1h-8zM224 288h8v1h-8zM232 288h8v1h-8zM240 288h8v1h-8zM248 288h8v1h-8zM256 288h8v1h-8zM264 288h8v1h-8zM216 289h8v1h-8zM224 289h8v1h-8zM232 289h8v1h-8zM240 289h8v1h-8z"/><path fill="#b5c3ce" d="M248 289h8v1h-8zM256 289h8v1h-8zM264 289h8v1h-8zM272 289h8v1h-8z"/><path fill="#e9e9de" d="M216 290h8v1h-8zM216 291h8v1h-8zM224 292h8v1h-8zM232 292h8v1h-8zM240 292h8v1h-8z"/><path fill="#c2d1c5" d="M248 292h8v1h-8zM256 292h8v1h-8zM264 292h8v1h-8zM272 292h8v1h-8z"/><path fill="#e9e9de" d="M224 293h8v1h-8zM232 293h8v1h-8zM240 293h8v1h-8zM248 293h8v1h-8zM256 293h8v1h-8zM264 293h8v1h-8zM272 293h8v1h-8zM224 294h8v1h-8zM232 294h8v1h-8zM240 294h8v1h-8zM248 294h8v1h-8zM256 294h8v1h-8zM264 294h8v1h-8zM272 294h8v1h-8zM224 295h8v1h-8zM232 295h8v1h-8zM240 295h8v1h-8zM248 295h8v1h-8zM256 295h8v1h-8zM264 295h8v1h-8zM272 295h8v1h-8zM224 296h8v1h-8zM232 296h8v1h-8zM240 296h8v1h-8zM248 296h8v1h-8zM256 296h8v1h-8zM264 296h8v1h-8zM272 296h8v1h-8zM224 297h8v1h-8zM232 297h8v1h-8zM240 297h8v1h-8zM248 297h8v1h-8zM256 297h8v1h-8zM264 297h8v1h-8zM272 297h8v1h-8zM224 298h8v1h-8zM232 298h8v1h-8zM240 298h8v1h-8zM248 298h8v1h-8zM256 298h8v1h-8zM264 298h8v1h-8zM272 298h8v1h-8zM224 299h8v1h-8zM232 299h8v1h-8zM240 299h8v1h-8zM248 299h8v1h-8zM256 299h8v1h-8zM264 299h8v1h-8zM272 299h8v1h-8zM224 300h8v1h-8zM232 300h8v1h-8zM240 300h8v1h-8zM248 300h8v1h-8zM256 300h8v1h-8zM264 300h8v1h-8z"/><path fill="#b5c3ce" d="M16 301h8v1h-8zM24 301h8v1h-8zM32 301h8v1h-8zM40 301h8v1h-8zM48 301h8v1h-8zM56 301h8v1h-8zM64 301h8v1h-8zM72 301h8v1h-8zM80 301h8v1h-8zM88 301h8v1h-8zM96 301h8v1h-8z"/><path fill="#e9e9de" d="M104 301h8v1h-8z"/><path fill="#b5c3ce" d="M112 301h8v1h-8zM120 301h8v1h-8zM128 301h8v1h-8z"/><path fill="#e9e9de" d="M136 301h8v1h-8zM144 301h8v1h-8zM152 301h8v1h-8zM160 301h8v1h-8zM168 301h8v1h-8zM176 301h8v1h-8zM184 301h8v1h-8zM192 301h8v1h-8zM200 301h8v1h-8zM208 301h8v1h-8zM216 301h8v1h-8zM224 301h8v1h-8zM232 301h8v1h-8zM240 301h8v1h-8zM248 301h8v1h-8zM256 301h8v1h-8zM264 301h8v1h-8zM272 301h8v1h-8z"/><path fill="#b5c3ce" d="M16 302h8v1h-8zM24 302h8v1h-8zM32 302h8v1h-8zM40 302h8v1h-8zM48 302h8v1h-8zM56 302h8v1h-8zM64 302h8v1h-8zM72 302h8v1h-8zM80 302h8v1h-8zM88 302h8v1h-8zM96 302h8v1h-8zM104 302h8v1h-8zM112 302h8v1h-8zM120 302h8v1h-8zM128 302h8v1h-8zM136 302h8v1h-8zM144 302h8v1h-8zM152 302h8v1h-8zM160 302h8v1h-8zM168 302h8v1h-8zM176 302h8v1h-8zM184 302h8v1h-8zM192 302h8v1h-8zM200 302h8v1h-8zM208 302h8v1h-8zM216 302h8v1h-8zM224 302h8v1h-8zM232 302h8v1h-8zM240 302h8v1h-8zM248 302h8v1h-8zM256 302h8v1h-8zM264 302h8v1h-8zM272 302h8v1h-8zM16 303h8v1h-8zM24 303h8v1h-8zM32 303h8v1h-8zM40 303h8v1h-8zM48 303h8v1h-8zM56 303h8v1h-8zM64 303h8v1h-8zM72 303h8v1h-8zM80 303h8v1h-8zM88 303h8v1h-8zM96 303h8v1h-8zM104 303h8v1h-8zM112 303h8v1h-8zM120 303h8v1h-8zM128 303h8v1h-8zM136 303h8v1h-8zM144 303h8v1h-8zM152 303h8v1h-8zM160 303h8v1h-8zM168 303h8v1h-8zM16 304h8v1h-8zM24 304h8v1h-8zM32 304h8v1h-8zM40 304h8v1h-8zM48 304h8v1h-8zM56 304h8v1h-8zM64 304h8v1h-8zM72 304h8v1h-8zM80 304h8v1h-8zM88 304h8v1h-8zM96 304h8v1h-8zM104 304h8v1h-8zM112 304h8v1h-8zM120 304h8v1h-8zM128 304h8v1h-8zM136 304h8v1h-8zM144 304h8v1h-8zM152 304h8v1h-8zM160 304h8v1h-8zM168 304h8v1h-8zM16 305h8v1h-8zM24 305h8v1h-8zM32 305h8v1h-8zM40 305h8v1h-8zM48 305h8v1h-8zM56 305h8v1h-8zM64 305h8v1h-8zM72 305h8v1h-8zM80 305h8v1h-8zM88 305h8v1h-8zM96 305h8v1h-8zM104 305h8v1h-8zM112 305h8v1h-8zM120 305h8v1h-8zM128 305h8v1h-8zM136 305h8v1h-8zM144 305h8v1h-8zM152 305h8v1h-8zM160 305h8v1h-8zM168 305h8v1h-8zM16 306h8v1h-8zM24 306h8v1h-8zM32 306h8v1h-8zM40 306h8v1h-8zM48 306h8v1h-8zM56 306h8v1h-8zM16 307h8v1h-8zM24 307h8v1h-8zM32 307h8v1h-8zM40 307h8v1h-8zM48 307h8v1h-8zM16 308h8v1h-8zM24 308h8v1h-8zM32 308h8v1h-8zM40 308h8v1h-8zM48 308h8v1h-8zM16 309h8v1h-8zM24 309h8v1h-8zM32 309h8v1h-8zM40 309h8v1h-8zM16 310h8v1h-8zM24 310h8v1h-8zM32 310h8v1h-8zM40 310h8v1h-8zM16 311h8v1h-8zM24 311h8v1h-8zM32 311h8v1h-8zM40 311h8v1h-8zM16 312h8v1h-8zM24 312h8v1h-8zM32 312h8v1h-8zM40 312h8v1h-8zM16 313h8v1h-8zM24 313h8v1h-8zM32 313h8v1h-8zM40 313h8v1h-8zM16 314h8v1h-8zM24 314h8v1h-8zM32 314h8v1h-8zM40 314h8v1h-8zM16 315h8v1h-8zM24 315h8v1h-8zM32 315h8v1h-8zM40 315h8v1h-8zM16 316h8v1h-8zM24 316h8v1h-8zM32 316h8v1h-8zM40 316h8v1h-8zM16 317h8v1h-8zM24 317h8v1h-8zM32 317h8v1h-8zM40 317h8v1h-8zM16 318h8v1h-8zM24 318h8v1h-8zM32 318h8v1h-8zM40 318h8v1h-8zM16 319h8v1h-8zM24 319h8v1h-8zM32 319h8v1h-8zM40 319h8v1h-8zM16 320h8v1h-8zM24 320h8v1h-8zM32 320h8v1h-8zM40 320h8v1h-8zM16 321h8v1h-8zM24 321h8v1h-8zM32 321h8v1h-8zM40 321h8v1h-8zM16 322h8v1h-8zM24 322h8v1h-8zM32 322h8v1h-8zM40 322h8v1h-8zM16 323h8v1h-8zM24 323h8v1h-8zM32 323h8v1h-8zM40 323h8v1h-8zM16 324h8v1h-8zM24 324h8v1h-8zM32 324h8v1h-8zM40 324h8v1h-8zM16 325h8v1h-8zM24 325h8v1h-8zM32 325h8v1h-8zM40 325h8v1h-8zM16 326h8v1h-8zM24 326h8v1h-8zM32 326h8v1h-8zM40 326h8v1h-8zM16 327h8v1h-8zM24 327h8v1h-8zM32 327h8v1h-8zM40 327h8v1h-8zM16 328h8v1h-8zM24 328h8v1h-8zM32 328h8v1h-8zM40 328h8v1h-8zM16 329h8v1h-8zM24 329h8v1h-8zM32 329h8v1h-8zM40 329h8v1h-8zM16 330h8v1h-8zM24 330h8v1h-8zM32 330h8v1h-8zM40 330h8v1h-8zM16 331h8v1h-8zM24 331h8v1h-8zM32 331h8v1h-8zM40 331h8v1h-8zM16 332h8v1h-8zM24 332h8v1h-8zM32 332h8v1h-8zM40 332h8v1h-8zM16 333h8v1h-8zM24 333h8v1h-8zM32 333h8v1h-8zM40 333h8v1h-8zM16 334h8v1h-8zM24 334h8v1h-8zM32 334h8v1h-8zM40 334h8v1h-8zM16 335h8v1h-8zM24 335h8v1h-8zM32 335h8v1h-8zM40 335h8v1h-8zM16 336h8v1h-8zM24 336h8v1h-8zM32 336h8v1h-8zM40 336h8v1h-8zM16 337h8v1h-8zM24 337h8v1h-8zM32 337h8v1h-8zM40 337h8v1h-8zM16 338h8v1h-8zM24 338h8v1h-8zM32 338h8v1h-8zM40 338h8v1h-8zM16 339h8v1h-8zM24 339h8v1h-8zM32 339h8v1h-8zM40 339h8v1h-8zM16 340h8v1h-8zM24 340h8v1h-8zM32 340h8v1h-8zM40 340h8v1h-8zM16 341h8v1h-8zM24 341h8v1h-8zM32 341h8v1h-8zM40 341h8v1h-8zM16 342h8v1h-8zM24 342h8v1h-8zM32 342h8v1h-8zM40 342h8v1h-8zM16 343h8v1h-8zM24 343h8v1h-8zM32 343h8v1h-8zM40 343h8v1h-8zM16 344h8v1h-8zM24 344h8v1h-8zM32 344h8v1h-8zM40 344h8v1h-8zM16 345h8v1h-8zM24 345h8v1h-8zM32 345h8v1h-8zM40 345h8v1h-8zM16 346h8v1h-8zM24 346h8v1h-8zM32 346h8v1h-8zM40 346h8v1h-8zM16 347h8v1h-8zM24 347h8v1h-8zM32 347h8v1h-8zM40 347h8v1h-8zM16 348h8v1h-8zM24 348h8v1h-8zM32 348h8v1h-8zM40 348h8v1h-8zM16 349h8v1h-8zM24 349h8v1h-8zM32 349h8v1h-8zM40 349h8v1h-8zM16 350h8v1h-8zM24 350h8v1h-8zM32 350h8v1h-8zM40 350h8v1h-8zM16 351h8v1h-8zM24 351h8v1h-8zM32 351h8v1h-8zM40 351h8v1h-8zM16 352h8v1h-8zM24 352h8v1h-8zM32 352h8v1h-8zM40 352h8v1h-8zM16 353h8v1h-8zM24 353h8v1h-8zM32 353h8v1h-8zM40 353h8v1h-8zM16 354h8v1h-8zM24 354h8v1h-8zM32 354h8v1h-8zM40 354h8v1h-8zM16 355h8v1h-8zM24 355h8v1h-8zM32 355h8v1h-8zM40 355h8v1h-8zM16 356h8v1h-8zM24 356h8v1h-8zM32 356h8v1h-8zM40 356h8v1h-8zM16 357h8v1h-8zM24 357h8v1h-8zM32 357h8v1h-8zM40 357h8v1h-8zM16 358h8v1h-8zM24 358h8v1h-8zM32 358h8v1h-8zM40 358h8v1h-8zM16 359h8v1h-8zM24 359h8v1h-8zM32 359h8v1h-8zM40 359h8v1h-8zM16 360h8v1h-8zM24 360h8v1h-8zM16 361h8v1h-8zM16 362h8v1h-8zM16 363h8v1h-8zM16 364h8v1h-8zM16 365h8v1h-8zM16 366h8v1h-8zM16 367h8v1h-8zM24 368h8v1h-8zM32 368h8v1h-8zM40 368h8v1h-8zM48 368h8v1h-8zM56 368h8v1h-8zM64 368h8v1h-8zM72 368h8v1h-8zM80 368h8v1h-8zM88 368h8v1h-8zM96 368h8v1h-8zM104 368h8v1h-8zM112 368h8v1h-8zM120 368h8v1h-8z"/><path fill="#e9e9de" d="M128 368h8v1h-8zM136 368h8v1h-8zM144 368h8v1h-8zM152 368h8v1h-8zM160 368h8v1h-8zM168 368h8v1h-8zM176 368h8v1h-8zM184 368h8v1h-8zM192 368h8v1h-8zM200 368h8v1h-8zM208 368h8v1h-8zM216 368h8v1h-8zM224 368h8v1h-8zM232 368h8v1h-8zM240 368h8v1h-8zM248 368h8v1h-8zM256 368h8v1h-8zM264 368h8v1h-8zM272 368h8v1h-8z"/><path fill="#b5c3ce" d="M24 369h8v1h-8zM32 369h8v1h-8zM40 369h8v1h-8zM48 369h8v1h-8zM56 369h8v1h-8zM64 369h8v1h-8zM72 369h8v1h-8zM80 369h8v1h-8zM88 369h8v1h-8zM96 369h8v1h-8zM104 369h8v1h-8zM112 369h8v1h-8zM120 369h8v1h-8zM128 369h8v1h-8zM136 369h8v1h-8zM144 369h8v1h-8zM152 369h8v1h-8zM160 369h8v1h-8zM168 369h8v1h-8zM176 369h8v1h-8zM184 369h8v1h-8zM192 369h8v1h-8zM200 369h8v1h-8zM208 369h8v1h-8zM216 369h8v1h-8zM224 369h8v1h-8zM232 369h8v1h-8zM240 369h8v1h-8zM248 369h8v1h-8zM256 369h8v1h-8zM264 369h8v1h-8zM272 369h8v1h-8zM24 370h8v1h-8zM32 370h8v1h-8zM40 370h8v1h-8zM48 370h8v1h-8zM56 370h8v1h-8zM64 370h8v1h-8zM72 370h8v1h-8zM80 370h8v1h-8zM88 370h8v1h-8zM96 370h8v1h-8zM104 370h8v1h-8zM112 370h8v1h-8zM120 370h8v1h-8zM128 370h8v1h-8zM136 370h8v1h-8zM144 370h8v1h-8zM152 370h8v1h-8zM160 370h8v1h-8zM168 370h8v1h-8zM176 370h8v1h-8zM184 370h8v1h-8zM192 370h8v1h-8zM200 370h8v1h-8zM208 370h8v1h-8zM216 370h8v1h-8zM224 370h8v1h-8zM232 370h8v1h-8zM240 370h8v1h-8zM248 370h8v1h-8zM256 370h8v1h-8zM264 370h8v1h-8zM272 370h8v1h-8zM24 371h8v1h-8zM32 371h8v1h-8zM40 371h8v1h-8zM48 371h8v1h-8zM56 371h8v1h-8zM64 371h8v1h-8zM72 371h8v1h-8zM80 371h8v1h-8zM88 371h8v1h-8zM96 371h8v1h-8zM104 371h8v1h-8zM112 371h8v1h-8zM120 371h8v1h-8zM128 371h8v1h-8zM136 371h8v1h-8zM144 371h8v1h-8zM152 371h8v1h-8zM160 371h8v1h-8zM168 371h8v1h-8zM176 371h8v1h-8zM184 371h8v1h-8zM192 371h8v1h-8zM200 371h8v1h-8zM208 371h8v1h-8zM216 371h8v1h-8zM224 371h8v1h-8zM232 371h8v1h-8zM240 371h8v1h-8zM248 371h8v1h-8zM256 371h8v1h-8zM264 371h8v1h-8zM272 371h8v1h-8zM24 372h8v1h-8zM32 372h8v1h-8zM40 372h8v1h-8zM48 372h8v1h-8zM56 372h8v1h-8zM64 372h8v1h-8zM72 372h8v1h-8zM80 372h8v1h-8zM88 372h8v1h-8zM96 372h8v1h-8zM104 372h8v1h-8zM112 372h8v1h-8zM120 372h8v1h-8zM128 372h8v1h-8zM136 372h8v1h-8zM144 372h8v1h-8zM24 373h8v1h-8zM32 373h8v1h-8zM40 373h8v1h-8zM48 373h8v1h-8zM56 373h8v1h-8zM64 373h8v1h-8zM24 374h8v1h-8zM32 374h8v1h-8zM40 374h8v1h-8zM48 374h8v1h-8zM56 374h8v1h-8zM24 375h8v1h-8zM32 375h8v1h-8zM40 375h8v1h-8zM48 375h8v1h-8zM24 376h8v1h-8zM32 376h8v1h-8zM128 376h8v1h-8zM136 376h8v1h-8zM144 376h8v1h-8zM152 376h8v1h-8zM160 376h8v1h-8zM168 376h8v1h-8zM176 376h8v1h-8zM184 376h8v1h-8zM192 376h8v1h-8zM200 376h8v1h-8zM208 376h8v1h-8zM24 377h8v1h-8zM24 378h8v1h-8zM24 379h8v1h-8zM32 380h8v1h-8zM40 380h8v1h-8zM48 380h8v1h-8zM56 380h8v1h-8zM64 380h8v1h-8zM72 380h8v1h-8zM80 380h8v1h-8z"/><path fill="#b9b9b9" d="M88 380h8v1h-8zM96 380h8v1h-8zM104 380h8v1h-8zM112 380h8v1h-8zM120 380h8v1h-8zM128 380h8v1h-8zM136 380h8v1h-8zM144 380h8v1h-8zM152 380h8v1h-8zM160 380h8v1h-8zM168 380h8v1h-8zM176 380h8v1h-8zM184 380h8v1h-8zM192 380h8v1h-8zM200 380h8v1h-8zM208 380h8v1h-8zM216 380h8v1h-8zM224 380h8v1h-8zM232 380h8v1h-8zM240 380h8v1h-8zM248 380h8v1h-8zM256 380h8v1h-8zM264 380h8v1h-8zM272 380h8v1h-8z"/><path fill="#b5c3ce" d="M32 381h8v1h-8zM40 381h8v1h-8zM48 381h8v1h-8zM56 381h8v1h-8zM64 381h8v1h-8zM72 381h8v1h-8zM80 381h8v1h-8z"/><path fill="#e9e9de" d="M88 381h8v1h-8zM96 381h8v1h-8zM104 381h8v1h-8zM112 381h8v1h-8zM120 381h8v1h-8zM128 381h8v1h-8zM136 381h8v1h-8zM144 381h8v1h-8zM152 381h8v1h-8zM160 381h8v1h-8zM168 381h8v1h-8zM176 381h8v1h-8zM184 381h8v1h-8zM192 381h8v1h-8zM200 381h8v1h-8zM208 381h8v1h-8zM216 381h8v1h-8zM224 381h8v1h-8zM232 381h8v1h-8zM240 381h8v1h-8zM248 381h8v1h-8zM256 381h8v1h-8zM264 381h8v1h-8zM272 381h8v1h-8z"/><path fill="#b5c3ce" d="M32 382h8v1h-8zM40 382h8v1h-8zM48 382h8v1h-8zM56 382h8v1h-8zM64 382h8v1h-8zM72 382h8v1h-8zM80 382h8v1h-8zM88 382h8v1h-8zM96 382h8v1h-8zM104 382h8v1h-8zM112 382h8v1h-8zM120 382h8v1h-8zM128 382h8v1h-8zM136 382h8v1h-8zM144 382h8v1h-8zM152 382h8v1h-8zM160 382h8v1h-8zM168 382h8v1h-8zM176 382h8v1h-8zM184 382h8v1h-8zM192 382h8v1h-8zM200 382h8v1h-8zM208 382h8v1h-8zM32 383h8v1h-8zM40 383h8v1h-8zM48 383h8v1h-8zM56 383h8v1h-8zM64 383h8v1h-8zM72 383h8v1h-8zM80 383h8v1h-8zM88 383h8v1h-8zM32 384h8v1h-8zM40 384h8v1h-8zM48 384h8v1h-8zM56 384h8v1h-8zM64 384h8v1h-8zM72 384h8v1h-8zM80 384h8v1h-8zM88 384h8v1h-8zM32 385h8v1h-8zM40 385h8v1h-8zM48 385h8v1h-8zM56 385h8v1h-8z"/><path fill="#e4d7e4" d="M64 385h8v1h-8zM72 385h8v1h-8zM80 385h8v1h-8zM88 385h8v1h-8zM96 385h8v1h-8z"/><path fill="#b5c3ce" d="M104 385h8v1h-8zM112 385h8v1h-8z"/><path fill="#e4d7e4" d="M120 385h8v1h-8zM128 385h8v1h-8zM136 385h8v1h-8zM144 385h8v1h-8zM152 385h8v1h-8zM160 385h8v1h-8zM168 385h8v1h-8zM176 385h8v1h-8zM184 385h8v1h-8zM192 385h8v1h-8zM200 385h8v1h-8zM208 385h8v1h-8zM216 385h8v1h-8zM224 385h8v1h-8zM232 385h8v1h-8zM240 385h8v1h-8zM248 385h8v1h-8zM256 385h8v1h-8zM264 385h8v1h-8zM272 385h8v1h-8z"/><path fill="#b5c3ce" d="M32 386h8v1h-8zM40 386h8v1h-8zM48 386h8v1h-8zM56 386h8v1h-8zM32 387h8v1h-8zM40 387h8v1h-8zM48 387h8v1h-8zM56 387h8v1h-8zM40 388h8v1h-8zM48 388h8v1h-8zM56 388h8v1h-8zM64 388h8v1h-8zM72 388h8v1h-8zM80 388h8v1h-8zM88 388h8v1h-8zM96 388h8v1h-8zM104 388h8v1h-8zM112 388h8v1h-8zM120 388h8v1h-8zM128 388h8v1h-8zM136 388h8v1h-8zM144 388h8v1h-8zM152 388h8v1h-8zM160 388h8v1h-8zM168 388h8v1h-8zM40 389h8v1h-8zM48 389h8v1h-8zM56 389h8v1h-8zM64 389h8v1h-8zM72 389h8v1h-8zM80 389h8v1h-8zM88 389h8v1h-8zM96 389h8v1h-8zM104 389h8v1h-8zM112 389h8v1h-8zM120 389h8v1h-8zM40 390h8v1h-8zM48 390h8v1h-8z"/><path fill="#e4d7e4" d="M56 390h8v1h-8zM64 390h8v1h-8zM72 390h8v1h-8zM80 390h8v1h-8zM88 390h8v1h-8zM96 390h8v1h-8zM104 390h8v1h-8zM112 390h8v1h-8zM120 390h8v1h-8z"/><path fill="#b5c3ce" d="M48 391h8v1h-8zM56 391h8v1h-8zM64 391h8v1h-8zM72 391h8v1h-8zM80 391h8v1h-8zM88 391h8v1h-8zM96 391h8v1h-8zM104 391h8v1h-8zM112 391h8v1h-8zM120 391h8v1h-8zM128 391h8v1h-8zM136 391h8v1h-8zM144 391h8v1h-8zM152 391h8v1h-8zM160 391h8v1h-8zM168 391h8v1h-8zM176 391h8v1h-8zM184 391h8v1h-8zM192 391h8v1h-8zM200 391h8v1h-8zM208 391h8v1h-8zM216 391h8v1h-8zM224 391h8v1h-8zM232 391h8v1h-8zM240 391h8v1h-8zM248 391h8v1h-8zM256 391h8v1h-8zM264 391h8v1h-8zM272 391h8v1h-8zM48 392h8v1h-8zM56 392h8v1h-8zM64 392h8v1h-8zM72 392h8v1h-8zM80 392h8v1h-8zM88 392h8v1h-8zM96 392h8v1h-8zM104 392h8v1h-8zM112 392h8v1h-8zM120 392h8v1h-8zM128 392h8v1h-8zM136 392h8v1h-8zM144 392h8v1h-8zM152 392h8v1h-8zM160 392h8v1h-8zM168 392h8v1h-8zM176 392h8v1h-8zM184 392h8v1h-8zM192 392h8v1h-8zM200 392h8v1h-8zM208 392h8v1h-8zM216 392h8v1h-8zM224 392h8v1h-8zM232 392h8v1h-8zM240 392h8v1h-8zM248 392h8v1h-8zM256 392h8v1h-8zM264 392h8v1h-8zM272 392h8v1h-8zM48 393h8v1h-8zM56 393h8v1h-8zM64 393h8v1h-8zM72 393h8v1h-8zM80 393h8v1h-8z"/><path fill="#e4d7e4" d="M88 393h8v1h-8zM96 393h8v1h-8zM104 393h8v1h-8zM112 393h8v1h-8zM120 393h8v1h-8zM128 393h8v1h-8zM136 393h8v1h-8zM144 393h8v1h-8zM152 393h8v1h-8zM160 393h8v1h-8zM168 393h8v1h-8zM176 393h8v1h-8zM184 393h8v1h-8zM192 393h8v1h-8zM200 393h8v1h-8zM208 393h8v1h-8z"/><path fill="#b5c3ce" d="M48 394h8v1h-8zM56 394h8v1h-8zM64 394h8v1h-8zM48 395h8v1h-8zM56 395h8v1h-8zM64 395h8v1h-8zM48 396h8v1h-8zM56 396h8v1h-8zM48 397h8v1h-8zM56 397h8v1h-8zM48 398h8v1h-8zM56 398h8v1h-8zM48 399h8v1h-8zM56 399h8v1h-8zM48 400h8v1h-8zM56 400h8v1h-8zM56 401h8v1h-8zM64 401h8v1h-8zM72 401h8v1h-8zM80 401h8v1h-8zM88 401h8v1h-8zM96 401h8v1h-8zM104 401h8v1h-8zM112 401h8v1h-8zM120 401h8v1h-8zM128 401h8v1h-8zM136 401h8v1h-8zM144 401h8v1h-8zM152 401h8v1h-8zM160 401h8v1h-8zM168 401h8v1h-8zM176 401h8v1h-8zM184 401h8v1h-8zM192 401h8v1h-8zM200 401h8v1h-8zM208 401h8v1h-8zM216 401h8v1h-8zM224 401h8v1h-8zM232 401h8v1h-8zM240 401h8v1h-8zM248 401h8v1h-8zM256 401h8v1h-8zM264 401h8v1h-8zM272 401h8v1h-8zM56 402h8v1h-8zM64 402h8v1h-8zM72 402h8v1h-8zM80 402h8v1h-8zM88 402h8v1h-8zM96 402h8v1h-8zM104 402h8v1h-8zM112 402h8v1h-8zM120 402h8v1h-8zM128 402h8v1h-8zM136 402h8v1h-8zM144 402h8v1h-8zM152 402h8v1h-8zM160 402h8v1h-8zM168 402h8v1h-8zM176 402h8v1h-8zM184 402h8v1h-8zM192 402h8v1h-8zM200 402h8v1h-8zM208 402h8v1h-8zM216 402h8v1h-8zM224 402h8v1h-8zM232 402h8v1h-8zM240 402h8v1h-8zM248 402h8v1h-8zM256 402h8v1h-8zM264 402h8v1h-8zM272 402h8v1h-8zM56 403h8v1h-8zM64 403h8v1h-8zM72 403h8v1h-8zM80 403h8v1h-8zM88 403h8v1h-8zM96 403h8v1h-8zM104 403h8v1h-8zM112 403h8v1h-8zM120 403h8v1h-8zM128 403h8v1h-8zM136 403h8v1h-8zM144 403h8v1h-8zM152 403h8v1h-8zM160 403h8v1h-8zM168 403h8v1h-8zM176 403h8v1h-8zM184 403h8v1h-8zM192 403h8v1h-8zM200 403h8v1h-8zM208 403h8v1h-8zM216 403h8v1h-8zM224 403h8v1h-8zM232 403h8v1h-8zM240 403h8v1h-8zM248 403h8v1h-8zM256 403h8v1h-8zM264 403h8v1h-8zM272 403h8v1h-8zM56 404h8v1h-8zM64 404h8v1h-8zM72 404h8v1h-8zM80 404h8v1h-8zM88 404h8v1h-8zM96 404h8v1h-8zM104 404h8v1h-8zM112 404h8v1h-8zM120 404h8v1h-8zM128 404h8v1h-8zM136 404h8v1h-8zM144 404h8v1h-8zM152 404h8v1h-8zM160 404h8v1h-8zM168 404h8v1h-8zM176 404h8v1h-8zM184 404h8v1h-8zM192 404h8v1h-8zM200 404h8v1h-8zM208 404h8v1h-8zM56 405h8v1h-8zM64 405h8v1h-8zM72 405h8v1h-8zM80 405h8v1h-8zM88 405h8v1h-8zM96 405h8v1h-8zM104 405h8v1h-8zM112 405h8v1h-8zM120 405h8v1h-8zM128 405h8v1h-8zM136 405h8v1h-8zM144 405h8v1h-8zM152 405h8v1h-8zM160 405h8v1h-8zM168 405h8v1h-8zM176 405h8v1h-8zM184 405h8v1h-8zM192 405h8v1h-8zM200 405h8v1h-8zM208 405h8v1h-8zM56 406h8v1h-8zM64 406h8v1h-8zM72 406h8v1h-8z"/><path fill="#e4d7e4" d="M80 406h8v1h-8zM88 406h8v1h-8zM96 406h8v1h-8zM104 406h8v1h-8zM112 406h8v1h-8zM120 406h8v1h-8z"/><path fill="#b5c3ce" d="M128 406h8v1h-8zM56 407h8v1h-8zM64 407h8v1h-8zM72 407h8v1h-8zM56 408h8v1h-8zM56 409h8v1h-8zM64 410h8v1h-8zM72 410h8v1h-8zM80 410h8v1h-8z"/><path fill="#e9e9de" d="M88 410h8v1h-8zM96 410h8v1h-8z"/><path fill="#b5c3ce" d="M104 410h8v1h-8zM112 410h8v1h-8zM120 410h8v1h-8zM128 410h8v1h-8zM136 410h8v1h-8zM144 410h8v1h-8zM152 410h8v1h-8zM160 410h8v1h-8zM168 410h8v1h-8zM176 410h8v1h-8zM184 410h8v1h-8zM192 410h8v1h-8zM200 410h8v1h-8zM208 410h8v1h-8zM216 410h8v1h-8zM224 410h8v1h-8zM232 410h8v1h-8zM240 410h8v1h-8zM248 410h8v1h-8zM256 410h8v1h-8zM264 410h8v1h-8zM272 410h8v1h-8zM64 411h8v1h-8zM72 411h8v1h-8zM80 411h8v1h-8zM88 411h8v1h-8zM96 411h8v1h-8zM104 411h8v1h-8zM112 411h8v1h-8zM120 411h8v1h-8zM128 411h8v1h-8zM136 411h8v1h-8zM144 411h8v1h-8zM152 411h8v1h-8zM160 411h8v1h-8zM168 411h8v1h-8z"/><path fill="#c9b1ad" d="M176 411h8v1h-8zM184 411h8v1h-8zM192 411h8v1h-8zM200 411h8v1h-8zM208 411h8v1h-8zM216 411h8v1h-8z"/><path fill="#b5c3ce" d="M64 412h8v1h-8zM72 412h8v1h-8zM80 412h8v1h-8zM88 412h8v1h-8zM96 412h8v1h-8zM104 412h8v1h-8zM112 412h8v1h-8zM120 412h8v1h-8zM128 412h8v1h-8zM136 412h8v1h-8zM144 412h8v1h-8zM152 412h8v1h-8zM160 412h8v1h-8zM168 412h8v1h-8zM176 412h8v1h-8zM184 412h8v1h-8zM192 412h8v1h-8zM200 412h8v1h-8zM208 412h8v1h-8zM64 413h8v1h-8zM72 413h8v1h-8zM80 413h8v1h-8zM88 413h8v1h-8zM96 413h8v1h-8zM104 413h8v1h-8zM112 413h8v1h-8zM120 413h8v1h-8zM128 413h8v1h-8zM136 413h8v1h-8zM144 413h8v1h-8zM152 413h8v1h-8zM160 413h8v1h-8zM168 413h8v1h-8zM176 413h8v1h-8zM184 413h8v1h-8zM192 413h8v1h-8zM200 413h8v1h-8zM208 413h8v1h-8zM64 414h8v1h-8zM72 414h8v1h-8zM80 414h8v1h-8zM88 414h8v1h-8zM96 414h8v1h-8zM104 414h8v1h-8zM112 414h8v1h-8zM120 414h8v1h-8zM128 414h8v1h-8zM136 414h8v1h-8zM144 414h8v1h-8zM152 414h8v1h-8zM160 414h8v1h-8zM168 414h8v1h-8zM176 414h8v1h-8zM184 414h8v1h-8zM192 414h8v1h-8zM200 414h8v1h-8zM208 414h8v1h-8zM64 415h8v1h-8zM72 415h8v1h-8zM80 415h8v1h-8zM88 415h8v1h-8zM96 415h8v1h-8zM104 415h8v1h-8zM112 415h8v1h-8zM120 415h8v1h-8zM128 415h8v1h-8zM136 415h8v1h-8zM144 415h8v1h-8zM152 415h8v1h-8zM160 415h8v1h-8zM168 415h8v1h-8zM64 416h8v1h-8zM72 416h8v1h-8zM80 416h8v1h-8zM88 416h8v1h-8zM96 416h8v1h-8zM64 417h8v1h-8zM72 417h8v1h-8zM80 417h8v1h-8zM88 417h8v1h-8zM96 417h8v1h-8zM64 418h8v1h-8zM72 418h8v1h-8zM80 418h8v1h-8zM88 418h8v1h-8zM96 418h8v1h-8zM72 419h8v1h-8zM80 419h8v1h-8z"/><path fill="#c2d1c5" d="M88 419h8v1h-8zM96 419h8v1h-8zM104 419h8v1h-8zM112 419h8v1h-8zM120 419h8v1h-8zM128 419h8v1h-8zM136 419h8v1h-8zM144 419h8v1h-8zM152 419h8v1h-8zM160 419h8v1h-8zM168 419h8v1h-8zM176 419h8v1h-8zM184 419h8v1h-8zM192 419h8v1h-8zM200 419h8v1h-8zM208 419h8v1h-8zM216 419h8v1h-8zM224 419h8v1h-8zM232 419h8v1h-8zM240 419h8v1h-8zM248 419h8v1h-8zM256 419h8v1h-8zM264 419h8v1h-8zM272 419h8v1h-8z"/><path fill="#b5c3ce" d="M72 420h8v1h-8zM80 420h8v1h-8zM88 420h8v1h-8zM96 420h8v1h-8zM104 420h8v1h-8zM112 420h8v1h-8zM120 420h8v1h-8zM128 420h8v1h-8zM136 420h8v1h-8zM144 420h8v1h-8zM152 420h8v1h-8zM160 420h8v1h-8zM168 420h8v1h-8zM176 420h8v1h-8zM184 420h8v1h-8zM192 420h8v1h-8zM200 420h8v1h-8zM208 420h8v1h-8zM216 420h8v1h-8zM224 420h8v1h-8zM232 420h8v1h-8zM240 420h8v1h-8zM248 420h8v1h-8zM256 420h8v1h-8zM264 420h8v1h-8zM272 420h8v1h-8zM72 421h8v1h-8zM80 421h8v1h-8zM88 421h8v1h-8zM96 421h8v1h-8zM104 421h8v1h-8zM112 421h8v1h-8zM120 421h8v1h-8zM128 421h8v1h-8zM136 421h8v1h-8zM144 421h8v1h-8zM152 421h8v1h-8zM160 421h8v1h-8zM168 421h8v1h-8zM176 421h8v1h-8zM184 421h8v1h-8zM192 421h8v1h-8zM200 421h8v1h-8zM208 421h8v1h-8zM216 421h8v1h-8zM224 421h8v1h-8zM232 421h8v1h-8zM240 421h8v1h-8zM248 421h8v1h-8zM256 421h8v1h-8zM264 421h8v1h-8zM272 421h8v1h-8zM72 422h8v1h-8zM80 422h8v1h-8zM88 422h8v1h-8zM96 422h8v1h-8zM104 422h8v1h-8zM112 422h8v1h-8zM120 422h8v1h-8zM128 422h8v1h-8zM136 422h8v1h-8zM144 422h8v1h-8zM152 422h8v1h-8zM160 422h8v1h-8zM168 422h8v1h-8zM176 422h8v1h-8zM184 422h8v1h-8zM192 422h8v1h-8zM200 422h8v1h-8zM208 422h8v1h-8zM216 422h8v1h-8zM224 422h8v1h-8zM232 422h8v1h-8zM240 422h8v1h-8zM248 422h8v1h-8zM256 422h8v1h-8zM264 422h8v1h-8zM272 422h8v1h-8zM72 423h8v1h-8zM80 423h8v1h-8zM88 423h8v1h-8zM96 423h8v1h-8zM104 423h8v1h-8zM112 423h8v1h-8zM120 423h8v1h-8zM128 423h8v1h-8zM136 423h8v1h-8zM144 423h8v1h-8zM152 423h8v1h-8zM160 423h8v1h-8zM168 423h8v1h-8zM176 423h8v1h-8zM184 423h8v1h-8zM192 423h8v1h-8zM200 423h8v1h-8zM208 423h8v1h-8zM216 423h8v1h-8zM224 423h8v1h-8zM232 423h8v1h-8zM240 423h8v1h-8zM248 423h8v1h-8zM256 423h8v1h-8zM264 423h8v1h-8zM272 423h8v1h-8zM72 424h8v1h-8zM80 424h8v1h-8zM88 424h8v1h-8zM96 424h8v1h-8zM104 424h8v1h-8zM112 424h8v1h-8zM120 424h8v1h-8zM128 424h8v1h-8zM136 424h8v1h-8zM144 424h8v1h-8zM152 424h8v1h-8zM160 424h8v1h-8zM168 424h8v1h-8zM176 424h8v1h-8zM184 424h8v1h-8zM192 424h8v1h-8zM200 424h8v1h-8zM208 424h8v1h-8zM216 424h8v1h-8zM224 424h8v1h-8zM232 424h8v1h-8zM240 424h8v1h-8zM248 424h8v1h-8zM256 424h8v1h-8zM264 424h8v1h-8zM272 424h8v1h-8zM72 425h8v1h-8zM80 425h8v1h-8zM88 425h8v1h-8zM96 425h8v1h-8zM104 425h8v1h-8zM112 425h8v1h-8zM120 425h8v1h-8zM128 425h8v1h-8zM136 425h8v1h-8zM144 425h8v1h-8zM152 425h8v1h-8zM160 425h8v1h-8zM168 425h8v1h-8zM176 425h8v1h-8zM184 425h8v1h-8zM192 425h8v1h-8zM200 425h8v1h-8zM208 425h8v1h-8zM216 425h8v1h-8zM224 425h8v1h-8zM232 425h8v1h-8zM72 426h8v1h-8zM80 426h8v1h-8zM88 426h8v1h-8zM96 426h8v1h-8zM104 426h8v1h-8zM112 426h8v1h-8zM120 426h8v1h-8zM128 426h8v1h-8zM72 427h8v1h-8zM80 427h8v1h-8zM88 427h8v1h-8zM96 427h8v1h-8zM104 427h8v1h-8zM112 427h8v1h-8zM120 427h8v1h-8zM128 427h8v1h-8zM72 428h8v1h-8zM80 428h8v1h-8zM88 428h8v1h-8zM96 428h8v1h-8zM72 429h8v1h-8zM80 429h8v1h-8zM88 429h8v1h-8zM72 430h8v1h-8zM80 430h8v1h-8zM88 430h8v1h-8zM80 431h8v1h-8zM88 431h8v1h-8zM96 431h8v1h-8zM104 431h8v1h-8zM112 431h8v1h-8zM120 431h8v1h-8zM128 431h8v1h-8zM136 431h8v1h-8zM144 431h8v1h-8zM152 431h8v1h-8zM160 431h8v1h-8zM168 431h8v1h-8zM176 431h8v1h-8zM184 431h8v1h-8zM192 431h8v1h-8zM200 431h8v1h-8zM208 431h8v1h-8zM80 432h8v1h-8zM88 432h8v1h-8zM96 432h8v1h-8zM104 432h8v1h-8zM112 432h8v1h-8zM120 432h8v1h-8zM128 432h8v1h-8zM136 432h8v1h-8zM144 432h8v1h-8zM152 432h8v1h-8zM160 432h8v1h-8zM168 432h8v1h-8z"/><path fill="#e4d7e4" d="M176 432h8v1h-8zM184 432h8v1h-8zM192 432h8v1h-8zM200 432h8v1h-8zM208 432h8v1h-8zM216 432h8v1h-8z"/><path fill="#b5c3ce" d="M80 433h8v1h-8zM88 433h8v1h-8zM88 434h8v1h-8zM96 434h8v1h-8zM104 434h8v1h-8zM112 434h8v1h-8zM120 434h8v1h-8zM128 434h8v1h-8zM136 434h8v1h-8zM144 434h8v1h-8zM152 434h8v1h-8zM160 434h8v1h-8zM168 434h8v1h-8zM176 434h8v1h-8zM184 434h8v1h-8zM192 434h8v1h-8zM200 434h8v1h-8zM208 434h8v1h-8zM216 434h8v1h-8zM224 434h8v1h-8zM232 434h8v1h-8zM240 434h8v1h-8zM248 434h8v1h-8zM256 434h8v1h-8zM264 434h8v1h-8zM272 434h8v1h-8zM88 435h8v1h-8zM96 435h8v1h-8zM104 435h8v1h-8zM112 435h8v1h-8zM120 435h8v1h-8zM128 435h8v1h-8zM136 435h8v1h-8zM144 435h8v1h-8zM152 435h8v1h-8zM160 435h8v1h-8zM168 435h8v1h-8zM176 435h8v1h-8zM184 435h8v1h-8zM192 435h8v1h-8zM200 435h8v1h-8zM208 435h8v1h-8zM216 435h8v1h-8zM224 435h8v1h-8zM232 435h8v1h-8zM240 435h8v1h-8zM248 435h8v1h-8zM256 435h8v1h-8zM264 435h8v1h-8zM272 435h8v1h-8zM88 436h8v1h-8zM96 436h8v1h-8zM104 436h8v1h-8zM112 436h8v1h-8zM120 436h8v1h-8zM128 436h8v1h-8zM136 436h8v1h-8zM144 436h8v1h-8zM152 436h8v1h-8zM160 436h8v1h-8zM168 436h8v1h-8zM176 436h8v1h-8zM184 436h8v1h-8zM192 436h8v1h-8zM200 436h8v1h-8zM208 436h8v1h-8zM216 436h8v1h-8zM224 436h8v1h-8zM232 436h8v1h-8zM240 436h8v1h-8zM248 436h8v1h-8zM256 436h8v1h-8zM264 436h8v1h-8zM272 436h8v1h-8zM88 437h8v1h-8zM96 437h8v1h-8zM104 437h8v1h-8zM112 437h8v1h-8zM120 437h8v1h-8zM128 437h8v1h-8zM136 437h8v1h-8zM144 437h8v1h-8zM152 437h8v1h-8zM160 437h8v1h-8zM168 437h8v1h-8zM176 437h8v1h-8zM184 437h8v1h-8zM192 437h8v1h-8zM200 437h8v1h-8zM208 437h8v1h-8zM216 437h8v1h-8zM224 437h8v1h-8zM232 437h8v1h-8zM240 437h8v1h-8zM248 437h8v1h-8zM256 437h8v1h-8zM264 437h8v1h-8zM272 437h8v1h-8zM88 438h8v1h-8zM96 438h8v1h-8zM104 438h8v1h-8zM112 438h8v1h-8zM120 438h8v1h-8zM128 438h8v1h-8zM136 438h8v1h-8zM144 438h8v1h-8zM152 438h8v1h-8zM160 438h8v1h-8zM168 438h8v1h-8zM176 438h8v1h-8zM184 438h8v1h-8zM192 438h8v1h-8zM200 438h8v1h-8zM208 438h8v1h-8zM216 438h8v1h-8zM224 438h8v1h-8zM232 438h8v1h-8zM240 438h8v1h-8zM248 438h8v1h-8zM256 438h8v1h-8zM264 438h8v1h-8zM272 438h8v1h-8zM88 439h8v1h-8zM88 440h8v1h-8zM88 441h8v1h-8zM96 442h8v1h-8zM104 442h8v1h-8zM112 442h8v1h-8zM120 442h8v1h-8zM128 442h8v1h-8zM136 442h8v1h-8zM144 442h8v1h-8zM152 442h8v1h-8zM160 442h8v1h-8zM168 442h8v1h-8zM176 442h8v1h-8zM184 442h8v1h-8zM192 442h8v1h-8zM200 442h8v1h-8zM208 442h8v1h-8zM216 442h8v1h-8zM224 442h8v1h-8zM232 442h8v1h-8zM240 442h8v1h-8zM248 442h8v1h-8zM256 442h8v1h-8zM264 442h8v1h-8zM272 442h8v1h-8zM96 443h8v1h-8zM104 443h8v1h-8zM112 443h8v1h-8zM120 443h8v1h-8zM128 443h8v1h-8zM136 443h8v1h-8zM144 443h8v1h-8zM152 443h8v1h-8zM160 443h8v1h-8zM168 443h8v1h-8zM176 443h8v1h-8zM184 443h8v1h-8zM192 443h8v1h-8zM200 443h8v1h-8zM208 443h8v1h-8zM216 443h8v1h-8zM224 443h8v1h-8zM232 443h8v1h-8zM240 443h8v1h-8zM248 443h8v1h-8zM256 443h8v1h-8zM264 443h8v1h-8zM272 443h8v1h-8zM96 444h8v1h-8zM104 444h8v1h-8zM112 444h8v1h-8zM120 444h8v1h-8zM128 444h8v1h-8zM136 444h8v1h-8zM144 444h8v1h-8zM152 444h8v1h-8zM160 444h8v1h-8zM168 444h8v1h-8zM176 444h8v1h-8zM184 444h8v1h-8zM192 444h8v1h-8zM200 444h8v1h-8zM208 444h8v1h-8zM216 444h8v1h-8zM224 444h8v1h-8zM232 444h8v1h-8zM240 444h8v1h-8zM248 444h8v1h-8zM256 444h8v1h-8zM264 444h8v1h-8zM272 444h8v1h-8zM96 445h8v1h-8zM104 445h8v1h-8zM112 445h8v1h-8zM120 445h8v1h-8zM128 445h8v1h-8zM136 445h8v1h-8zM144 445h8v1h-8zM152 445h8v1h-8zM160 445h8v1h-8zM168 445h8v1h-8zM176 445h8v1h-8zM184 445h8v1h-8zM192 445h8v1h-8zM200 445h8v1h-8zM208 445h8v1h-8zM216 445h8v1h-8zM224 445h8v1h-8zM232 445h8v1h-8zM240 445h8v1h-8zM248 445h8v1h-8zM256 445h8v1h-8zM264 445h8v1h-8zM272 445h8v1h-8zM96 446h8v1h-8zM104 446h8v1h-8zM112 446h8v1h-8zM120 446h8v1h-8zM128 446h8v1h-8zM136 446h8v1h-8zM144 446h8v1h-8zM152 446h8v1h-8zM160 446h8v1h-8zM168 446h8v1h-8zM176 446h8v1h-8zM184 446h8v1h-8zM192 446h8v1h-8zM200 446h8v1h-8zM208 446h8v1h-8zM216 446h8v1h-8zM224 446h8v1h-8zM232 446h8v1h-8zM240 446h8v1h-8zM248 446h8v1h-8zM256 446h8v1h-8zM264 446h8v1h-8zM272 446h8v1h-8zM96 447h8v1h-8zM104 447h8v1h-8zM112 447h8v1h-8zM120 447h8v1h-8zM128 447h8v1h-8zM136 447h8v1h-8zM144 447h8v1h-8zM152 447h8v1h-8zM160 447h8v1h-8zM168 447h8v1h-8zM176 447h8v1h-8zM184 447h8v1h-8zM192 447h8v1h-8zM200 447h8v1h-8zM208 447h8v1h-8zM216 447h8v1h-8zM224 447h8v1h-8zM232 447h8v1h-8zM240 447h8v1h-8zM248 447h8v1h-8zM256 447h8v1h-8zM264 447h8v1h-8zM96 448h8v1h-8zM104 448h8v1h-8zM112 448h8v1h-8zM120 448h8v1h-8zM96 449h8v1h-8zM104 449h8v1h-8zM104 450h8v1h-8zM112 450h8v1h-8zM120 450h8v1h-8zM128 450h8v1h-8zM136 450h8v1h-8zM144 450h8v1h-8zM152 450h8v1h-8zM160 450h8v1h-8zM168 450h8v1h-8zM176 450h8v1h-8zM184 450h8v1h-8zM192 450h8v1h-8zM200 450h8v1h-8zM208 450h8v1h-8zM216 450h8v1h-8zM224 450h8v1h-8zM232 450h8v1h-8zM240 450h8v1h-8zM248 450h8v1h-8zM256 450h8v1h-8zM264 450h8v1h-8zM272 450h8v1h-8zM104 451h8v1h-8zM112 451h8v1h-8zM120 451h8v1h-8zM128 451h8v1h-8zM136 451h8v1h-8zM144 451h8v1h-8zM152 451h8v1h-8zM160 451h8v1h-8zM168 451h8v1h-8zM176 451h8v1h-8zM184 451h8v1h-8zM192 451h8v1h-8zM200 451h8v1h-8zM208 451h8v1h-8zM104 452h8v1h-8zM112 452h8v1h-8zM120 452h8v1h-8zM128 452h8v1h-8zM136 452h8v1h-8zM144 452h8v1h-8zM152 452h8v1h-8zM160 452h8v1h-8zM168 452h8v1h-8zM176 452h8v1h-8zM184 452h8v1h-8zM192 452h8v1h-8zM200 452h8v1h-8zM208 452h8v1h-8zM112 453h8v1h-8zM120 453h8v1h-8zM128 453h8v1h-8zM136 453h8v1h-8zM144 453h8v1h-8zM152 453h8v1h-8zM160 453h8v1h-8zM168 453h8v1h-8zM176 453h8v1h-8zM184 453h8v1h-8zM192 453h8v1h-8zM200 453h8v1h-8zM208 453h8v1h-8zM216 453h8v1h-8zM224 453h8v1h-8zM232 453h8v1h-8zM240 453h8v1h-8zM248 453h8v1h-8zM256 453h8v1h-8zM264 453h8v1h-8zM272 453h8v1h-8zM112 454h8v1h-8zM120 454h8v1h-8zM128 454h8v1h-8zM136 454h8v1h-8zM144 454h8v1h-8zM152 454h8v1h-8zM160 454h8v1h-8zM168 454h8v1h-8zM176 454h8v1h-8zM184 454h8v1h-8zM192 454h8v1h-8zM200 454h8v1h-8zM208 454h8v1h-8zM216 454h8v1h-8zM224 454h8v1h-8zM232 454h8v1h-8zM240 454h8v1h-8zM248 454h8v1h-8zM256 454h8v1h-8zM264 454h8v1h-8zM272 454h8v1h-8zM112 455h8v1h-8zM120 455h8v1h-8zM128 455h8v1h-8zM136 455h8v1h-8zM144 455h8v1h-8zM152 455h8v1h-8zM160 455h8v1h-8zM168 455h8v1h-8zM176 455h8v1h-8zM184 455h8v1h-8zM192 455h8v1h-8zM200 455h8v1h-8zM208 455h8v1h-8zM216 455h8v1h-8zM224 455h8v1h-8zM232 455h8v1h-8zM240 455h8v1h-8zM248 455h8v1h-8zM256 455h8v1h-8zM264 455h8v1h-8zM272 455h8v1h-8zM112 456h8v1h-8zM120 456h8v1h-8zM128 456h8v1h-8zM136 456h8v1h-8zM144 456h8v1h-8zM152 456h8v1h-8zM160 456h8v1h-8zM168 456h8v1h-8zM176 456h8v1h-8zM184 456h8v1h-8zM192 456h8v1h-8zM200 456h8v1h-8zM208 456h8v1h-8zM216 456h8v1h-8zM224 456h8v1h-8zM232 456h8v1h-8zM240 456h8v1h-8zM248 456h8v1h-8zM256 456h8v1h-8zM264 456h8v1h-8zM272 456h8v1h-8zM112 457h8v1h-8zM120 457h8v1h-8zM128 457h8v1h-8zM136 457h8v1h-8zM144 457h8v1h-8zM152 457h8v1h-8zM160 457h8v1h-8zM168 457h8v1h-8zM176 457h8v1h-8zM184 457h8v1h-8zM192 457h8v1h-8zM200 457h8v1h-8zM208 457h8v1h-8zM112 458h8v1h-8zM120 458h8v1h-8zM128 458h8v1h-8zM136 458h8v1h-8zM144 458h8v1h-8zM152 458h8v1h-8zM160 458h8v1h-8zM168 458h8v1h-8zM120 459h8v1h-8zM128 459h8v1h-8zM136 459h8v1h-8zM144 459h8v1h-8zM152 459h8v1h-8zM160 459h8v1h-8zM168 459h8v1h-8zM176 459h8v1h-8zM184 459h8v1h-8zM192 459h8v1h-8zM200 459h8v1h-8zM208 459h8v1h-8zM216 459h8v1h-8zM224 459h8v1h-8zM232 459h8v1h-8zM240 459h8v1h-8zM248 459h8v1h-8zM256 459h8v1h-8zM264 459h8v1h-8zM272 459h8v1h-8zM128 460h8v1h-8zM136 460h8v1h-8zM144 460h8v1h-8zM152 460h8v1h-8zM160 460h8v1h-8zM168 460h8v1h-8zM176 460h8v1h-8zM184 460h8v1h-8zM192 460h8v1h-8zM200 460h8v1h-8zM208 460h8v1h-8zM216 460h8v1h-8z"/><path fill="#c9b1ad" d="M224 460h8v1h-8zM232 460h8v1h-8zM240 460h8v1h-8zM248 460h8v1h-8zM256 460h8v1h-8zM264 460h8v1h-8zM272 460h8v1h-8z"/><path fill="#b5c3ce" d="M128 461h8v1h-8zM136 461h8v1h-8zM144 461h8v1h-8zM152 461h8v1h-8zM160 461h8v1h-8zM168 461h8v1h-8zM176 461h8v1h-8zM184 461h8v1h-8zM192 461h8v1h-8zM200 461h8v1h-8zM208 461h8v1h-8zM216 461h8v1h-8zM224 461h8v1h-8zM232 461h8v1h-8zM240 461h8v1h-8zM248 461h8v1h-8zM256 461h8v1h-8zM264 461h8v1h-8zM272 461h8v1h-8zM136 462h8v1h-8zM144 462h8v1h-8zM152 462h8v1h-8zM160 462h8v1h-8zM168 462h8v1h-8zM176 462h8v1h-8zM184 462h8v1h-8zM192 462h8v1h-8zM200 462h8v1h-8zM208 462h8v1h-8zM216 462h8v1h-8zM152 463h8v1h-8zM160 463h8v1h-8zM168 463h8v1h-8zM176 463h8v1h-8zM184 463h8v1h-8zM192 463h8v1h-8zM200 463h8v1h-8zM208 463h8v1h-8zM216 463h8v1h-8zM224 463h8v1h-8zM232 463h8v1h-8zM240 463h8v1h-8zM248 463h8v1h-8zM256 463h8v1h-8zM264 463h8v1h-8zM272 463h8v1h-8zM160 464h8v1h-8zM168 464h8v1h-8zM176 464h8v1h-8zM184 464h8v1h-8zM192 464h8v1h-8zM200 464h8v1h-8zM208 464h8v1h-8zM216 464h8v1h-8zM224 464h8v1h-8zM232 464h8v1h-8zM240 464h8v1h-8zM248 464h8v1h-8zM256 464h8v1h-8zM264 464h8v1h-8zM272 464h8v1h-8zM160 465h8v1h-8zM168 465h8v1h-8zM176 465h8v1h-8zM184 465h8v1h-8zM192 465h8v1h-8zM200 465h8v1h-8zM208 465h8v1h-8zM160 466h8v1h-8zM168 466h8v1h-8zM176 466h8v1h-8zM184 466h8v1h-8zM192 466h8v1h-8zM168 467h8v1h-8zM176 467h8v1h-8zM184 467h8v1h-8zM192 467h8v1h-8zM200 467h8v1h-8zM208 467h8v1h-8zM216 467h8v1h-8zM176 468h8v1h-8zM184 468h8v1h-8zM192 468h8v1h-8zM200 468h8v1h-8zM208 468h8v1h-8zM216 468h8v1h-8zM224 468h8v1h-8zM232 468h8v1h-8zM240 468h8v1h-8zM248 468h8v1h-8zM256 468h8v1h-8zM264 468h8v1h-8zM272 468h8v1h-8zM176 469h8v1h-8zM184 469h8v1h-8zM192 469h8v1h-8zM200 469h8v1h-8zM208 469h8v1h-8zM216 469h8v1h-8zM224 469h8v1h-8zM232 469h8v1h-8zM240 469h8v1h-8zM248 469h8v1h-8zM256 469h8v1h-8zM264 469h8v1h-8zM272 469h8v1h-8zM176 470h8v1h-8zM184 470h8v1h-8zM192 470h8v1h-8zM200 470h8v1h-8zM208 470h8v1h-8zM216 470h8v1h-8zM176 471h8v1h-8zM184 471h8v1h-8zM192 471h8v1h-8zM200 471h8v1h-8zM208 471h8v1h-8zM216 471h8v1h-8zM176 472h8v1h-8zM184 472h8v1h-8zM192 472h8v1h-8zM200 472h8v1h-8zM208 472h8v1h-8zM176 473h8v1h-8zM184 473h8v1h-8zM192 473h8v1h-8zM200 473h8v1h-8zM208 473h8v1h-8zM176 474h8v1h-8zM184 474h8v1h-8zM192 474h8v1h-8zM216 475h8v1h-8zM224 475h8v1h-8zM232 475h8v1h-8zM240 475h8v1h-8zM248 475h8v1h-8zM256 475h8v1h-8zM264 475h8v1h-8zM272 475h8v1h-8zM216 476h8v1h-8zM224 476h8v1h-8zM232 476h8v1h-8zM240 476h8v1h-8zM248 476h8v1h-8zM256 476h8v1h-8zM264 476h8v1h-8zM272 476h8v1h-8zM216 477h8v1h-8zM224 477h8v1h-8zM232 477h8v1h-8zM240 477h8v1h-8zM248 477h8v1h-8zM256 477h8v1h-8zM264 477h8v1h-8zM272 477h8v1h-8zM216 478h8v1h-8zM224 478h8v1h-8zM232 478h8v1h-8zM240 478h8v1h-8zM248 478h8v1h-8zM256 478h8v1h-8zM264 478h8v1h-8zM272 478h8v1h-8zM216 479h8v1h-8zM224 479h8v1h-8zM232 479h8v1h-8zM240 479h8v1h-8zM248 479h8v1h-8zM256 479h8v1h-8zM264 479h8v1h-8zM272 479h8v1h-8zM216 480h8v1h-8z"/><path fill="#e4d7e4" d="M224 480h8v1h-8zM232 480h8v1h-8zM240 480h8v1h-8zM248 480h8v1h-8zM256 480h8v1h-8zM264 480h8v1h-8zM272 480h8v1h-8z"/><path fill="#b5c3ce" d="M216 481h8v1h-8zM216 482h8v1h-8zM216 483h8v1h-8zM216 484h8v1h-8zM224 485h8v1h-8zM232 485h8v1h-8zM240 485h8v1h-8z"/><path fill="#c2d1c5" d="M248 485h8v1h-8zM256 485h8v1h-8zM264 485h8v1h-8zM272 485h8v1h-8z"/><path fill="#b5c3ce" d="M224 486h8v1h-8zM232 486h8v1h-8zM240 486h8v1h-8zM248 486h8v1h-8zM256 486h8v1h-8zM264 486h8v1h-8zM272 486h8v1h-8zM224 487h8v1h-8zM232 487h8v1h-8zM240 487h8v1h-8zM248 487h8v1h-8zM256 487h8v1h-8zM264 487h8v1h-8zM272 487h8v1h-8zM224 488h8v1h-8zM232 488h8v1h-8zM240 488h8v1h-8zM248 488h8v1h-8zM256 488h8v1h-8zM264 488h8v1h-8zM272 488h8v1h-8zM224 489h8v1h-8zM232 489h8v1h-8zM240 489h8v1h-8zM248 489h8v1h-8zM256 489h8v1h-8zM264 489h8v1h-8zM272 489h8v1h-8zM224 490h8v1h-8zM232 490h8v1h-8zM240 490h8v1h-8zM248 490h8v1h-8zM256 490h8v1h-8zM264 490h8v1h-8zM272 490h8v1h-8zM224 491h8v1h-8zM232 491h8v1h-8zM240 491h8v1h-8zM248 491h8v1h-8zM256 491h8v1h-8zM264 491h8v1h-8zM272 491h8v1h-8zM224 492h8v1h-8zM232 492h8v1h-8zM240 492h8v1h-8zM248 492h8v1h-8zM256 492h8v1h-8zM264 492h8v1h-8zM272 492h8v1h-8zM224 493h8v1h-8zM232 493h8v1h-8zM240 493h8v1h-8zM248 493h8v1h-8zM256 493h8v1h-8zM264 493h8v1h-8zM272 493h8v1h-8zM224 494h8v1h-8zM232 494h8v1h-8zM240 494h8v1h-8zM248 494h8v1h-8zM256 494h8v1h-8zM264 494h8v1h-8zM272 494h8v1h-8zM224 495h8v1h-8zM232 495h8v1h-8zM240 495h8v1h-8zM248 495h8v1h-8zM256 495h8v1h-8zM264 495h8v1h-8zM272 495h8v1h-8zM224 496h8v1h-8zM232 496h8v1h-8zM240 496h8v1h-8zM248 496h8v1h-8zM256 496h8v1h-8zM264 496h8v1h-8zM272 496h8v1h-8zM224 497h8v1h-8zM232 497h8v1h-8zM240 497h8v1h-8zM248 497h8v1h-8zM256 497h8v1h-8zM264 497h8v1h-8zM272 497h8v1h-8zM224 498h8v1h-8zM232 498h8v1h-8zM240 498h8v1h-8zM248 498h8v1h-8zM256 498h8v1h-8zM264 498h8v1h-8zM224 499h8v1h-8zM232 499h8v1h-8zM224 500h8v1h-8zM232 500h8v1h-8zM224 501h8v1h-8zM232 501h8v1h-8zM240 502h8v1h-8zM248 502h8v1h-8zM256 502h8v1h-8zM264 502h8v1h-8zM272 502h8v1h-8zM240 503h8v1h-8zM248 503h8v1h-8zM256 503h8v1h-8zM264 503h8v1h-8zM272 503h8v1h-8zM240 504h8v1h-8zM248 504h8v1h-8zM256 504h8v1h-8zM264 504h8v1h-8zM272 504h8v1h-8zM240 505h8v1h-8zM248 505h8v1h-8zM256 505h8v1h-8zM264 505h8v1h-8zM272 505h8v1h-8zM248 506h8v1h-8zM256 506h8v1h-8zM264 506h8v1h-8zM272 506h8v1h-8zM248 507h8v1h-8zM256 507h8v1h-8zM264 507h8v1h-8zM272 507h8v1h-8zM256 508h8v1h-8zM264 508h8v1h-8zM272 508h8v1h-8zM264 509h8v1h-8zM272 509h8v1h-8zM272 510h8v1h-8zM272 511h8v1h-8z"/><path fill="#e4d7e4" d="M0 512h8v1H0z"/><path fill="#c2d1c5" d="M8 512h8v1H8z"/><path fill="#e4d7e4" d="M16 513h8v1h-8zM24 513h8v1h-8zM32 513h8v1h-8zM40 513h8v1h-8zM16 514h8v1h-8zM24 515h8v1h-8zM32 515h8v1h-8zM40 515h8v1h-8zM48 515h8v1h-8z"/><path fill="#c2d1c5" d="M56 515h8v1h-8zM64 515h8v1h-8zM72 515h8v1h-8zM80 515h8v1h-8zM88 515h8v1h-8zM96 515h8v1h-8zM104 515h8v1h-8zM112 515h8v1h-8z"/><path fill="#b5c3ce" d="M120 515h8v1h-8zM128 515h8v1h-8zM136 515h8v1h-8zM144 515h8v1h-8zM152 515h8v1h-8zM160 515h8v1h-8zM168 515h8v1h-8zM176 515h8v1h-8zM184 515h8v1h-8zM192 515h8v1h-8zM200 515h8v1h-8zM208 515h8v1h-8zM216 515h8v1h-8z"/><path fill="#e9e9de" d="M224 515h8v1h-8zM232 515h8v1h-8zM240 515h8v1h-8z"/><path fill="#c2d1c5" d="M248 515h8v1h-8zM256 515h8v1h-8zM264 515h8v1h-8zM272 515h8v1h-8z"/><path fill="#e4d7e4" d="M48 516h8v1h-8z"/><path fill="#c9b1ad" d="M56 516h8v1h-8zM64 516h8v1h-8zM72 516h8v1h-8z"/><path fill="#e4d7e4" d="M80 516h8v1h-8zM88 516h8v1h-8zM96 516h8v1h-8z"/><path fill="#b5c3ce" d="M104 516h8v1h-8zM112 516h8v1h-8zM120 516h8v1h-8zM128 516h8v1h-8zM136 516h8v1h-8zM144 516h8v1h-8zM152 516h8v1h-8zM160 516h8v1h-8z"/><path fill="#c9b1ad" d="M168 516h8v1h-8zM176 516h8v1h-8zM184 516h8v1h-8zM192 516h8v1h-8zM200 516h8v1h-8zM208 516h8v1h-8zM216 516h8v1h-8z"/><path fill="#e4d7e4" d="M88 517h8v1h-8zM96 518h8v1h-8zM104 518h8v1h-8zM112 518h8v1h-8zM120 518h8v1h-8zM128 518h8v1h-8zM136 518h8v1h-8zM144 518h8v1h-8zM152 518h8v1h-8zM160 518h8v1h-8zM168 518h8v1h-8zM176 518h8v1h-8zM184 518h8v1h-8zM192 518h8v1h-8zM200 518h8v1h-8zM208 518h8v1h-8zM216 518h8v1h-8zM224 518h8v1h-8zM232 518h8v1h-8zM240 518h8v1h-8zM248 518h8v1h-8zM256 518h8v1h-8zM264 518h8v1h-8zM272 518h8v1h-8zM128 519h8v1h-8zM136 519h8v1h-8zM144 519h8v1h-8zM152 519h8v1h-8zM160 519h8v1h-8zM168 519h8v1h-8zM176 519h8v1h-8zM184 519h8v1h-8zM192 519h8v1h-8zM200 519h8v1h-8zM208 519h8v1h-8zM216 519h8v1h-8z"/><path fill="#b9b9b9" d="M224 519h8v1h-8zM232 519h8v1h-8zM240 519h8v1h-8zM248 519h8v1h-8zM256 519h8v1h-8zM264 519h8v1h-8zM272 519h8v1h-8z"/><path fill="#e4d7e4" d="M136 520h8v1h-8zM144 520h8v1h-8zM152 520h8v1h-8zM160 520h8v1h-8zM168 520h8v1h-8zM176 520h8v1h-8zM184 520h8v1h-8zM192 520h8v1h-8zM200 520h8v1h-8zM208 520h8v1h-8zM216 520h8v1h-8zM216 521h8v1h-8zM224 521h8v1h-8zM232 521h8v1h-8zM240 521h8v1h-8zM248 521h8v1h-8zM256 521h8v1h-8zM264 521h8v1h-8z"/><path fill="#e9e9de" d="M272 521h8v1h-8z"/><path fill="#e4d7e4" d="M216 522h8v1h-8zM224 522h8v1h-8zM232 522h8v1h-8zM240 522h8v1h-8zM248 522h8v1h-8zM256 522h8v1h-8zM264 522h8v1h-8zM272 522h8v1h-8zM216 523h8v1h-8zM224 523h8v1h-8zM232 523h8v1h-8zM240 523h8v1h-8zM248 523h8v1h-8zM256 523h8v1h-8zM264 523h8v1h-8zM272 523h8v1h-8zM224 524h8v1h-8zM232 524h8v1h-8zM240 524h8v1h-8zM248 524h8v1h-8zM256 524h8v1h-8zM264 524h8v1h-8zM272 524h8v1h-8zM224 525h8v1h-8zM232 525h8v1h-8zM240 525h8v1h-8zM248 525h8v1h-8zM256 525h8v1h-8zM264 525h8v1h-8zM272 525h8v1h-8zM224 526h8v1h-8zM232 526h8v1h-8zM240 526h8v1h-8zM248 526h8v1h-8zM256 526h8v1h-8zM264 526h8v1h-8zM272 526h8v1h-8zM224 527h8v1h-8zM232 527h8v1h-8zM240 527h8v1h-8zM248 527h8v1h-8zM256 527h8v1h-8zM264 527h8v1h-8zM272 527h8v1h-8z"/></svg>